SplineFontDB: 3.0
FontName: Trochut
FullName: Trochut
FamilyName: Trochut
Weight: Book
Copyright: Copyright (c) 2011, Andreu Balius (www.andreubalius.com|mail@andreubalius.com), with Reserved Font Name Trochut
Version: 1.001
ItalicAngle: 0
UnderlinePosition: -113
UnderlineWidth: 20
Ascent: 800
Descent: 200
sfntRevision: 0x00010042
LayerCount: 2
Layer: 0 1 "Back"  1
Layer: 1 1 "Fore"  0
XUID: [1021 1001 1109704347 16227066]
FSType: 0
OS2Version: 2
OS2_WeightWidthSlopeOnly: 0
OS2_UseTypoMetrics: 1
CreationTime: 1325880241
ModificationTime: 1325881676
PfmFamily: 17
TTFWeight: 400
TTFWidth: 5
LineGap: 0
VLineGap: 0
Panose: 2 0 5 3 7 0 0 2 0 3
OS2TypoAscent: 167
OS2TypoAOffset: 1
OS2TypoDescent: -10
OS2TypoDOffset: 1
OS2TypoLinegap: 0
OS2WinAscent: 45
OS2WinAOffset: 1
OS2WinDescent: 0
OS2WinDOffset: 1
HheadAscent: 45
HheadAOffset: 1
HheadDescent: 0
HheadDOffset: 1
OS2SubXSize: 700
OS2SubYSize: 650
OS2SubXOff: 0
OS2SubYOff: 140
OS2SupXSize: 700
OS2SupYSize: 650
OS2SupXOff: 0
OS2SupYOff: 477
OS2StrikeYSize: 50
OS2StrikeYPos: 250
OS2Vendor: 'TYRE'
OS2CodePages: 00000001.00000000
OS2UnicodeRanges: 8000002f.4000004a.00000000.00000000
Lookup: 258 0 0 "'kern' Horizontal Kerning in Latin lookup 0"  {"'kern' Horizontal Kerning in Latin lookup 0 subtable"  } ['kern' ('DFLT' <'dflt' > 'latn' <'dflt' > ) ]
DEI: 91125
TtTable: prep
PUSHW_1
 511
SCANCTRL
PUSHB_1
 4
SCANTYPE
EndTTInstrs
ShortTable: maxp 16
  1
  0
  224
  76
  7
  0
  0
  2
  0
  1
  1
  0
  64
  0
  0
  0
EndShort
LangName: 1033 "" "" "Regular" "AndreuBalius: Trochut: 2011" "" "Version 1.001" "" "Trochut is a trademark of Andreu Balius." "Andreu Balius" "Andreu Balius" "" "www.typerepublic.com" "www.andreubalius.com" "This Font Software is licensed under the SIL Open Font License, Version 1.1. This license is available with a FAQ at: http://scripts.sil.org/OFL" "http://scripts.sil.org/OFL" 
GaspTable: 1 65535 15 1
Encoding: UnicodeBmp
UnicodeInterp: none
NameList: Adobe Glyph List
DisplaySize: -24
AntiAlias: 1

StartChar: exclam
Encoding: 33 33 4
Width: 219
GlyphClass: 2
Flags: W
LayerCount: 2
Fore
SplineSet
75.5 685.5 m 128,-1,1
 91 700 91 700 109.5 700 c 128,-1,2
 128 700 128 700 143.5 685.5 c 128,-1,3
 159 671 159 671 159 646 c 1,4,-1
 128 154 l 1,5,-1
 91 154 l 1,6,-1
 60 646 l 1,7,0
 60 671 60 671 75.5 685.5 c 128,-1,1
65 43 m 128,-1,9
 65 65 65 65 78 80.5 c 128,-1,10
 91 96 91 96 109.5 96 c 128,-1,11
 128 96 128 96 140.5 80.5 c 128,-1,12
 153 65 153 65 153 43 c 128,-1,13
 153 21 153 21 140.5 5.5 c 128,-1,14
 128 -10 128 -10 109.5 -10 c 128,-1,15
 91 -10 91 -10 78 5.5 c 128,-1,8
 65 21 65 21 65 43 c 128,-1,9
EndSplineSet
EndChar

StartChar: quotedbl
Encoding: 34 34 5
Width: 346
GlyphClass: 2
Flags: W
LayerCount: 2
Fore
SplineSet
135 690 m 1,0,-1
 135 640 l 1,1,-1
 115 480 l 1,2,-1
 80 480 l 1,3,-1
 60 640 l 1,4,-1
 60 690 l 1,5,-1
 135 690 l 1,0,-1
286 690 m 1,6,-1
 286 640 l 1,7,-1
 266 480 l 1,8,-1
 231 480 l 1,9,-1
 211 640 l 1,10,-1
 211 690 l 1,11,-1
 286 690 l 1,6,-1
EndSplineSet
EndChar

StartChar: numbersign
Encoding: 35 35 6
Width: 708
GlyphClass: 2
Flags: W
LayerCount: 2
Fore
SplineSet
264 268 m 1,0,-1
 398 268 l 1,1,-1
 427 430 l 1,2,-1
 293 430 l 1,3,-1
 264 268 l 1,0,-1
604 218 m 1,4,-1
 465 218 l 1,5,-1
 427 0 l 1,6,-1
 351 0 l 1,7,-1
 389 218 l 1,8,-1
 255 218 l 1,9,-1
 217 0 l 1,10,-1
 141 0 l 1,11,-1
 179 218 l 1,12,-1
 43 218 l 1,13,-1
 52 268 l 1,14,-1
 188 268 l 1,15,-1
 217 430 l 1,16,-1
 80 430 l 1,17,-1
 89 480 l 1,18,-1
 226 480 l 1,19,-1
 263 690 l 1,20,-1
 339 690 l 1,21,-1
 302 480 l 1,22,-1
 436 480 l 1,23,-1
 473 690 l 1,24,-1
 548 690 l 1,25,-1
 511 480 l 1,26,-1
 650 480 l 1,27,-1
 641 430 l 1,28,-1
 503 430 l 1,29,-1
 474 268 l 1,30,-1
 613 268 l 1,31,-1
 604 218 l 1,4,-1
EndSplineSet
EndChar

StartChar: dollar
Encoding: 36 36 7
Width: 512
GlyphClass: 2
Flags: W
LayerCount: 2
Fore
SplineSet
248 -48 m 1,0,-1
 248 -10 l 1,1,2
 160 -7 160 -7 105 35.5 c 128,-1,3
 50 78 50 78 50 173 c 2,4,-1
 50 184 l 1,5,-1
 129 184 l 1,6,-1
 129 162 l 2,7,8
 129 93 129 93 157 59.5 c 128,-1,9
 185 26 185 26 248 25 c 1,10,-1
 248 283 l 1,11,-1
 131 385 l 2,12,13
 73 435 73 435 73 514 c 128,-1,14
 73 593 73 593 120 644.5 c 128,-1,15
 167 696 167 696 248 700 c 1,16,-1
 248 749 l 1,17,-1
 288 749 l 1,18,-1
 288 698 l 1,19,20
 355 690 355 690 390 651.5 c 128,-1,21
 425 613 425 613 425 569 c 2,22,-1
 425 563 l 1,23,-1
 393 563 l 1,24,25
 393 592 393 592 365 625.5 c 128,-1,26
 337 659 337 659 288 664 c 1,27,-1
 288 394 l 1,28,-1
 412 286 l 2,29,30
 462 243 462 243 462 170.5 c 128,-1,31
 462 98 462 98 414.5 49 c 128,-1,32
 367 0 367 0 288 -8 c 1,33,-1
 288 -48 l 1,34,-1
 248 -48 l 1,0,-1
248 663 m 1,35,36
 163 650 163 650 163 555 c 0,37,38
 163 504 163 504 201 470 c 2,39,-1
 248 429 l 1,40,-1
 248 663 l 1,35,36
347.5 67 m 128,-1,42
 369 95 369 95 369 136.5 c 128,-1,43
 369 178 369 178 336 207 c 2,44,-1
 288 248 l 1,45,-1
 288 29 l 1,46,41
 326 39 326 39 347.5 67 c 128,-1,42
EndSplineSet
EndChar

StartChar: percent
Encoding: 37 37 8
Width: 781
GlyphClass: 2
Flags: W
LayerCount: 2
Fore
SplineSet
527 730 m 1,0,-1
 609 730 l 1,1,-1
 262 -30 l 1,2,-1
 180 -30 l 1,3,-1
 527 730 l 1,0,-1
346 507 m 2,4,5
 346 434 346 434 309.5 392 c 128,-1,6
 273 350 273 350 198 350 c 128,-1,7
 123 350 123 350 86.5 392 c 128,-1,8
 50 434 50 434 50 507 c 2,9,-1
 50 544 l 2,10,11
 50 617 50 617 86.5 658.5 c 128,-1,12
 123 700 123 700 198 700 c 128,-1,13
 273 700 273 700 309.5 658.5 c 128,-1,14
 346 617 346 617 346 544 c 2,15,-1
 346 507 l 2,4,5
259 478 m 2,16,-1
 259 573 l 2,17,18
 259 621 259 621 247.5 645.5 c 128,-1,19
 236 670 236 670 198 670 c 128,-1,20
 160 670 160 670 148 645 c 128,-1,21
 136 620 136 620 136 573 c 2,22,-1
 136 478 l 2,23,24
 136 431 136 431 148 405.5 c 128,-1,25
 160 380 160 380 198 380 c 128,-1,26
 236 380 236 380 247.5 405 c 128,-1,27
 259 430 259 430 259 478 c 2,16,-1
731 146 m 2,28,29
 731 73 731 73 694.5 31.5 c 128,-1,30
 658 -10 658 -10 583 -10 c 128,-1,31
 508 -10 508 -10 471.5 31.5 c 128,-1,32
 435 73 435 73 435 146 c 2,33,-1
 435 183 l 2,34,35
 435 256 435 256 471.5 298 c 128,-1,36
 508 340 508 340 583 340 c 128,-1,37
 658 340 658 340 694.5 298 c 128,-1,38
 731 256 731 256 731 183 c 2,39,-1
 731 146 l 2,28,29
644 117 m 2,40,-1
 644 212 l 2,41,42
 644 260 644 260 632.5 285 c 128,-1,43
 621 310 621 310 583 310 c 128,-1,44
 545 310 545 310 533 284.5 c 128,-1,45
 521 259 521 259 521 212 c 2,46,-1
 521 117 l 2,47,48
 521 70 521 70 533 45 c 128,-1,49
 545 20 545 20 583 20 c 128,-1,50
 621 20 621 20 632.5 44.5 c 128,-1,51
 644 69 644 69 644 117 c 2,40,-1
EndSplineSet
EndChar

StartChar: ampersand
Encoding: 38 38 9
Width: 642
GlyphClass: 2
Flags: W
LayerCount: 2
Fore
SplineSet
428 182 m 2,0,-1
 428 300 l 1,1,-1
 169 300 l 1,2,-1
 169 182 l 2,3,4
 169 111 169 111 201.5 68 c 128,-1,5
 234 25 234 25 298 25 c 128,-1,6
 362 25 362 25 395 67.5 c 128,-1,7
 428 110 428 110 428 182 c 2,0,-1
538 40 m 0,8,9
 557 40 557 40 569 72 c 1,10,-1
 588 69 l 1,11,12
 588 60 588 60 582 44 c 128,-1,13
 576 28 576 28 568.5 18 c 128,-1,14
 561 8 561 8 545.5 -0.5 c 128,-1,15
 530 -9 530 -9 510 -9 c 0,16,17
 455 -9 455 -9 437 36 c 1,18,19
 375 -10 375 -10 298 -10 c 0,20,21
 189 -10 189 -10 124.5 64.5 c 128,-1,22
 60 139 60 139 60 254 c 2,23,-1
 60 436 l 2,24,25
 60 550 60 550 124.5 625 c 128,-1,26
 189 700 189 700 298 700 c 0,27,28
 383 700 383 700 447.5 647 c 128,-1,29
 512 594 512 594 512 499 c 2,30,-1
 512 490 l 1,31,-1
 426 490 l 1,32,-1
 426 508 l 2,33,34
 426 579 426 579 393.5 622 c 128,-1,35
 361 665 361 665 297.5 665 c 128,-1,36
 234 665 234 665 201.5 622 c 128,-1,37
 169 579 169 579 169 508 c 2,38,-1
 169 347 l 1,39,-1
 428 347 l 1,40,-1
 428 409 l 1,41,-1
 515 409 l 1,42,-1
 515 347 l 1,43,-1
 617 347 l 1,44,-1
 617 300 l 1,45,-1
 515 300 l 1,46,-1
 515 72 l 2,47,48
 515 40 515 40 538 40 c 0,8,9
EndSplineSet
EndChar

StartChar: quotesingle
Encoding: 39 39 10
Width: 195
GlyphClass: 2
Flags: W
LayerCount: 2
Fore
SplineSet
135 690 m 1,0,-1
 135 640 l 1,1,-1
 115 480 l 1,2,-1
 80 480 l 1,3,-1
 60 640 l 1,4,-1
 60 690 l 1,5,-1
 135 690 l 1,0,-1
EndSplineSet
EndChar

StartChar: parenleft
Encoding: 40 40 11
Width: 358
GlyphClass: 2
Flags: W
LayerCount: 2
Fore
SplineSet
298 -40 m 1,0,1
 191 -40 191 -40 125.5 48 c 128,-1,2
 60 136 60 136 60 254 c 2,3,-1
 60 440 l 2,4,5
 60 557 60 557 125.5 643.5 c 128,-1,6
 191 730 191 730 298 730 c 1,7,-1
 298 700 l 1,8,9
 236 700 236 700 202.5 643.5 c 128,-1,10
 169 587 169 587 169 513 c 2,11,-1
 169 182 l 2,12,13
 169 106 169 106 202.5 48 c 128,-1,14
 236 -10 236 -10 298 -10 c 1,15,-1
 298 -40 l 1,0,1
EndSplineSet
EndChar

StartChar: parenright
Encoding: 41 41 12
Width: 358
GlyphClass: 2
Flags: W
LayerCount: 2
Fore
SplineSet
60 -40 m 1,0,-1
 60 -10 l 1,1,2
 122 -10 122 -10 155.5 48 c 128,-1,3
 189 106 189 106 189 182 c 2,4,-1
 189 513 l 2,5,6
 189 587 189 587 155.5 643.5 c 128,-1,7
 122 700 122 700 60 700 c 1,8,-1
 60 730 l 1,9,10
 167 730 167 730 232.5 643.5 c 128,-1,11
 298 557 298 557 298 440 c 2,12,-1
 298 254 l 2,13,14
 298 136 298 136 232.5 48 c 128,-1,15
 167 -40 167 -40 60 -40 c 1,0,-1
EndSplineSet
EndChar

StartChar: asterisk
Encoding: 42 42 13
Width: 500
GlyphClass: 2
Flags: W
LayerCount: 2
Fore
SplineSet
289 668 m 128,-1,1
 289 654 289 654 269 558 c 1,2,3
 327 644 327 644 334 651 c 128,-1,4
 341 658 341 658 354.5 658 c 128,-1,5
 368 658 368 658 381.5 645.5 c 128,-1,6
 395 633 395 633 395 619 c 128,-1,7
 395 605 395 605 384 594 c 128,-1,8
 373 583 373 583 298 531 c 1,9,10
 394 551 394 551 407 551 c 2,11,-1
 408 551 l 2,12,13
 421 551 421 551 430 540 c 128,-1,14
 439 529 439 529 439.5 514 c 128,-1,15
 440 499 440 499 431 487 c 128,-1,16
 422 475 422 475 405.5 475 c 128,-1,17
 389 475 389 475 298 492 c 1,18,19
 382 436 382 436 390.5 427.5 c 128,-1,20
 399 419 399 419 399 405.5 c 128,-1,21
 399 392 399 392 387 378 c 1,22,23
 374 365 374 365 360 365 c 128,-1,24
 346 365 346 365 337.5 373.5 c 128,-1,25
 329 382 329 382 272 462 c 1,26,27
 291 360 291 360 291 354 c 2,28,-1
 291 352 l 2,29,30
 291 339 291 339 280 329.5 c 128,-1,31
 269 320 269 320 254 320 c 128,-1,32
 239 320 239 320 227.5 329 c 128,-1,33
 216 338 216 338 216 351 c 2,34,-1
 216 352 l 2,35,36
 216 363 216 363 232 461 c 1,37,38
 176 378 176 378 168 370 c 128,-1,39
 160 362 160 362 145 362 c 128,-1,40
 130 362 130 362 118 373.5 c 128,-1,41
 106 385 106 385 106 400 c 128,-1,42
 106 415 106 415 113.5 422 c 128,-1,43
 121 429 121 429 207 491 c 1,44,45
 109 471 109 471 95 471 c 2,46,-1
 93 471 l 2,47,48
 80 471 80 471 70 482.5 c 128,-1,49
 60 494 60 494 60 508.5 c 128,-1,50
 60 523 60 523 69.5 534.5 c 128,-1,51
 79 546 79 546 91.5 546 c 128,-1,52
 104 546 104 546 202 530 c 1,53,54
 119 586 119 586 111.5 593.5 c 128,-1,55
 104 601 104 601 104 616.5 c 128,-1,56
 104 632 104 632 114 643.5 c 128,-1,57
 124 655 124 655 140 655 c 128,-1,58
 156 655 156 655 166 644 c 128,-1,59
 176 633 176 633 231 556 c 1,60,61
 213 653 213 653 213 667.5 c 128,-1,62
 213 682 213 682 224.5 691 c 128,-1,63
 236 700 236 700 250.5 700 c 128,-1,64
 265 700 265 700 277 691 c 128,-1,0
 289 682 289 682 289 668 c 128,-1,1
EndSplineSet
EndChar

StartChar: plus
Encoding: 43 43 14
Width: 350
GlyphClass: 2
Flags: W
LayerCount: 2
Fore
SplineSet
203 360 m 1,0,-1
 203 260 l 1,1,-1
 300 260 l 1,2,-1
 300 210 l 1,3,-1
 203 210 l 1,4,-1
 203 110 l 1,5,-1
 147 110 l 1,6,-1
 147 210 l 1,7,-1
 50 210 l 1,8,-1
 50 260 l 1,9,-1
 147 260 l 1,10,-1
 147 360 l 1,11,-1
 203 360 l 1,0,-1
EndSplineSet
EndChar

StartChar: comma
Encoding: 44 44 15
Width: 184
GlyphClass: 2
Flags: W
LayerCount: 2
Fore
SplineSet
134 110 m 1,0,1
 134 39 134 39 113.5 -10 c 128,-1,2
 93 -59 93 -59 43 -98 c 1,3,-1
 30 -88 l 1,4,5
 45 -69 45 -69 53.5 -34 c 128,-1,6
 62 1 62 1 64 51 c 1,7,-1
 64 110 l 1,8,-1
 134 110 l 1,0,1
EndSplineSet
EndChar

StartChar: hyphen
Encoding: 45 45 16
Width: 325
GlyphClass: 2
Flags: W
LayerCount: 2
Fore
SplineSet
275 235 m 1,0,-1
 50 235 l 1,1,-1
 50 300 l 1,2,-1
 275 300 l 1,3,-1
 275 235 l 1,0,-1
EndSplineSet
EndChar

StartChar: period
Encoding: 46 46 17
Width: 188
GlyphClass: 2
Flags: W
LayerCount: 2
Fore
SplineSet
50 43 m 128,-1,1
 50 65 50 65 63 80.5 c 128,-1,2
 76 96 76 96 94 96 c 128,-1,3
 112 96 112 96 125 80.5 c 128,-1,4
 138 65 138 65 138 43 c 128,-1,5
 138 21 138 21 125 5.5 c 128,-1,6
 112 -10 112 -10 94 -10 c 128,-1,7
 76 -10 76 -10 63 5.5 c 128,-1,0
 50 21 50 21 50 43 c 128,-1,1
EndSplineSet
EndChar

StartChar: slash
Encoding: 47 47 18
Width: 344
GlyphClass: 2
Flags: W
LayerCount: 2
Fore
SplineSet
208 729 m 1,0,-1
 284 729 l 1,1,-1
 136 -39 l 1,2,-1
 60 -39 l 1,3,-1
 208 729 l 1,0,-1
EndSplineSet
EndChar

StartChar: zero
Encoding: 48 48 19
Width: 530
GlyphClass: 2
Flags: W
LayerCount: 2
Fore
SplineSet
470 260 m 2,0,1
 470 130 470 130 423.5 60 c 128,-1,2
 377 -10 377 -10 264.5 -10 c 128,-1,3
 152 -10 152 -10 106 59.5 c 128,-1,4
 60 129 60 129 60 260 c 2,5,-1
 60 429 l 2,6,7
 60 560 60 560 106 630 c 128,-1,8
 152 700 152 700 264.5 700 c 128,-1,9
 377 700 377 700 423.5 629.5 c 128,-1,10
 470 559 470 559 470 429 c 2,11,-1
 470 260 l 2,0,1
360 182 m 2,12,-1
 360 508 l 2,13,14
 360 605 360 605 336 636 c 0,15,16
 314 665 314 665 265 665 c 0,17,18
 194 665 194 665 178 601 c 0,19,20
 169 567 169 567 169 508 c 2,21,-1
 169 182 l 2,22,23
 169 84 169 84 193 54 c 0,24,25
 216 25 216 25 270.5 25 c 128,-1,26
 325 25 325 25 342.5 63.5 c 128,-1,27
 360 102 360 102 360 182 c 2,12,-1
EndSplineSet
EndChar

StartChar: one
Encoding: 49 49 20
Width: 296
GlyphClass: 2
Flags: W
LayerCount: 2
Fore
SplineSet
226 0 m 1,0,-1
 117 0 l 1,1,-1
 117 612 l 1,2,-1
 20 502 l 1,3,-1
 20 572 l 1,4,-1
 117 690 l 1,5,-1
 226 690 l 1,6,-1
 226 0 l 1,0,-1
EndSplineSet
EndChar

StartChar: two
Encoding: 50 50 21
Width: 458
GlyphClass: 2
Flags: W
LayerCount: 2
Fore
SplineSet
205 700 m 0,0,1
 291 700 291 700 344.5 651 c 128,-1,2
 398 602 398 602 398 530 c 2,3,-1
 398 476 l 2,4,5
 398 364 398 364 330 304 c 0,6,7
 287 266 287 266 230 229 c 128,-1,8
 173 192 173 192 138 164 c 128,-1,9
 103 136 103 136 84 100 c 1,10,-1
 387 100 l 1,11,-1
 387 0 l 1,12,-1
 10 0 l 1,13,14
 10 33 10 33 35.5 86.5 c 128,-1,15
 61 140 61 140 102 190.5 c 128,-1,16
 143 241 143 241 190 286 c 128,-1,17
 237 331 237 331 254 353 c 0,18,19
 289 398 289 398 289 474 c 2,20,-1
 289 565 l 2,21,22
 289 608 289 608 264 636.5 c 128,-1,23
 239 665 239 665 198 665 c 128,-1,24
 157 665 157 665 123.5 639.5 c 128,-1,25
 90 614 90 614 69 574 c 1,26,-1
 41 587 l 1,27,28
 50 606 50 606 67 628.5 c 128,-1,29
 84 651 84 651 100.5 664.5 c 128,-1,30
 117 678 117 678 145 689 c 128,-1,31
 173 700 173 700 205 700 c 0,0,1
EndSplineSet
EndChar

StartChar: three
Encoding: 51 51 22
Width: 449
GlyphClass: 2
Flags: W
LayerCount: 2
Fore
SplineSet
275 476 m 2,0,-1
 275 565 l 2,1,2
 275 608 275 608 250 636.5 c 128,-1,3
 225 665 225 665 179 665 c 0,4,5
 107 665 107 665 60 574 c 1,6,-1
 32 587 l 1,7,8
 36 595 36 595 40.5 604.5 c 128,-1,9
 45 614 45 614 59.5 632.5 c 128,-1,10
 74 651 74 651 90.5 664.5 c 128,-1,11
 107 678 107 678 134 689 c 128,-1,12
 161 700 161 700 191 700 c 0,13,14
 277 700 277 700 330.5 651 c 128,-1,15
 384 602 384 602 384 530 c 2,16,-1
 384 515 l 2,17,18
 384 463 384 463 358 423.5 c 128,-1,19
 332 384 332 384 283 365 c 1,20,21
 335 346 335 346 364.5 303.5 c 128,-1,22
 394 261 394 261 394 209 c 2,23,-1
 394 189 l 2,24,25
 394 85 394 85 342 37.5 c 128,-1,26
 290 -10 290 -10 185 -10 c 0,27,28
 123 -10 123 -10 79.5 22 c 128,-1,29
 36 54 36 54 20 112 c 1,30,-1
 46 120 l 1,31,32
 58 86 58 86 89.5 55.5 c 128,-1,33
 121 25 121 25 175 25 c 0,34,35
 285 25 285 25 285 147 c 2,36,-1
 285 253 l 2,37,38
 285 296 285 296 260.5 323 c 128,-1,39
 236 350 236 350 183 350 c 1,40,-1
 185 380 l 1,41,42
 275 383 275 383 275 476 c 2,0,-1
EndSplineSet
EndChar

StartChar: four
Encoding: 52 52 23
Width: 476
GlyphClass: 2
Flags: W
LayerCount: 2
Fore
SplineSet
389 0 m 1,0,-1
 280 0 l 1,1,-1
 280 183 l 1,2,-1
 20 183 l 1,3,-1
 291 690 l 1,4,-1
 398 690 l 1,5,-1
 152 232 l 1,6,-1
 280 232 l 1,7,-1
 280 369 l 1,8,-1
 389 369 l 1,9,-1
 389 232 l 1,10,-1
 416 232 l 1,11,-1
 416 182 l 1,12,-1
 389 182 l 1,13,-1
 389 0 l 1,0,-1
EndSplineSet
EndChar

StartChar: five
Encoding: 53 53 24
Width: 487
GlyphClass: 2
Flags: W
LayerCount: 2
Fore
SplineSet
442 228 m 2,0,-1
 442 212 l 2,1,2
 442 -10 442 -10 233 -10 c 0,3,4
 171 -10 171 -10 127.5 22 c 128,-1,5
 84 54 84 54 68 112 c 1,6,-1
 94 120 l 1,7,8
 106 86 106 86 137.5 55.5 c 128,-1,9
 169 25 169 25 223 25 c 0,10,11
 334 25 334 25 334 160 c 2,12,-1
 334 259 l 2,13,14
 334 415 334 415 228 415 c 0,15,16
 133 415 133 415 110 307 c 1,17,-1
 60 307 l 1,18,-1
 60 690 l 1,19,-1
 423 690 l 1,20,-1
 423 590 l 1,21,-1
 110 590 l 1,22,-1
 110 381 l 1,23,24
 149 450 149 450 238 450 c 0,25,26
 345 450 345 450 393.5 384 c 128,-1,27
 442 318 442 318 442 228 c 2,0,-1
EndSplineSet
EndChar

StartChar: six
Encoding: 54 54 25
Width: 497
GlyphClass: 2
Flags: W
LayerCount: 2
Fore
SplineSet
452 157 m 2,0,1
 452 87 452 87 396 38.5 c 128,-1,2
 340 -10 340 -10 256 -10 c 128,-1,3
 172 -10 172 -10 116 38.5 c 128,-1,4
 60 87 60 87 60 157 c 2,5,-1
 60 477 l 2,6,7
 60 700 60 700 269 700 c 0,8,9
 331 700 331 700 374.5 668 c 128,-1,10
 418 636 418 636 434 578 c 1,11,-1
 408 570 l 1,12,13
 396 604 396 604 364.5 634.5 c 128,-1,14
 333 665 333 665 279 665 c 0,15,16
 168 665 168 665 168 530 c 2,17,-1
 168 417 l 1,18,19
 210 450 210 450 275 450 c 128,-1,20
 340 450 340 450 396 403 c 128,-1,21
 452 356 452 356 452 284 c 2,22,-1
 452 157 l 2,0,1
343 118 m 2,23,-1
 343 323 l 2,24,25
 343 420 343 420 251 420 c 0,26,27
 212 420 212 420 190 399 c 128,-1,28
 168 378 168 378 168 348 c 2,29,-1
 168 118 l 2,30,31
 168 75 168 75 189 47.5 c 128,-1,32
 210 20 210 20 256 20 c 0,33,34
 343 20 343 20 343 118 c 2,23,-1
EndSplineSet
EndChar

StartChar: seven
Encoding: 55 55 26
Width: 443
GlyphClass: 2
Flags: W
LayerCount: 2
Fore
SplineSet
88 342 m 1,0,-1
 88 389 l 1,1,-1
 184 389 l 1,2,3
 237 513 237 513 322 602 c 0,4,5
 341 622 341 622 364 640 c 1,6,-1
 163 640 l 2,7,8
 100 640 100 640 87 588 c 1,9,-1
 10 588 l 1,10,-1
 10 690 l 1,11,-1
 441 690 l 1,12,-1
 443 675 l 1,13,14
 338 564 338 564 281 389 c 1,15,-1
 365 389 l 1,16,-1
 365 342 l 1,17,-1
 267 342 l 1,18,19
 225 187 225 187 225 0 c 1,20,-1
 109 0 l 1,21,22
 109 188 109 188 165 342 c 1,23,-1
 88 342 l 1,0,-1
EndSplineSet
EndChar

StartChar: eight
Encoding: 56 56 27
Width: 512
GlyphClass: 2
Flags: W
LayerCount: 2
Fore
SplineSet
452 515 m 2,0,1
 452 465 452 465 422 425 c 128,-1,2
 392 385 392 385 341 365 c 1,3,4
 394 345 394 345 425.5 304.5 c 128,-1,5
 457 264 457 264 457 214 c 2,6,-1
 457 157 l 2,7,8
 457 87 457 87 399.5 38.5 c 128,-1,9
 342 -10 342 -10 256 -10 c 128,-1,10
 170 -10 170 -10 112.5 38.5 c 128,-1,11
 55 87 55 87 55 157 c 2,12,-1
 55 214 l 2,13,14
 55 265 55 265 86 305 c 128,-1,15
 117 345 117 345 170 365 c 1,16,17
 119 385 119 385 89.5 424.5 c 128,-1,18
 60 464 60 464 60 515 c 2,19,-1
 60 534 l 2,20,21
 60 604 60 604 116 652 c 128,-1,22
 172 700 172 700 256 700 c 128,-1,23
 340 700 340 700 396 652 c 128,-1,24
 452 604 452 604 452 534 c 2,25,-1
 452 515 l 2,0,1
348 118 m 2,26,-1
 348 253 l 2,27,28
 348 295 348 295 325.5 322.5 c 128,-1,29
 303 350 303 350 256 350 c 128,-1,30
 209 350 209 350 186 322.5 c 128,-1,31
 163 295 163 295 163 253 c 2,32,-1
 163 118 l 2,33,34
 163 76 163 76 186 48 c 128,-1,35
 209 20 209 20 256 20 c 128,-1,36
 303 20 303 20 325.5 47.5 c 128,-1,37
 348 75 348 75 348 118 c 2,26,-1
346 476 m 2,38,-1
 346 573 l 2,39,40
 346 616 346 616 324 643 c 128,-1,41
 302 670 302 670 255.5 670 c 128,-1,42
 209 670 209 670 187 643 c 128,-1,43
 165 616 165 616 165 573 c 2,44,-1
 165 476 l 2,45,46
 165 383 165 383 251 380 c 1,47,-1
 261 380 l 1,48,49
 305 381 305 381 325.5 407.5 c 128,-1,50
 346 434 346 434 346 476 c 2,38,-1
EndSplineSet
EndChar

StartChar: nine
Encoding: 57 57 28
Width: 497
GlyphClass: 2
Flags: W
LayerCount: 2
Fore
SplineSet
45 533 m 2,0,1
 45 603 45 603 101 651.5 c 128,-1,2
 157 700 157 700 241 700 c 128,-1,3
 325 700 325 700 381 651.5 c 128,-1,4
 437 603 437 603 437 533 c 2,5,-1
 437 213 l 2,6,7
 437 -10 437 -10 228 -10 c 0,8,9
 166 -10 166 -10 122.5 22 c 128,-1,10
 79 54 79 54 63 112 c 1,11,-1
 89 120 l 1,12,13
 101 86 101 86 132.5 55.5 c 128,-1,14
 164 25 164 25 218 25 c 0,15,16
 329 25 329 25 329 160 c 2,17,-1
 329 273 l 1,18,19
 287 240 287 240 222 240 c 128,-1,20
 157 240 157 240 101 287 c 128,-1,21
 45 334 45 334 45 406 c 2,22,-1
 45 533 l 2,0,1
154 572 m 2,23,-1
 154 367 l 2,24,25
 154 270 154 270 246 270 c 0,26,27
 285 270 285 270 307 291 c 128,-1,28
 329 312 329 312 329 342 c 2,29,-1
 329 572 l 2,30,31
 329 615 329 615 308 642.5 c 128,-1,32
 287 670 287 670 241 670 c 0,33,34
 154 670 154 670 154 572 c 2,23,-1
EndSplineSet
EndChar

StartChar: colon
Encoding: 58 58 29
Width: 188
GlyphClass: 2
Flags: W
LayerCount: 2
Fore
SplineSet
50 43 m 128,-1,1
 50 65 50 65 63 80.5 c 128,-1,2
 76 96 76 96 94 96 c 128,-1,3
 112 96 112 96 125 80.5 c 128,-1,4
 138 65 138 65 138 43 c 128,-1,5
 138 21 138 21 125 5.5 c 128,-1,6
 112 -10 112 -10 94 -10 c 128,-1,7
 76 -10 76 -10 63 5.5 c 128,-1,0
 50 21 50 21 50 43 c 128,-1,1
50 353 m 128,-1,9
 50 375 50 375 63 390.5 c 128,-1,10
 76 406 76 406 94 406 c 128,-1,11
 112 406 112 406 125 390.5 c 128,-1,12
 138 375 138 375 138 353 c 128,-1,13
 138 331 138 331 125 315.5 c 128,-1,14
 112 300 112 300 94 300 c 128,-1,15
 76 300 76 300 63 315.5 c 128,-1,8
 50 331 50 331 50 353 c 128,-1,9
EndSplineSet
EndChar

StartChar: semicolon
Encoding: 59 59 30
Width: 193
GlyphClass: 2
Flags: W
LayerCount: 2
Fore
SplineSet
55 353 m 128,-1,1
 55 375 55 375 68 390.5 c 128,-1,2
 81 406 81 406 99 406 c 128,-1,3
 117 406 117 406 130 390.5 c 128,-1,4
 143 375 143 375 143 353 c 128,-1,5
 143 331 143 331 130 315.5 c 128,-1,6
 117 300 117 300 99 300 c 128,-1,7
 81 300 81 300 68 315.5 c 128,-1,0
 55 331 55 331 55 353 c 128,-1,1
134 110 m 1,8,9
 134 39 134 39 113.5 -10 c 128,-1,10
 93 -59 93 -59 43 -98 c 1,11,-1
 30 -88 l 1,12,13
 45 -69 45 -69 53.5 -34 c 128,-1,14
 62 1 62 1 64 51 c 1,15,-1
 64 110 l 1,16,-1
 134 110 l 1,8,9
EndSplineSet
EndChar

StartChar: less
Encoding: 60 60 31
Width: 519
GlyphClass: 2
Flags: W
LayerCount: 2
Fore
SplineSet
383 0 m 1,0,-1
 100 282 l 1,1,-1
 383 565 l 1,2,-1
 418 530 l 1,3,-1
 171 282 l 1,4,-1
 419 35 l 1,5,-1
 383 0 l 1,0,-1
EndSplineSet
EndChar

StartChar: equal
Encoding: 61 61 32
Width: 500
GlyphClass: 2
Flags: W
LayerCount: 2
Fore
SplineSet
450 300 m 1,0,-1
 50 300 l 1,1,-1
 50 350 l 1,2,-1
 450 350 l 1,3,-1
 450 300 l 1,0,-1
450 160 m 1,4,-1
 50 160 l 1,5,-1
 50 210 l 1,6,-1
 450 210 l 1,7,-1
 450 160 l 1,4,-1
EndSplineSet
EndChar

StartChar: greater
Encoding: 62 62 33
Width: 519
GlyphClass: 2
Flags: W
LayerCount: 2
Fore
SplineSet
419 282 m 1,0,-1
 136 0 l 1,1,-1
 100 35 l 1,2,-1
 348 282 l 1,3,-1
 101 530 l 1,4,-1
 136 565 l 1,5,-1
 419 282 l 1,0,-1
EndSplineSet
EndChar

StartChar: question
Encoding: 63 63 34
Width: 447
GlyphClass: 2
Flags: W
LayerCount: 2
Fore
SplineSet
289 516 m 2,0,-1
 289 571 l 2,1,2
 289 665 289 665 210 665 c 0,3,4
 174 665 174 665 152 639.5 c 128,-1,5
 130 614 130 614 130 576 c 2,6,-1
 130 507 l 1,7,-1
 50 507 l 1,8,-1
 50 523 l 2,9,10
 50 598 50 598 98.5 649 c 128,-1,11
 147 700 147 700 228 700 c 128,-1,12
 309 700 309 700 353 649.5 c 128,-1,13
 397 599 397 599 397 524 c 2,14,-1
 397 508 l 2,15,16
 397 433 397 433 335 353 c 2,17,-1
 227 214 l 2,18,19
 209 190 209 190 209 164 c 2,20,-1
 209 142 l 1,21,-1
 164 142 l 1,22,-1
 164 165 l 2,23,24
 164 201 164 201 178 229.5 c 128,-1,25
 192 258 192 258 261 402 c 1,26,27
 289 458 289 458 289 516 c 2,0,-1
142 43 m 128,-1,29
 142 65 142 65 155 80.5 c 128,-1,30
 168 96 168 96 186 96 c 128,-1,31
 204 96 204 96 217 80.5 c 128,-1,32
 230 65 230 65 230 43 c 128,-1,33
 230 21 230 21 217 5.5 c 128,-1,34
 204 -10 204 -10 186 -10 c 128,-1,35
 168 -10 168 -10 155 5.5 c 128,-1,28
 142 21 142 21 142 43 c 128,-1,29
EndSplineSet
EndChar

StartChar: at
Encoding: 64 64 35
Width: 919
GlyphClass: 2
Flags: W
LayerCount: 2
Fore
SplineSet
613 -110 m 1,0,-1
 613 -145 l 1,1,-1
 298 -145 l 2,2,3
 182 -145 182 -145 121 -72 c 128,-1,4
 60 1 60 1 60 125 c 2,5,-1
 60 419 l 2,6,7
 60 544 60 544 121 617 c 128,-1,8
 182 690 182 690 298 690 c 2,9,-1
 621 690 l 2,10,11
 737 690 737 690 798 616.5 c 128,-1,12
 859 543 859 543 859 419 c 2,13,-1
 859 260 l 2,14,15
 859 138 859 138 799.5 64 c 128,-1,16
 740 -10 740 -10 638 -10 c 2,17,-1
 608 -10 l 2,18,19
 538 -10 538 -10 528 64 c 1,20,21
 499 -10 499 -10 428 -10 c 0,22,23
 368 -10 368 -10 332.5 33 c 128,-1,24
 297 76 297 76 297 149 c 2,25,-1
 297 322 l 2,26,27
 297 394 297 394 332.5 437 c 128,-1,28
 368 480 368 480 433 480 c 128,-1,29
 498 480 498 480 526 412 c 1,30,-1
 526 470 l 1,31,-1
 613 470 l 1,32,-1
 613 59 l 2,33,34
 613 25 613 25 639 25 c 0,35,36
 749 25 749 25 749 182 c 2,37,-1
 749 498 l 2,38,39
 749 568 749 568 716.5 611.5 c 128,-1,40
 684 655 684 655 621 655 c 2,41,-1
 298 655 l 2,42,43
 234 655 234 655 201.5 611.5 c 128,-1,44
 169 568 169 568 169 498 c 2,45,-1
 169 47 l 2,46,47
 169 -24 169 -24 201.5 -67 c 128,-1,48
 234 -110 234 -110 298 -110 c 2,49,-1
 613 -110 l 1,0,-1
526 334 m 2,50,51
 526 380 526 380 504 415 c 128,-1,52
 482 450 482 450 443 450 c 0,53,54
 384 450 384 450 384 356 c 2,55,-1
 384 115 l 2,56,57
 384 22 384 22 442 22 c 0,58,59
 483 22 483 22 504.5 55.5 c 128,-1,60
 526 89 526 89 526 137 c 2,61,-1
 526 334 l 2,50,51
EndSplineSet
EndChar

StartChar: A
Encoding: 65 65 36
Width: 606
GlyphClass: 2
Flags: W
LayerCount: 2
Fore
SplineSet
536 0 m 1,0,-1
 427 0 l 1,1,-1
 427 110 l 1,2,3
 414 67 414 67 372.5 28.5 c 128,-1,4
 331 -10 331 -10 271 -10 c 0,5,6
 175 -10 175 -10 117.5 57.5 c 128,-1,7
 60 125 60 125 60 247 c 2,8,-1
 60 446 l 2,9,10
 60 569 60 569 123.5 634.5 c 128,-1,11
 187 700 187 700 273 700 c 0,12,13
 309 700 309 700 338.5 685 c 128,-1,14
 368 670 368 670 386 648 c 0,15,16
 415 611 415 611 427 575 c 1,17,-1
 427 690 l 1,18,-1
 536 690 l 1,19,-1
 536 0 l 1,0,-1
426 227 m 2,20,-1
 426 468 l 2,21,22
 426 542 426 542 387 603.5 c 128,-1,23
 348 665 348 665 283 665 c 0,24,25
 246 665 246 665 220.5 646 c 128,-1,26
 195 627 195 627 185 596 c 0,27,28
 168 545 168 545 168 497 c 2,29,-1
 168 197 l 2,30,31
 168 109 168 109 201 67 c 128,-1,32
 234 25 234 25 294 25 c 128,-1,33
 354 25 354 25 390 85.5 c 128,-1,34
 426 146 426 146 426 227 c 2,20,-1
EndSplineSet
EndChar

StartChar: B
Encoding: 66 66 37
Width: 537
GlyphClass: 2
Flags: W
LayerCount: 2
Fore
SplineSet
497 184 m 0,0,1
 497 0 497 0 251 0 c 2,2,-1
 70 0 l 1,3,-1
 70 690 l 1,4,-1
 226 690 l 2,5,6
 364 690 364 690 422 642 c 0,7,8
 472 601 472 601 472 518 c 0,9,10
 472 453 472 453 441.5 419 c 128,-1,11
 411 385 411 385 348 365 c 1,12,13
 420 343 420 343 458.5 300.5 c 128,-1,14
 497 258 497 258 497 184 c 0,0,1
369 524 m 0,15,16
 369 611 369 611 318 636 c 1,17,18
 274 656 274 656 197 656 c 2,19,-1
 178 656 l 1,20,-1
 178 378 l 1,21,-1
 218 378 l 2,22,23
 369 378 369 378 369 524 c 0,15,16
349.5 71.5 m 128,-1,25
 392 109 392 109 392 189.5 c 128,-1,26
 392 270 392 270 349.5 309.5 c 128,-1,27
 307 349 307 349 242 349 c 2,28,-1
 178 349 l 1,29,-1
 178 34 l 1,30,-1
 213 34 l 2,31,24
 307 34 307 34 349.5 71.5 c 128,-1,25
EndSplineSet
EndChar

StartChar: C
Encoding: 67 67 38
Width: 562
GlyphClass: 2
Flags: W
LayerCount: 2
Fore
SplineSet
512 486 m 1,0,-1
 426 486 l 1,1,-1
 426 509 l 2,2,3
 426 579 426 579 393.5 622 c 128,-1,4
 361 665 361 665 297.5 665 c 128,-1,5
 234 665 234 665 201.5 622 c 128,-1,6
 169 579 169 579 169 509 c 2,7,-1
 169 182 l 2,8,9
 169 111 169 111 201.5 68 c 128,-1,10
 234 25 234 25 297.5 25 c 128,-1,11
 361 25 361 25 393.5 68 c 128,-1,12
 426 111 426 111 426 182 c 2,13,-1
 426 204 l 1,14,-1
 512 204 l 1,15,-1
 512 194 l 2,16,17
 512 140 512 140 491 98.5 c 128,-1,18
 470 57 470 57 436 34 c 0,19,20
 370 -10 370 -10 298 -10 c 0,21,22
 189 -10 189 -10 124.5 65 c 128,-1,23
 60 140 60 140 60 254 c 2,24,-1
 60 436 l 2,25,26
 60 550 60 550 124.5 625 c 128,-1,27
 189 700 189 700 298 700 c 0,28,29
 383 700 383 700 447.5 647 c 128,-1,30
 512 594 512 594 512 499 c 2,31,-1
 512 486 l 1,0,-1
EndSplineSet
EndChar

StartChar: D
Encoding: 68 68 39
Width: 576
GlyphClass: 2
Flags: W
LayerCount: 2
Fore
SplineSet
516 269 m 2,0,1
 516 153 516 153 444.5 76.5 c 128,-1,2
 373 0 373 0 261 0 c 2,3,-1
 70 0 l 1,4,-1
 70 690 l 1,5,-1
 261 690 l 2,6,7
 373 690 373 690 444.5 613.5 c 128,-1,8
 516 537 516 537 516 421 c 2,9,-1
 516 269 l 2,0,1
408 222 m 2,10,-1
 408 468 l 2,11,12
 408 559 408 559 359 607.5 c 128,-1,13
 310 656 310 656 224 656 c 2,14,-1
 178 656 l 1,15,-1
 178 34 l 1,16,-1
 224 34 l 2,17,18
 310 34 310 34 359 82.5 c 128,-1,19
 408 131 408 131 408 222 c 2,10,-1
EndSplineSet
EndChar

StartChar: E
Encoding: 69 69 40
Width: 567
GlyphClass: 2
Flags: W
LayerCount: 2
Fore
SplineSet
512 486 m 1,0,-1
 426 486 l 1,1,-1
 426 508 l 2,2,3
 426 579 426 579 393.5 622 c 128,-1,4
 361 665 361 665 297.5 665 c 128,-1,5
 234 665 234 665 201.5 622 c 128,-1,6
 169 579 169 579 169 508 c 2,7,-1
 169 388 l 1,8,-1
 433 388 l 1,9,-1
 433 341 l 1,10,-1
 169 341 l 1,11,-1
 169 182 l 2,12,13
 169 111 169 111 201.5 68 c 128,-1,14
 234 25 234 25 297.5 25 c 128,-1,15
 361 25 361 25 393.5 68 c 128,-1,16
 426 111 426 111 426 182 c 2,17,-1
 426 204 l 1,18,-1
 512 204 l 1,19,-1
 512 194 l 2,20,21
 512 140 512 140 491 98.5 c 128,-1,22
 470 57 470 57 436 34 c 0,23,24
 370 -10 370 -10 298 -10 c 0,25,26
 189 -10 189 -10 124.5 65 c 128,-1,27
 60 140 60 140 60 254 c 2,28,-1
 60 436 l 2,29,30
 60 550 60 550 124.5 625 c 128,-1,31
 189 700 189 700 298 700 c 0,32,33
 383 700 383 700 447.5 647 c 128,-1,34
 512 594 512 594 512 499 c 2,35,-1
 512 486 l 1,0,-1
EndSplineSet
EndChar

StartChar: F
Encoding: 70 70 41
Width: 434
GlyphClass: 2
Flags: W
LayerCount: 2
Fore
SplineSet
414 486 m 1,0,-1
 333 486 l 1,1,-1
 333 583 l 2,2,3
 333 620 333 620 314 642.5 c 128,-1,4
 295 665 295 665 263.5 665 c 128,-1,5
 232 665 232 665 212.5 642.5 c 128,-1,6
 193 620 193 620 193 583 c 2,7,-1
 193 388 l 1,8,-1
 336 388 l 1,9,-1
 336 341 l 1,10,-1
 193 341 l 1,11,-1
 193 0 l 1,12,-1
 85 0 l 1,13,-1
 85 341 l 1,14,-1
 45 341 l 1,15,-1
 45 388 l 1,16,-1
 85 388 l 1,17,-1
 85 527 l 2,18,19
 85 609 85 609 134 654.5 c 128,-1,20
 183 700 183 700 251 700 c 128,-1,21
 319 700 319 700 366.5 651.5 c 128,-1,22
 414 603 414 603 414 521 c 2,23,-1
 414 486 l 1,0,-1
EndSplineSet
EndChar

StartChar: G
Encoding: 71 71 42
Width: 569
GlyphClass: 2
Flags: W
LayerCount: 2
Fore
SplineSet
524 79 m 2,0,1
 524 -28 524 -28 506 -77 c 0,2,3
 483 -141 483 -141 442 -170 c 0,4,5
 387 -210 387 -210 306.5 -210 c 128,-1,6
 226 -210 226 -210 171 -189.5 c 128,-1,7
 116 -169 116 -169 87 -144 c 1,8,-1
 106 -116 l 1,9,10
 128 -135 128 -135 170.5 -152.5 c 128,-1,11
 213 -170 213 -170 265 -170 c 0,12,13
 363 -170 363 -170 393.5 -118.5 c 128,-1,14
 424 -67 424 -67 424 55 c 2,15,-1
 424 65 l 1,16,17
 386 -10 386 -10 296 -10 c 0,18,19
 188 -10 188 -10 124 64.5 c 128,-1,20
 60 139 60 139 60 252 c 2,21,-1
 60 437 l 2,22,23
 60 551 60 551 124 625.5 c 128,-1,24
 188 700 188 700 296 700 c 0,25,26
 380 700 380 700 444 647 c 128,-1,27
 508 594 508 594 508 500 c 2,28,-1
 508 486 l 1,29,-1
 424 486 l 1,30,-1
 423 510 l 2,31,32
 420 581 420 581 389 623 c 128,-1,33
 358 665 358 665 295.5 665 c 128,-1,34
 233 665 233 665 200.5 622.5 c 128,-1,35
 168 580 168 580 168 510 c 2,36,-1
 168 181 l 2,37,38
 168 110 168 110 200 67.5 c 128,-1,39
 232 25 232 25 296 25 c 0,40,41
 416 25 416 25 423 181 c 2,42,-1
 424 202 l 1,43,-1
 524 202 l 1,44,-1
 524 79 l 2,0,1
EndSplineSet
EndChar

StartChar: H
Encoding: 72 72 43
Width: 611
GlyphClass: 2
Flags: W
LayerCount: 2
Fore
SplineSet
541 690 m 1,0,-1
 541 0 l 1,1,-1
 432 0 l 1,2,-1
 432 340 l 1,3,-1
 178 340 l 1,4,-1
 178 0 l 1,5,-1
 70 0 l 1,6,-1
 70 690 l 1,7,-1
 178 690 l 1,8,-1
 178 388 l 1,9,-1
 432 388 l 1,10,-1
 432 690 l 1,11,-1
 541 690 l 1,0,-1
EndSplineSet
EndChar

StartChar: I
Encoding: 73 73 44
Width: 249
GlyphClass: 2
Flags: W
LayerCount: 2
Fore
SplineSet
179 0 m 1,0,-1
 70 0 l 1,1,-1
 70 690 l 1,2,-1
 179 690 l 1,3,-1
 179 0 l 1,0,-1
EndSplineSet
EndChar

StartChar: J
Encoding: 74 74 45
Width: 448
GlyphClass: 2
Flags: W
LayerCount: 2
Fore
SplineSet
388 167 m 2,0,1
 388 93 388 93 339 41.5 c 128,-1,2
 290 -10 290 -10 208 -10 c 128,-1,3
 126 -10 126 -10 73 42 c 128,-1,4
 20 94 20 94 20 168 c 2,5,-1
 20 204 l 1,6,-1
 100 204 l 1,7,-1
 100 115 l 2,8,9
 100 78 100 78 126 52 c 128,-1,10
 152 26 152 26 190.5 26 c 128,-1,11
 229 26 229 26 254 51.5 c 128,-1,12
 279 77 279 77 279 121 c 2,13,-1
 279 690 l 1,14,-1
 388 690 l 1,15,-1
 388 167 l 2,0,1
EndSplineSet
EndChar

StartChar: K
Encoding: 75 75 46
Width: 498
GlyphClass: 2
Flags: W
LayerCount: 2
Fore
SplineSet
448 0 m 1,0,-1
 347 0 l 1,1,-1
 347 135 l 2,2,3
 347 196 347 196 341.5 235.5 c 128,-1,4
 336 275 336 275 320 308 c 0,5,6
 288 370 288 370 188 370 c 2,7,-1
 178 370 l 1,8,-1
 178 0 l 1,9,-1
 70 0 l 1,10,-1
 70 690 l 1,11,-1
 178 690 l 1,12,-1
 178 408 l 1,13,14
 243 408 243 408 284.5 452.5 c 128,-1,15
 326 497 326 497 326 565 c 2,16,-1
 326 690 l 1,17,-1
 435 690 l 1,18,-1
 435 637 l 2,19,20
 435 559 435 559 397 496 c 128,-1,21
 359 433 359 433 294 401 c 1,22,23
 370 383 370 383 402 328 c 0,24,25
 436 271 436 271 441 226 c 0,26,27
 448 164 448 164 448 111 c 2,28,-1
 448 0 l 1,0,-1
EndSplineSet
EndChar

StartChar: L
Encoding: 76 76 47
Width: 365
GlyphClass: 2
Flags: W
LayerCount: 2
Fore
SplineSet
362 0 m 1,0,-1
 70 0 l 1,1,-1
 70 690 l 1,2,-1
 178 690 l 1,3,-1
 178 47 l 1,4,-1
 362 47 l 1,5,-1
 362 0 l 1,0,-1
EndSplineSet
EndChar

StartChar: M
Encoding: 77 77 48
Width: 902
GlyphClass: 2
Flags: W
LayerCount: 2
Fore
SplineSet
842 0 m 1,0,-1
 732 0 l 1,1,-1
 732 514 l 2,2,3
 732 594 732 594 710.5 629.5 c 128,-1,4
 689 665 689 665 642.5 665 c 128,-1,5
 596 665 596 665 553 613.5 c 128,-1,6
 510 562 510 562 510 464 c 2,7,-1
 510 0 l 1,8,-1
 401 0 l 1,9,-1
 401 514 l 2,10,11
 401 594 401 594 379 629.5 c 128,-1,12
 357 665 357 665 311 665 c 128,-1,13
 265 665 265 665 221.5 613 c 128,-1,14
 178 561 178 561 178 464 c 2,15,-1
 178 0 l 1,16,-1
 70 0 l 1,17,-1
 70 690 l 1,18,-1
 178 690 l 1,19,-1
 178 578 l 1,20,21
 228 700 228 700 337 700 c 0,22,23
 466 700 466 700 502 553 c 1,24,25
 520 618 520 618 561.5 659 c 128,-1,26
 603 700 603 700 669 700 c 0,27,28
 750 700 750 700 796 639 c 128,-1,29
 842 578 842 578 842 468 c 2,30,-1
 842 0 l 1,0,-1
EndSplineSet
EndChar

StartChar: N
Encoding: 78 78 49
Width: 606
GlyphClass: 2
Flags: W
LayerCount: 2
Fore
SplineSet
546 447 m 2,0,-1
 546 0 l 1,1,-1
 436 0 l 1,2,-1
 436 498 l 2,3,4
 436 615 436 615 376 652 c 1,5,6
 353 665 353 665 323 665 c 0,7,8
 259 665 259 665 218.5 604.5 c 128,-1,9
 178 544 178 544 178 464 c 2,10,-1
 178 0 l 1,11,-1
 70 0 l 1,12,-1
 70 690 l 1,13,-1
 178 690 l 1,14,-1
 178 575 l 1,15,16
 199 634 199 634 240 667 c 128,-1,17
 281 700 281 700 333 700 c 0,18,19
 422 700 422 700 484 632.5 c 128,-1,20
 546 565 546 565 546 447 c 2,0,-1
EndSplineSet
EndChar

StartChar: O
Encoding: 79 79 50
Width: 596
GlyphClass: 2
Flags: W
LayerCount: 2
Fore
SplineSet
536 260 m 2,0,1
 536 136 536 136 475 63 c 128,-1,2
 414 -10 414 -10 298 -10 c 128,-1,3
 182 -10 182 -10 121 63 c 128,-1,4
 60 136 60 136 60 260 c 2,5,-1
 60 429 l 2,6,7
 60 554 60 554 121 627 c 128,-1,8
 182 700 182 700 298 700 c 128,-1,9
 414 700 414 700 475 626.5 c 128,-1,10
 536 553 536 553 536 429 c 2,11,-1
 536 260 l 2,0,1
426 182 m 2,12,-1
 426 508 l 2,13,14
 426 578 426 578 393.5 621.5 c 128,-1,15
 361 665 361 665 297.5 665 c 128,-1,16
 234 665 234 665 201.5 621.5 c 128,-1,17
 169 578 169 578 169 508 c 2,18,-1
 169 182 l 2,19,20
 169 111 169 111 201.5 68 c 128,-1,21
 234 25 234 25 297.5 25 c 128,-1,22
 361 25 361 25 393.5 68 c 128,-1,23
 426 111 426 111 426 182 c 2,12,-1
EndSplineSet
EndChar

StartChar: P
Encoding: 80 80 51
Width: 606
GlyphClass: 2
Flags: W
LayerCount: 2
Fore
SplineSet
546 244 m 2,0,1
 546 121 546 121 482.5 55.5 c 128,-1,2
 419 -10 419 -10 333 -10 c 0,3,4
 298 -10 298 -10 268.5 4.5 c 128,-1,5
 239 19 239 19 221 42 c 0,6,7
 188 84 188 84 178 115 c 1,8,-1
 178 -200 l 1,9,-1
 70 -200 l 1,10,-1
 70 690 l 1,11,-1
 178 690 l 1,12,-1
 178 580 l 1,13,14
 192 623 192 623 233.5 661.5 c 128,-1,15
 275 700 275 700 335 700 c 0,16,17
 431 700 431 700 488.5 632.5 c 128,-1,18
 546 565 546 565 546 443 c 2,19,-1
 546 244 l 2,0,1
437 193 m 2,20,-1
 437 493 l 2,21,22
 437 581 437 581 404 623 c 128,-1,23
 371 665 371 665 311.5 665 c 128,-1,24
 252 665 252 665 215.5 604.5 c 128,-1,25
 179 544 179 544 179 463 c 2,26,-1
 179 222 l 2,27,28
 179 148 179 148 218.5 86.5 c 128,-1,29
 258 25 258 25 323 25 c 0,30,31
 353 25 353 25 375.5 38.5 c 128,-1,32
 398 52 398 52 409.5 70.5 c 128,-1,33
 421 89 421 89 428 115 c 0,34,35
 437 153 437 153 437 193 c 2,20,-1
EndSplineSet
EndChar

StartChar: Q
Encoding: 81 81 52
Width: 607
GlyphClass: 2
Flags: W
LayerCount: 2
Fore
SplineSet
537 -200 m 1,0,-1
 427 -200 l 1,1,-1
 427 110 l 1,2,3
 414 67 414 67 373 28.5 c 128,-1,4
 332 -10 332 -10 271 -10 c 0,5,6
 175 -10 175 -10 117.5 57 c 128,-1,7
 60 124 60 124 60 247 c 2,8,-1
 60 446 l 2,9,10
 60 568 60 568 124 634 c 128,-1,11
 188 700 188 700 273 700 c 0,12,13
 309 700 309 700 338.5 685.5 c 128,-1,14
 368 671 368 671 386 648 c 0,15,16
 415 610 415 610 427 575 c 1,17,-1
 427 690 l 1,18,-1
 537 690 l 1,19,-1
 537 -200 l 1,0,-1
427 226 m 2,20,-1
 427 468 l 2,21,22
 427 542 427 542 388 603.5 c 128,-1,23
 349 665 349 665 283 665 c 0,24,25
 246 665 246 665 221 646 c 128,-1,26
 196 627 196 627 186 596 c 0,27,28
 169 545 169 545 169 496 c 2,29,-1
 169 197 l 2,30,31
 169 109 169 109 202.5 67 c 128,-1,32
 236 25 236 25 295.5 25 c 128,-1,33
 355 25 355 25 391 85 c 128,-1,34
 427 145 427 145 427 226 c 2,20,-1
EndSplineSet
EndChar

StartChar: R
Encoding: 82 82 53
Width: 558
GlyphClass: 2
Flags: W
LayerCount: 2
Fore
SplineSet
510 0 m 1,0,-1
 402 0 l 1,1,-1
 402 169 l 2,2,3
 402 325 402 325 259 325 c 0,4,5
 244 325 244 325 233 324 c 1,6,-1
 233 349 l 1,7,8
 289 349 289 349 338 380 c 0,9,10
 364 397 364 397 380 431.5 c 128,-1,11
 396 466 396 466 396 514 c 0,12,13
 396 590 396 590 356.5 623.5 c 128,-1,14
 317 657 317 657 233 657 c 2,15,-1
 178 657 l 1,16,-1
 178 0 l 1,17,-1
 70 0 l 1,18,-1
 70 690 l 1,19,-1
 265 690 l 2,20,21
 499 690 499 690 499 512 c 0,22,23
 499 388 499 388 338 339 c 1,24,25
 510 304 510 304 510 135 c 2,26,-1
 510 0 l 1,0,-1
EndSplineSet
EndChar

StartChar: S
Encoding: 83 83 54
Width: 482
GlyphClass: 2
Flags: W
LayerCount: 2
Fore
SplineSet
397 286 m 2,0,1
 447 243 447 243 447 167 c 128,-1,2
 447 91 447 91 390.5 40.5 c 128,-1,3
 334 -10 334 -10 242.5 -10 c 128,-1,4
 151 -10 151 -10 93 33 c 128,-1,5
 35 76 35 76 35 173 c 2,6,-1
 35 184 l 1,7,-1
 114 184 l 1,8,-1
 114 162 l 2,9,10
 114 93 114 93 142.5 59 c 128,-1,11
 171 25 171 25 230.5 25 c 128,-1,12
 290 25 290 25 322 55 c 128,-1,13
 354 85 354 85 354 131.5 c 128,-1,14
 354 178 354 178 321 207 c 2,15,-1
 116 385 l 2,16,17
 58 435 58 435 58 515 c 128,-1,18
 58 595 58 595 108.5 647.5 c 128,-1,19
 159 700 159 700 242 700 c 128,-1,20
 325 700 325 700 367.5 659 c 128,-1,21
 410 618 410 618 410 569 c 2,22,-1
 410 563 l 1,23,-1
 378 563 l 1,24,25
 378 595 378 595 347 630 c 128,-1,26
 316 665 316 665 262.5 665 c 128,-1,27
 209 665 209 665 178.5 639 c 128,-1,28
 148 613 148 613 148 558.5 c 128,-1,29
 148 504 148 504 186 470 c 2,30,-1
 397 286 l 2,0,1
EndSplineSet
EndChar

StartChar: T
Encoding: 84 84 55
Width: 593
GlyphClass: 2
Flags: W
LayerCount: 2
Fore
SplineSet
573 500 m 1,0,-1
 469 500 l 1,1,-1
 469 533 l 2,2,3
 469 605 469 605 437 630 c 0,4,5
 419 644 419 644 401.5 650.5 c 128,-1,6
 384 657 384 657 351 665 c 1,7,-1
 351 0 l 1,8,-1
 242 0 l 1,9,-1
 242 665 l 1,10,11
 207 657 207 657 190 650.5 c 128,-1,12
 173 644 173 644 155 630 c 0,13,14
 123 605 123 605 123 532 c 2,15,-1
 123 500 l 1,16,-1
 20 500 l 1,17,-1
 20 532 l 2,18,19
 20 631 20 631 103 668 c 0,20,21
 174 700 174 700 296 700 c 0,22,23
 498 700 498 700 552 616 c 0,24,25
 573 582 573 582 573 532 c 2,26,-1
 573 500 l 1,0,-1
EndSplineSet
EndChar

StartChar: U
Encoding: 85 85 56
Width: 606
GlyphClass: 2
Flags: W
LayerCount: 2
Fore
SplineSet
536 0 m 1,0,-1
 427 0 l 1,1,-1
 427 110 l 1,2,3
 414 67 414 67 372.5 28.5 c 128,-1,4
 331 -10 331 -10 271 -10 c 0,5,6
 175 -10 175 -10 117.5 57.5 c 128,-1,7
 60 125 60 125 60 247 c 2,8,-1
 60 690 l 1,9,-1
 168 690 l 1,10,-1
 168 197 l 2,11,12
 168 109 168 109 201 67 c 128,-1,13
 234 25 234 25 294 25 c 128,-1,14
 354 25 354 25 390 85.5 c 128,-1,15
 426 146 426 146 426 227 c 2,16,-1
 426 690 l 1,17,-1
 536 690 l 1,18,-1
 536 0 l 1,0,-1
EndSplineSet
EndChar

StartChar: V
Encoding: 86 86 57
Width: 467
GlyphClass: 2
Flags: W
LayerCount: 2
Fore
SplineSet
462 690 m 1,0,-1
 289 0 l 1,1,-1
 166 0 l 1,2,-1
 5 690 l 1,3,-1
 117 690 l 1,4,-1
 260 77 l 1,5,-1
 412 690 l 1,6,-1
 462 690 l 1,0,-1
EndSplineSet
EndChar

StartChar: W
Encoding: 87 87 58
Width: 775
GlyphClass: 2
Flags: W
LayerCount: 2
Fore
SplineSet
312 690 m 1,0,-1
 362 690 l 1,1,-1
 388 590 l 1,2,-1
 413 690 l 1,3,-1
 463 690 l 1,4,-1
 412 491 l 1,5,-1
 515 77 l 1,6,-1
 658 690 l 1,7,-1
 770 690 l 1,8,-1
 609 0 l 1,9,-1
 486 0 l 1,10,-1
 388 392 l 1,11,-1
 290 0 l 1,12,-1
 167 0 l 1,13,-1
 5 690 l 1,14,-1
 117 690 l 1,15,-1
 261 77 l 1,16,-1
 363 491 l 1,17,-1
 312 690 l 1,0,-1
EndSplineSet
EndChar

StartChar: X
Encoding: 88 88 59
Width: 708
GlyphClass: 2
Flags: W
LayerCount: 2
Fore
SplineSet
668 167 m 2,0,1
 668 94 668 94 615 42 c 128,-1,2
 562 -10 562 -10 483.5 -10 c 128,-1,3
 405 -10 405 -10 355 37 c 1,4,5
 301 -10 301 -10 223.5 -10 c 128,-1,6
 146 -10 146 -10 93 42 c 128,-1,7
 40 94 40 94 40 167 c 2,8,-1
 40 179 l 1,9,-1
 120 179 l 1,10,-1
 120 115 l 2,11,12
 120 78 120 78 146 51.5 c 128,-1,13
 172 25 172 25 210.5 25 c 128,-1,14
 249 25 249 25 274 50 c 128,-1,15
 299 75 299 75 299 119 c 2,16,-1
 299 571 l 2,17,18
 299 615 299 615 274 640 c 128,-1,19
 249 665 249 665 210.5 665 c 128,-1,20
 172 665 172 665 146 638.5 c 128,-1,21
 120 612 120 612 120 575 c 2,22,-1
 120 511 l 1,23,-1
 40 511 l 1,24,-1
 40 523 l 2,25,26
 40 597 40 597 93 648.5 c 128,-1,27
 146 700 146 700 223.5 700 c 128,-1,28
 301 700 301 700 355 653 c 1,29,30
 405 700 405 700 483.5 700 c 128,-1,31
 562 700 562 700 615 648.5 c 128,-1,32
 668 597 668 597 668 523 c 2,33,-1
 668 511 l 1,34,-1
 588 511 l 1,35,-1
 588 575 l 2,36,37
 588 612 588 612 562 638.5 c 128,-1,38
 536 665 536 665 497.5 665 c 128,-1,39
 459 665 459 665 434 640 c 128,-1,40
 409 615 409 615 409 571 c 2,41,-1
 409 119 l 2,42,43
 409 75 409 75 434 50 c 128,-1,44
 459 25 459 25 497.5 25 c 128,-1,45
 536 25 536 25 562 51.5 c 128,-1,46
 588 78 588 78 588 115 c 2,47,-1
 588 179 l 1,48,-1
 668 179 l 1,49,-1
 668 167 l 2,0,1
EndSplineSet
EndChar

StartChar: Y
Encoding: 89 89 60
Width: 565
GlyphClass: 2
Flags: W
LayerCount: 2
Fore
SplineSet
540 621 m 2,0,1
 540 524 540 524 483.5 452.5 c 128,-1,2
 427 381 427 381 337 363 c 1,3,-1
 337 0 l 1,4,-1
 228 0 l 1,5,-1
 228 362 l 1,6,7
 138 381 138 381 81.5 452.5 c 128,-1,8
 25 524 25 524 25 621 c 2,9,-1
 25 690 l 1,10,-1
 134 690 l 1,11,-1
 134 548 l 2,12,13
 134 481 134 481 175.5 436.5 c 128,-1,14
 217 392 217 392 282.5 392 c 128,-1,15
 348 392 348 392 389 436 c 128,-1,16
 430 480 430 480 430 548 c 2,17,-1
 430 690 l 1,18,-1
 540 690 l 1,19,-1
 540 621 l 2,0,1
EndSplineSet
EndChar

StartChar: Z
Encoding: 90 90 61
Width: 525
GlyphClass: 2
Flags: W
LayerCount: 2
Fore
SplineSet
495 0 m 1,0,-1
 30 0 l 1,1,-1
 346 643 l 1,2,-1
 38 643 l 1,3,-1
 38 690 l 1,4,-1
 479 690 l 1,5,-1
 163 47 l 1,6,-1
 495 47 l 1,7,-1
 495 0 l 1,0,-1
EndSplineSet
EndChar

StartChar: bracketleft
Encoding: 91 91 62
Width: 266
GlyphClass: 2
Flags: W
LayerCount: 2
Fore
SplineSet
146 -10 m 1,0,-1
 246 -10 l 1,1,-1
 246 -57 l 1,2,-1
 60 -57 l 1,3,-1
 60 737 l 1,4,-1
 246 737 l 1,5,-1
 246 690 l 1,6,-1
 146 690 l 1,7,-1
 146 -10 l 1,0,-1
EndSplineSet
EndChar

StartChar: backslash
Encoding: 92 92 63
Width: 357
GlyphClass: 2
Flags: W
LayerCount: 2
Fore
SplineSet
50 690 m 1,0,-1
 136 690 l 1,1,-1
 307 0 l 1,2,-1
 221 0 l 1,3,-1
 50 690 l 1,0,-1
EndSplineSet
EndChar

StartChar: bracketright
Encoding: 93 93 64
Width: 266
GlyphClass: 2
Flags: W
LayerCount: 2
Fore
SplineSet
20 -10 m 1,0,-1
 120 -10 l 1,1,-1
 120 690 l 1,2,-1
 20 690 l 1,3,-1
 20 737 l 1,4,-1
 206 737 l 1,5,-1
 206 -57 l 1,6,-1
 20 -57 l 1,7,-1
 20 -10 l 1,0,-1
EndSplineSet
EndChar

StartChar: asciicircum
Encoding: 94 94 65
Width: 566
GlyphClass: 2
Flags: W
LayerCount: 2
Fore
SplineSet
283 690 m 1,0,-1
 466 407 l 1,1,-1
 408 407 l 1,2,-1
 281 597 l 1,3,-1
 158 407 l 1,4,-1
 100 407 l 1,5,-1
 283 690 l 1,0,-1
EndSplineSet
EndChar

StartChar: underscore
Encoding: 95 95 66
Width: 500
GlyphClass: 2
Flags: W
LayerCount: 2
Fore
SplineSet
0 -60 m 1,0,-1
 0 -10 l 1,1,-1
 500 -10 l 1,2,-1
 500 -60 l 1,3,-1
 0 -60 l 1,0,-1
EndSplineSet
EndChar

StartChar: grave
Encoding: 96 96 67
Width: 243
GlyphClass: 2
Flags: W
LayerCount: 2
Fore
SplineSet
61 626 m 1,0,1
 50 637 50 637 50 651 c 128,-1,2
 50 665 50 665 63 677.5 c 128,-1,3
 76 690 76 690 93 690 c 128,-1,4
 110 690 110 690 119 674 c 2,5,-1
 193 539 l 1,6,-1
 176 526 l 1,7,-1
 61 626 l 1,0,1
EndSplineSet
EndChar

StartChar: a
Encoding: 97 97 68
Width: 444
GlyphClass: 2
Flags: W
LayerCount: 2
Fore
SplineSet
388 40 m 128,-1,1
 410 40 410 40 420 72 c 1,2,-1
 439 69 l 1,3,4
 439 61 439 61 433.5 44.5 c 128,-1,5
 428 28 428 28 420.5 17.5 c 128,-1,6
 413 7 413 7 397 -1.5 c 128,-1,7
 381 -10 381 -10 361 -10 c 0,8,9
 291 -10 291 -10 281 64 c 1,10,11
 252 -10 252 -10 181 -10 c 0,12,13
 121 -10 121 -10 85.5 33 c 128,-1,14
 50 76 50 76 50 149 c 2,15,-1
 50 322 l 2,16,17
 50 394 50 394 85.5 437 c 128,-1,18
 121 480 121 480 186 480 c 128,-1,19
 251 480 251 480 279 412 c 1,20,-1
 279 470 l 1,21,-1
 366 470 l 1,22,-1
 366 74 l 2,23,0
 366 40 366 40 388 40 c 128,-1,1
279 137 m 2,24,-1
 279 334 l 2,25,26
 279 380 279 380 257 415 c 128,-1,27
 235 450 235 450 196 450 c 0,28,29
 137 450 137 450 137 356 c 2,30,-1
 137 115 l 2,31,32
 137 22 137 22 195 22 c 0,33,34
 236 22 236 22 257.5 55.5 c 128,-1,35
 279 89 279 89 279 137 c 2,24,-1
EndSplineSet
EndChar

StartChar: b
Encoding: 98 98 69
Width: 426
GlyphClass: 2
Flags: W
LayerCount: 2
Fore
SplineSet
376 149 m 2,0,1
 376 76 376 76 340.5 33 c 128,-1,2
 305 -10 305 -10 240.5 -10 c 128,-1,3
 176 -10 176 -10 146 60 c 1,4,-1
 146 0 l 1,5,-1
 60 0 l 1,6,-1
 60 690 l 1,7,-1
 146 690 l 1,8,-1
 146 412 l 1,9,10
 175 480 175 480 240 480 c 128,-1,11
 305 480 305 480 340.5 437 c 128,-1,12
 376 394 376 394 376 322 c 2,13,-1
 376 149 l 2,0,1
288 115 m 2,14,-1
 288 356 l 2,15,16
 288 450 288 450 229 450 c 0,17,18
 190 450 190 450 168 414.5 c 128,-1,19
 146 379 146 379 146 334 c 2,20,-1
 146 137 l 2,21,22
 146 88 146 88 168 55 c 128,-1,23
 190 22 190 22 231 22 c 0,24,25
 288 22 288 22 288 115 c 2,14,-1
EndSplineSet
EndChar

StartChar: c
Encoding: 99 99 70
Width: 350
GlyphClass: 2
Flags: W
LayerCount: 2
Fore
SplineSet
315 122 m 1,0,1
 315 85 315 85 292 42 c 0,2,3
 280 19 280 19 255.5 4.5 c 128,-1,4
 231 -10 231 -10 197 -10 c 0,5,6
 128 -10 128 -10 89 36 c 128,-1,7
 50 82 50 82 50 157 c 2,8,-1
 50 313 l 2,9,10
 50 389 50 389 89.5 434.5 c 128,-1,11
 129 480 129 480 196 480 c 0,12,13
 233 480 233 480 259 463.5 c 128,-1,14
 285 447 285 447 296 422 c 0,15,16
 315 380 315 380 315 349 c 1,17,-1
 289 349 l 1,18,-1
 289 357 l 2,19,20
 289 396 289 396 258 429 c 0,21,22
 239 450 239 450 209 450 c 128,-1,23
 179 450 179 450 158 425 c 128,-1,24
 137 400 137 400 137 352 c 2,25,-1
 137 118 l 2,26,27
 137 73 137 73 157 46.5 c 128,-1,28
 177 20 177 20 214.5 20 c 128,-1,29
 252 20 252 20 270.5 52.5 c 128,-1,30
 289 85 289 85 289 113 c 2,31,-1
 289 122 l 1,32,-1
 315 122 l 1,0,1
EndSplineSet
EndChar

StartChar: d
Encoding: 100 100 71
Width: 426
GlyphClass: 2
Flags: W
LayerCount: 2
Fore
SplineSet
366 0 m 1,0,-1
 279 0 l 1,1,-1
 279 60 l 1,2,3
 251 -10 251 -10 186 -10 c 128,-1,4
 121 -10 121 -10 85.5 33 c 128,-1,5
 50 76 50 76 50 149 c 2,6,-1
 50 322 l 2,7,8
 50 394 50 394 85.5 437 c 128,-1,9
 121 480 121 480 186 480 c 128,-1,10
 251 480 251 480 279 412 c 1,11,-1
 279 690 l 1,12,-1
 366 690 l 1,13,-1
 366 0 l 1,0,-1
279 137 m 2,14,-1
 279 334 l 2,15,16
 279 380 279 380 257 415 c 128,-1,17
 235 450 235 450 196 450 c 0,18,19
 137 450 137 450 137 356 c 2,20,-1
 137 115 l 2,21,22
 137 22 137 22 195 22 c 0,23,24
 236 22 236 22 257.5 55 c 128,-1,25
 279 88 279 88 279 137 c 2,14,-1
EndSplineSet
EndChar

StartChar: e
Encoding: 101 101 72
Width: 381
GlyphClass: 2
Flags: W
LayerCount: 2
Fore
SplineSet
336 311 m 2,0,-1
 336 232 l 1,1,-1
 136 232 l 1,2,-1
 136 118 l 2,3,4
 136 20 136 20 216 20 c 0,5,6
 259 20 259 20 281.5 55 c 128,-1,7
 304 90 304 90 304 115 c 1,8,-1
 326 115 l 1,9,10
 326 57 326 57 279 16 c 0,11,12
 249 -10 249 -10 203 -10 c 0,13,14
 124 -10 124 -10 87 37 c 128,-1,15
 50 84 50 84 50 157 c 2,16,-1
 50 314 l 2,17,18
 50 387 50 387 90 433.5 c 128,-1,19
 130 480 130 480 203 480 c 128,-1,20
 276 480 276 480 306 432 c 128,-1,21
 336 384 336 384 336 311 c 2,0,-1
279 262 m 1,22,-1
 279 353 l 2,23,24
 279 450 279 450 209 450 c 0,25,26
 136 450 136 450 136 353 c 2,27,-1
 136 262 l 1,28,-1
 279 262 l 1,22,-1
EndSplineSet
EndChar

StartChar: f
Encoding: 102 102 73
Width: 282
GlyphClass: 2
Flags: W
LayerCount: 2
Fore
SplineSet
272 515 m 1,0,-1
 249 515 l 1,1,-1
 249 554 l 2,2,3
 249 606 249 606 234.5 635.5 c 128,-1,4
 220 665 220 665 196 665 c 0,5,6
 158 665 158 665 158 587 c 2,7,-1
 158 300 l 1,8,-1
 243 300 l 1,9,-1
 243 270 l 1,10,-1
 158 270 l 1,11,-1
 158 0 l 1,12,-1
 73 0 l 1,13,-1
 73 270 l 1,14,-1
 40 270 l 1,15,-1
 40 300 l 1,16,-1
 73 300 l 1,17,-1
 73 557 l 2,18,19
 73 624 73 624 99.5 662 c 128,-1,20
 126 700 126 700 169 700 c 0,21,22
 229 700 229 700 249 644 c 1,23,-1
 249 720 l 1,24,-1
 272 720 l 1,25,-1
 272 515 l 1,0,-1
EndSplineSet
EndChar

StartChar: g
Encoding: 103 103 74
Width: 425
GlyphClass: 2
Flags: W
LayerCount: 2
Fore
SplineSet
365 470 m 1,0,-1
 365 71 l 2,1,2
 365 -167 365 -167 188 -167 c 0,3,4
 137 -167 137 -167 106 -142 c 1,5,6
 78 -121 78 -121 64 -97 c 1,7,-1
 81 -83 l 1,8,9
 90 -100 90 -100 118.5 -116.5 c 128,-1,10
 147 -133 147 -133 177.5 -133 c 128,-1,11
 208 -133 208 -133 229 -120.5 c 128,-1,12
 250 -108 250 -108 260 -82 c 0,13,14
 278 -39 278 -39 278 44 c 2,15,-1
 278 60 l 1,16,17
 251 -10 251 -10 186 -10 c 128,-1,18
 121 -10 121 -10 85.5 33 c 128,-1,19
 50 76 50 76 50 149 c 2,20,-1
 50 322 l 2,21,22
 50 395 50 395 85.5 437.5 c 128,-1,23
 121 480 121 480 181 480 c 0,24,25
 252 480 252 480 278 413 c 1,26,-1
 278 470 l 1,27,-1
 365 470 l 1,0,-1
278 137 m 2,28,-1
 278 334 l 2,29,30
 278 380 278 380 256.5 415 c 128,-1,31
 235 450 235 450 196 450 c 0,32,33
 137 450 137 450 137 357 c 2,34,-1
 137 116 l 2,35,36
 137 22 137 22 195 22 c 0,37,38
 236 22 236 22 257 55 c 128,-1,39
 278 88 278 88 278 137 c 2,28,-1
EndSplineSet
EndChar

StartChar: h
Encoding: 104 104 75
Width: 453
GlyphClass: 2
Flags: W
LayerCount: 2
Fore
SplineSet
398 40 m 0,0,1
 417 40 417 40 429 72 c 1,2,-1
 448 69 l 1,3,4
 448 60 448 60 442 44 c 128,-1,5
 436 28 436 28 428 18 c 1,6,7
 409 -10 409 -10 371 -10 c 0,8,9
 288 -10 288 -10 288 89 c 2,10,-1
 288 356 l 2,11,12
 288 450 288 450 229 450 c 0,13,14
 190 450 190 450 168 415 c 128,-1,15
 146 380 146 380 146 334 c 2,16,-1
 146 0 l 1,17,-1
 60 0 l 1,18,-1
 60 690 l 1,19,-1
 146 690 l 1,20,-1
 146 412 l 1,21,22
 175 480 175 480 240 480 c 128,-1,23
 305 480 305 480 340 437.5 c 128,-1,24
 375 395 375 395 375 322 c 2,25,-1
 375 74 l 2,26,27
 375 40 375 40 398 40 c 0,0,1
EndSplineSet
EndChar

StartChar: i
Encoding: 105 105 76
Width: 225
GlyphClass: 2
Flags: W
LayerCount: 2
Fore
SplineSet
147 623 m 128,-1,1
 147 595 147 595 134 574.5 c 128,-1,2
 121 554 121 554 103.5 554 c 128,-1,3
 86 554 86 554 73 574.5 c 128,-1,4
 60 595 60 595 60 623 c 128,-1,5
 60 651 60 651 73 670.5 c 128,-1,6
 86 690 86 690 103.5 690 c 128,-1,7
 121 690 121 690 134 670.5 c 128,-1,0
 147 651 147 651 147 623 c 128,-1,1
169 40 m 0,8,9
 189 40 189 40 201 72 c 1,10,-1
 220 69 l 1,11,12
 220 60 220 60 214 44 c 128,-1,13
 208 28 208 28 200.5 17.5 c 128,-1,14
 193 7 193 7 177.5 -1.5 c 128,-1,15
 162 -10 162 -10 142 -10 c 0,16,17
 60 -10 60 -10 60 89 c 2,18,-1
 60 470 l 1,19,-1
 146 470 l 1,20,-1
 146 74 l 2,21,22
 146 40 146 40 169 40 c 0,8,9
EndSplineSet
EndChar

StartChar: j
Encoding: 106 106 77
Width: 220
GlyphClass: 2
Flags: W
LayerCount: 2
Fore
SplineSet
147 670 m 128,-1,1
 160 650 160 650 160 622.5 c 128,-1,2
 160 595 160 595 147 574.5 c 128,-1,3
 134 554 134 554 116.5 554 c 128,-1,4
 99 554 99 554 86.5 574 c 128,-1,5
 74 594 74 594 74 622 c 128,-1,6
 74 650 74 650 86.5 670 c 128,-1,7
 99 690 99 690 116.5 690 c 128,-1,0
 134 690 134 690 147 670 c 128,-1,1
160 -111 m 2,8,9
 160 -210 160 -210 78 -210 c 0,10,11
 37 -210 37 -210 20 -182 c 1,12,13
 3 -157 3 -157 0 -132 c 1,14,-1
 19 -128 l 1,15,16
 22 -140 22 -140 31.5 -150 c 128,-1,17
 41 -160 41 -160 51.5 -160 c 128,-1,18
 62 -160 62 -160 67.5 -154 c 128,-1,19
 73 -148 73 -148 73.5 -142.5 c 128,-1,20
 74 -137 74 -137 74 -126 c 2,21,-1
 74 470 l 1,22,-1
 160 470 l 1,23,-1
 160 -111 l 2,8,9
EndSplineSet
EndChar

StartChar: k
Encoding: 107 107 78
Width: 371
GlyphClass: 2
Flags: W
LayerCount: 2
Fore
SplineSet
329 0 m 1,0,-1
 252 0 l 1,1,-1
 252 140 l 2,2,3
 252 180 252 180 222.5 206 c 128,-1,4
 193 232 193 232 146 233 c 1,5,-1
 146 0 l 1,6,-1
 60 0 l 1,7,-1
 60 690 l 1,8,-1
 146 690 l 1,9,-1
 146 285 l 1,10,-1
 293 470 l 1,11,-1
 331 470 l 1,12,-1
 163 259 l 1,13,14
 236 254 236 254 282.5 210 c 128,-1,15
 329 166 329 166 329 104 c 2,16,-1
 329 0 l 1,0,-1
EndSplineSet
EndChar

StartChar: l
Encoding: 108 108 79
Width: 225
GlyphClass: 2
Flags: W
LayerCount: 2
Fore
SplineSet
141 -10 m 0,0,1
 60 -10 60 -10 60 89 c 2,2,-1
 60 690 l 1,3,-1
 146 690 l 1,4,-1
 146 74 l 2,5,6
 146 40 146 40 168 40 c 0,7,8
 179 40 179 40 187 48 c 128,-1,9
 195 56 195 56 201 72 c 1,10,-1
 220 69 l 1,11,12
 220 61 220 61 214.5 44.5 c 128,-1,13
 209 28 209 28 201 18 c 0,14,15
 180 -10 180 -10 141 -10 c 0,0,1
EndSplineSet
EndChar

StartChar: m
Encoding: 109 109 80
Width: 682
GlyphClass: 2
Flags: W
LayerCount: 2
Fore
SplineSet
604 74 m 2,0,1
 604 40 604 40 625 40 c 128,-1,2
 646 40 646 40 658 72 c 1,3,-1
 677 69 l 1,4,5
 677 60 677 60 671 44 c 128,-1,6
 665 28 665 28 657.5 17.5 c 128,-1,7
 650 7 650 7 634.5 -1.5 c 128,-1,8
 619 -10 619 -10 599 -10 c 0,9,10
 517 -10 517 -10 517 89 c 2,11,-1
 517 356 l 2,12,13
 517 450 517 450 458 450 c 0,14,15
 419 450 419 450 397.5 415 c 128,-1,16
 376 380 376 380 376 334 c 2,17,-1
 376 0 l 1,18,-1
 288 0 l 1,19,-1
 288 356 l 2,20,21
 288 450 288 450 229 450 c 0,22,23
 190 450 190 450 168 415 c 128,-1,24
 146 380 146 380 146 334 c 2,25,-1
 146 0 l 1,26,-1
 60 0 l 1,27,-1
 60 470 l 1,28,-1
 146 470 l 1,29,-1
 146 412 l 1,30,31
 175 480 175 480 245 480 c 0,32,33
 290 480 290 480 321.5 455 c 128,-1,34
 353 430 353 430 366 385 c 1,35,36
 377 429 377 429 404.5 454.5 c 128,-1,37
 432 480 432 480 474 480 c 0,38,39
 534 480 534 480 569 437.5 c 128,-1,40
 604 395 604 395 604 322 c 2,41,-1
 604 74 l 2,0,1
EndSplineSet
EndChar

StartChar: n
Encoding: 110 110 81
Width: 453
GlyphClass: 2
Flags: W
LayerCount: 2
Fore
SplineSet
398 40 m 0,0,1
 417 40 417 40 429 72 c 1,2,-1
 448 69 l 1,3,4
 448 61 448 61 442.5 44.5 c 128,-1,5
 437 28 437 28 429.5 17.5 c 128,-1,6
 422 7 422 7 406.5 -1.5 c 128,-1,7
 391 -10 391 -10 371 -10 c 0,8,9
 288 -10 288 -10 288 89 c 2,10,-1
 288 356 l 2,11,12
 288 450 288 450 229 450 c 0,13,14
 190 450 190 450 168 415 c 128,-1,15
 146 380 146 380 146 334 c 2,16,-1
 146 0 l 1,17,-1
 60 0 l 1,18,-1
 60 470 l 1,19,-1
 146 470 l 1,20,-1
 146 412 l 1,21,22
 175 480 175 480 240 480 c 128,-1,23
 305 480 305 480 340 437.5 c 128,-1,24
 375 395 375 395 375 322 c 2,25,-1
 375 74 l 2,26,27
 375 40 375 40 398 40 c 0,0,1
EndSplineSet
EndChar

StartChar: o
Encoding: 111 111 82
Width: 416
GlyphClass: 2
Flags: W
LayerCount: 2
Fore
SplineSet
366 157 m 2,0,1
 366 84 366 84 324.5 37 c 128,-1,2
 283 -10 283 -10 208 -10 c 128,-1,3
 133 -10 133 -10 91.5 37 c 128,-1,4
 50 84 50 84 50 157 c 2,5,-1
 50 314 l 2,6,7
 50 387 50 387 91.5 433.5 c 128,-1,8
 133 480 133 480 208 480 c 128,-1,9
 283 480 283 480 324.5 433.5 c 128,-1,10
 366 387 366 387 366 314 c 2,11,-1
 366 157 l 2,0,1
279 118 m 2,12,-1
 279 353 l 2,13,14
 279 450 279 450 207.5 450 c 128,-1,15
 136 450 136 450 136 353 c 2,16,-1
 136 118 l 2,17,18
 136 20 136 20 207.5 20 c 128,-1,19
 279 20 279 20 279 118 c 2,12,-1
EndSplineSet
EndChar

StartChar: p
Encoding: 112 112 83
Width: 426
GlyphClass: 2
Flags: W
LayerCount: 2
Fore
SplineSet
376 149 m 2,0,1
 376 77 376 77 340.5 33.5 c 128,-1,2
 305 -10 305 -10 240.5 -10 c 128,-1,3
 176 -10 176 -10 146 59 c 1,4,-1
 146 -145 l 1,5,-1
 60 -145 l 1,6,-1
 60 470 l 1,7,-1
 146 470 l 1,8,-1
 146 411 l 1,9,10
 176 480 176 480 240.5 480 c 128,-1,11
 305 480 305 480 340.5 437.5 c 128,-1,12
 376 395 376 395 376 322 c 2,13,-1
 376 149 l 2,0,1
288 115 m 2,14,-1
 288 356 l 2,15,16
 288 450 288 450 231 450 c 0,17,18
 190 450 190 450 168 416.5 c 128,-1,19
 146 383 146 383 146 334 c 2,20,-1
 146 137 l 2,21,22
 146 92 146 92 168 57 c 128,-1,23
 190 22 190 22 229 22 c 0,24,25
 288 22 288 22 288 115 c 2,14,-1
EndSplineSet
EndChar

StartChar: q
Encoding: 113 113 84
Width: 426
GlyphClass: 2
Flags: W
LayerCount: 2
Fore
SplineSet
366 470 m 1,0,-1
 366 -145 l 1,1,-1
 279 -145 l 1,2,-1
 279 59 l 1,3,4
 251 -10 251 -10 186 -10 c 128,-1,5
 121 -10 121 -10 85.5 33.5 c 128,-1,6
 50 77 50 77 50 149 c 2,7,-1
 50 322 l 2,8,9
 50 395 50 395 85.5 437.5 c 128,-1,10
 121 480 121 480 186 480 c 128,-1,11
 251 480 251 480 279 411 c 1,12,-1
 279 470 l 1,13,-1
 366 470 l 1,0,-1
279 137 m 2,14,-1
 279 334 l 2,15,16
 279 383 279 383 257.5 416.5 c 128,-1,17
 236 450 236 450 195 450 c 0,18,19
 137 450 137 450 137 356 c 2,20,-1
 137 115 l 2,21,22
 137 22 137 22 196 22 c 0,23,24
 235 22 235 22 257 56.5 c 128,-1,25
 279 91 279 91 279 137 c 2,14,-1
EndSplineSet
EndChar

StartChar: r
Encoding: 114 114 85
Width: 346
GlyphClass: 2
Flags: W
LayerCount: 2
Fore
SplineSet
311 260 m 1,0,-1
 232 260 l 1,1,-1
 232 352 l 2,2,3
 232 444 232 444 146 444 c 1,4,-1
 146 0 l 1,5,-1
 60 0 l 1,6,-1
 60 470 l 1,7,-1
 146 470 l 2,8,9
 247 470 247 470 288 396 c 1,10,-1
 288 460 l 1,11,-1
 311 460 l 1,12,-1
 311 260 l 1,0,-1
EndSplineSet
EndChar

StartChar: s
Encoding: 115 115 86
Width: 356
GlyphClass: 2
Flags: W
LayerCount: 2
Fore
SplineSet
276 207 m 2,0,1
 316 170 316 170 316 116.5 c 128,-1,2
 316 63 316 63 278 26.5 c 128,-1,3
 240 -10 240 -10 169 -10 c 0,4,5
 132 -10 132 -10 104.5 2.5 c 128,-1,6
 77 15 77 15 64 35 c 0,7,8
 40 72 40 72 40 113 c 1,9,-1
 66 113 l 1,10,-1
 66 107 l 2,11,12
 66 68 66 68 92 44 c 128,-1,13
 118 20 118 20 159 20 c 0,14,15
 240 20 240 20 240 90 c 0,16,17
 240 122 240 122 213 147 c 2,18,-1
 86 261 l 2,19,20
 42 301 42 301 42 356 c 128,-1,21
 42 411 42 411 78.5 445.5 c 128,-1,22
 115 480 115 480 174 480 c 128,-1,23
 233 480 233 480 261 446.5 c 128,-1,24
 289 413 289 413 289 365 c 1,25,-1
 263 365 l 1,26,-1
 263 372 l 2,27,28
 263 408 263 408 240.5 429 c 128,-1,29
 218 450 218 450 183 450 c 128,-1,30
 148 450 148 450 129.5 433.5 c 128,-1,31
 111 417 111 417 111 386 c 128,-1,32
 111 355 111 355 141 328 c 2,33,-1
 276 207 l 2,0,1
EndSplineSet
EndChar

StartChar: t
Encoding: 116 116 87
Width: 254
GlyphClass: 2
Flags: W
LayerCount: 2
Fore
SplineSet
179 40 m 0,0,1
 198 40 198 40 210 72 c 1,2,-1
 229 69 l 1,3,4
 229 60 229 60 223 44 c 128,-1,5
 217 28 217 28 209.5 17.5 c 128,-1,6
 202 7 202 7 186.5 -1.5 c 128,-1,7
 171 -10 171 -10 151 -10 c 0,8,9
 69 -10 69 -10 69 89 c 2,10,-1
 69 441 l 1,11,-1
 25 441 l 1,12,-1
 25 470 l 1,13,-1
 69 470 l 1,14,-1
 69 640 l 1,15,-1
 156 640 l 1,16,-1
 156 470 l 1,17,-1
 228 470 l 1,18,-1
 228 441 l 1,19,-1
 156 441 l 1,20,-1
 156 72 l 2,21,22
 156 40 156 40 179 40 c 0,0,1
EndSplineSet
EndChar

StartChar: u
Encoding: 117 117 88
Width: 444
GlyphClass: 2
Flags: W
LayerCount: 2
Fore
SplineSet
366 74 m 2,0,1
 366 40 366 40 387 40 c 128,-1,2
 408 40 408 40 420 72 c 1,3,-1
 439 68 l 1,4,5
 439 60 439 60 433.5 43.5 c 128,-1,6
 428 27 428 27 420.5 17 c 128,-1,7
 413 7 413 7 397 -1.5 c 128,-1,8
 381 -10 381 -10 361 -10 c 0,9,10
 291 -10 291 -10 281 64 c 1,11,12
 252 -10 252 -10 181 -10 c 0,13,14
 121 -10 121 -10 85.5 33 c 128,-1,15
 50 76 50 76 50 149 c 2,16,-1
 50 470 l 1,17,-1
 137 470 l 1,18,-1
 137 115 l 2,19,20
 137 22 137 22 195 22 c 0,21,22
 236 22 236 22 257.5 55 c 128,-1,23
 279 88 279 88 279 137 c 2,24,-1
 279 470 l 1,25,-1
 366 470 l 1,26,-1
 366 74 l 2,0,1
EndSplineSet
EndChar

StartChar: v
Encoding: 118 118 89
Width: 337
GlyphClass: 2
Flags: W
LayerCount: 2
Fore
SplineSet
332 470 m 1,0,-1
 208 0 l 1,1,-1
 121 0 l 1,2,-1
 5 470 l 1,3,-1
 91 470 l 1,4,-1
 192 62 l 1,5,-1
 300 470 l 1,6,-1
 332 470 l 1,0,-1
EndSplineSet
EndChar

StartChar: w
Encoding: 119 119 90
Width: 545
GlyphClass: 2
Flags: W
LayerCount: 2
Fore
SplineSet
540 470 m 1,0,-1
 425 0 l 1,1,-1
 338 0 l 1,2,-1
 272 246 l 1,3,-1
 208 0 l 1,4,-1
 121 0 l 1,5,-1
 5 470 l 1,6,-1
 91 470 l 1,7,-1
 192 62 l 1,8,-1
 257 307 l 1,9,-1
 213 470 l 1,10,-1
 245 470 l 1,11,-1
 272 368 l 1,12,-1
 300 470 l 1,13,-1
 332 470 l 1,14,-1
 289 307 l 1,15,-1
 353 62 l 1,16,-1
 453 470 l 1,17,-1
 540 470 l 1,0,-1
EndSplineSet
EndChar

StartChar: x
Encoding: 120 120 91
Width: 438
GlyphClass: 2
Flags: W
LayerCount: 2
Fore
SplineSet
382.5 24.5 m 128,-1,1
 354 -10 354 -10 304 -10 c 128,-1,2
 254 -10 254 -10 219 25 c 1,3,4
 184 -10 184 -10 133.5 -10 c 128,-1,5
 83 -10 83 -10 54.5 25 c 128,-1,6
 26 60 26 60 20 115 c 1,7,-1
 35 115 l 1,8,9
 39 74 39 74 60 48 c 128,-1,10
 81 22 81 22 117 22 c 0,11,12
 175 22 175 22 175 115 c 2,13,-1
 175 355 l 2,14,15
 175 450 175 450 117 450 c 0,16,17
 81 450 81 450 60 423.5 c 128,-1,18
 39 397 39 397 35 356 c 1,19,-1
 20 356 l 1,20,21
 26 411 26 411 54.5 445.5 c 128,-1,22
 83 480 83 480 134 480 c 128,-1,23
 185 480 185 480 219 446 c 1,24,25
 253 480 253 480 303.5 480 c 128,-1,26
 354 480 354 480 382.5 446 c 128,-1,27
 411 412 411 412 418 356 c 1,28,-1
 403 356 l 1,29,30
 398 397 398 397 377 423.5 c 128,-1,31
 356 450 356 450 320 450 c 0,32,33
 262 450 262 450 262 355 c 2,34,-1
 262 115 l 2,35,36
 262 22 262 22 320 22 c 0,37,38
 356 22 356 22 377 48 c 128,-1,39
 398 74 398 74 403 115 c 1,40,-1
 418 115 l 1,41,0
 411 59 411 59 382.5 24.5 c 128,-1,1
EndSplineSet
EndChar

StartChar: y
Encoding: 121 121 92
Width: 421
GlyphClass: 2
Flags: W
LayerCount: 2
Fore
SplineSet
396 424 m 2,0,1
 396 368 396 368 356.5 326 c 128,-1,2
 317 284 317 284 253 273 c 1,3,-1
 253 0 l 1,4,-1
 167 0 l 1,5,-1
 167 273 l 1,6,7
 104 284 104 284 64.5 326 c 128,-1,8
 25 368 25 368 25 424 c 2,9,-1
 25 470 l 1,10,-1
 104 470 l 1,11,-1
 104 388 l 2,12,13
 104 348 104 348 133.5 321.5 c 128,-1,14
 163 295 163 295 210 295 c 128,-1,15
 257 295 257 295 287 322 c 128,-1,16
 317 349 317 349 317 388 c 2,17,-1
 317 470 l 1,18,-1
 396 470 l 1,19,-1
 396 424 l 2,0,1
EndSplineSet
EndChar

StartChar: z
Encoding: 122 122 93
Width: 355
GlyphClass: 2
Flags: W
LayerCount: 2
Fore
SplineSet
313 30 m 1,0,-1
 313 0 l 1,1,-1
 30 0 l 1,2,-1
 226 440 l 1,3,-1
 41 440 l 1,4,-1
 41 470 l 1,5,-1
 325 470 l 1,6,-1
 129 30 l 1,7,-1
 313 30 l 1,0,-1
EndSplineSet
EndChar

StartChar: braceleft
Encoding: 123 123 94
Width: 376
GlyphClass: 2
Flags: W
LayerCount: 2
Fore
SplineSet
168 154 m 2,0,-1
 168 179 l 2,1,2
 168 255 168 255 144.5 296.5 c 128,-1,3
 121 338 121 338 60 338 c 1,4,-1
 60 368 l 1,5,6
 121 368 121 368 144.5 409.5 c 128,-1,7
 168 451 168 451 168 527 c 2,8,-1
 168 537 l 2,9,10
 168 656 168 656 214 695 c 0,11,12
 238 716 238 716 270.5 723 c 128,-1,13
 303 730 303 730 356 730 c 1,14,-1
 356 700 l 1,15,16
 315 700 315 700 296.5 676 c 128,-1,17
 278 652 278 652 278 595 c 2,18,-1
 278 519 l 2,19,20
 278 387 278 387 182 353 c 1,21,22
 231 336 231 336 254.5 296.5 c 128,-1,23
 278 257 278 257 278 187 c 2,24,-1
 278 95 l 2,25,26
 278 39 278 39 296.5 14.5 c 128,-1,27
 315 -10 315 -10 356 -10 c 1,28,-1
 356 -40 l 1,29,30
 303 -40 303 -40 270.5 -32.5 c 128,-1,31
 238 -25 238 -25 214 -4 c 0,32,33
 168 34 168 34 168 154 c 2,0,-1
EndSplineSet
EndChar

StartChar: bar
Encoding: 124 124 95
Width: 206
GlyphClass: 2
Flags: W
LayerCount: 2
Fore
SplineSet
146 -145 m 1,0,-1
 60 -145 l 1,1,-1
 60 690 l 1,2,-1
 146 690 l 1,3,-1
 146 -145 l 1,0,-1
EndSplineSet
EndChar

StartChar: braceright
Encoding: 125 125 96
Width: 376
GlyphClass: 2
Flags: W
LayerCount: 2
Fore
SplineSet
208 179 m 2,0,-1
 208 154 l 2,1,2
 208 34 208 34 162 -4 c 0,3,4
 138 -25 138 -25 105.5 -32.5 c 128,-1,5
 73 -40 73 -40 20 -40 c 1,6,-1
 20 -10 l 1,7,8
 61 -10 61 -10 79.5 14.5 c 128,-1,9
 98 39 98 39 98 95 c 2,10,-1
 98 187 l 2,11,12
 98 257 98 257 121.5 296.5 c 128,-1,13
 145 336 145 336 194 353 c 1,14,15
 98 387 98 387 98 519 c 2,16,-1
 98 595 l 2,17,18
 98 652 98 652 79.5 676 c 128,-1,19
 61 700 61 700 20 700 c 1,20,-1
 20 730 l 1,21,22
 73 730 73 730 105.5 723 c 128,-1,23
 138 716 138 716 162 695 c 0,24,25
 208 656 208 656 208 537 c 2,26,-1
 208 527 l 2,27,28
 208 451 208 451 231.5 409.5 c 128,-1,29
 255 368 255 368 316 368 c 1,30,-1
 316 338 l 1,31,32
 255 338 255 338 231.5 296.5 c 128,-1,33
 208 255 208 255 208 179 c 2,0,-1
EndSplineSet
EndChar

StartChar: asciitilde
Encoding: 126 126 97
Width: 346
GlyphClass: 2
Flags: W
LayerCount: 2
Fore
SplineSet
212 388 m 0,0,1
 192 388 192 388 161.5 408 c 128,-1,2
 131 428 131 428 117 428 c 0,3,4
 88 428 88 428 63 408 c 1,5,-1
 50 420 l 1,6,7
 96 478 96 478 146 478 c 0,8,9
 161 478 161 478 189.5 461 c 128,-1,10
 218 444 218 444 240 444 c 128,-1,11
 262 444 262 444 282 458 c 1,12,-1
 296 444 l 1,13,14
 256 388 256 388 212 388 c 0,0,1
EndSplineSet
EndChar

StartChar: exclamdown
Encoding: 161 161 98
Width: 219
GlyphClass: 2
Flags: W
LayerCount: 2
Fore
SplineSet
143.5 -130.5 m 128,-1,1
 128 -145 128 -145 109.5 -145 c 128,-1,2
 91 -145 91 -145 75.5 -130.5 c 128,-1,3
 60 -116 60 -116 60 -91 c 1,4,-1
 91 401 l 1,5,-1
 128 401 l 1,6,-1
 159 -91 l 1,7,0
 159 -116 159 -116 143.5 -130.5 c 128,-1,1
154 512 m 128,-1,9
 154 490 154 490 141 474.5 c 128,-1,10
 128 459 128 459 109.5 459 c 128,-1,11
 91 459 91 459 78.5 474.5 c 128,-1,12
 66 490 66 490 66 512 c 128,-1,13
 66 534 66 534 78.5 549.5 c 128,-1,14
 91 565 91 565 109.5 565 c 128,-1,15
 128 565 128 565 141 549.5 c 128,-1,8
 154 534 154 534 154 512 c 128,-1,9
EndSplineSet
EndChar

StartChar: cent
Encoding: 162 162 99
Width: 385
GlyphClass: 2
Flags: W
LayerCount: 2
Fore
SplineSet
207 -60 m 1,0,-1
 207 -10 l 1,1,2
 138 -10 138 -10 99 36 c 128,-1,3
 60 82 60 82 60 157 c 2,4,-1
 60 313 l 2,5,6
 60 389 60 389 99.5 434.5 c 128,-1,7
 139 480 139 480 206 480 c 2,8,-1
 207 480 l 1,9,-1
 207 530 l 1,10,-1
 237 530 l 1,11,-1
 237 476 l 1,12,13
 264 470 264 470 283 452.5 c 128,-1,14
 302 435 302 435 310 413 c 0,15,16
 325 375 325 375 325 349 c 1,17,-1
 299 349 l 1,18,-1
 299 357 l 2,19,20
 299 377 299 377 284 408.5 c 128,-1,21
 269 440 269 440 237 448 c 1,22,-1
 237 21 l 1,23,24
 269 28 269 28 284 58.5 c 128,-1,25
 299 89 299 89 299 113 c 2,26,-1
 299 122 l 1,27,-1
 325 122 l 1,28,29
 325 85 325 85 304 45 c 128,-1,30
 283 5 283 5 237 -6 c 1,31,-1
 237 -60 l 1,32,-1
 207 -60 l 1,0,-1
147 118 m 2,33,34
 147 78 147 78 163 52 c 128,-1,35
 179 26 179 26 207 21 c 1,36,-1
 207 448 l 1,37,38
 181 443 181 443 164 418.5 c 128,-1,39
 147 394 147 394 147 352 c 2,40,-1
 147 118 l 2,33,34
EndSplineSet
EndChar

StartChar: sterling
Encoding: 163 163 100
Width: 624
GlyphClass: 2
Flags: W
LayerCount: 2
Fore
SplineSet
60 347 m 1,0,-1
 112 347 l 1,1,-1
 112 436 l 2,2,3
 112 550 112 550 176.5 625 c 128,-1,4
 241 700 241 700 350 700 c 0,5,6
 435 700 435 700 499.5 647 c 128,-1,7
 564 594 564 594 564 499 c 2,8,-1
 564 486 l 1,9,-1
 478 486 l 1,10,-1
 478 508 l 2,11,12
 478 579 478 579 445.5 622 c 128,-1,13
 413 665 413 665 349.5 665 c 128,-1,14
 286 665 286 665 253.5 622 c 128,-1,15
 221 579 221 579 221 508 c 2,16,-1
 221 347 l 1,17,-1
 431 347 l 1,18,-1
 431 300 l 1,19,-1
 221 300 l 1,20,-1
 221 47 l 1,21,-1
 544 47 l 1,22,-1
 544 0 l 1,23,-1
 60 0 l 1,24,-1
 60 47 l 1,25,-1
 112 47 l 1,26,-1
 112 300 l 1,27,-1
 60 300 l 1,28,-1
 60 347 l 1,0,-1
EndSplineSet
EndChar

StartChar: yen
Encoding: 165 165 101
Width: 635
GlyphClass: 2
Flags: W
LayerCount: 2
Fore
SplineSet
492 180 m 1,0,-1
 372 180 l 1,1,-1
 372 0 l 1,2,-1
 263 0 l 1,3,-1
 263 180 l 1,4,-1
 142 180 l 1,5,-1
 142 245 l 1,6,-1
 263 245 l 1,7,-1
 263 319 l 1,8,-1
 142 319 l 1,9,-1
 142 384 l 1,10,-1
 200 384 l 1,11,12
 136 417 136 417 98 480 c 128,-1,13
 60 543 60 543 60 621 c 2,14,-1
 60 690 l 1,15,-1
 169 690 l 1,16,-1
 169 548 l 2,17,18
 169 481 169 481 210.5 436.5 c 128,-1,19
 252 392 252 392 317.5 392 c 128,-1,20
 383 392 383 392 424 436 c 128,-1,21
 465 480 465 480 465 548 c 2,22,-1
 465 690 l 1,23,-1
 575 690 l 1,24,-1
 575 621 l 2,25,26
 575 543 575 543 537 479.5 c 128,-1,27
 499 416 499 416 434 384 c 1,28,-1
 492 384 l 1,29,-1
 492 319 l 1,30,-1
 372 319 l 1,31,-1
 372 245 l 1,32,-1
 492 245 l 1,33,-1
 492 180 l 1,0,-1
EndSplineSet
EndChar

StartChar: section
Encoding: 167 167 102
Width: 396
GlyphClass: 2
Flags: W
LayerCount: 2
Fore
SplineSet
336 339 m 0,0,1
 336 262 336 262 272 228 c 1,2,-1
 296 207 l 1,3,4
 336 170 336 170 336 116.5 c 128,-1,5
 336 63 336 63 298 26.5 c 128,-1,6
 260 -10 260 -10 189 -10 c 0,7,8
 152 -10 152 -10 124.5 2.5 c 128,-1,9
 97 15 97 15 84 35 c 0,10,11
 60 72 60 72 60 113 c 1,12,-1
 86 113 l 1,13,-1
 86 107 l 2,14,15
 86 68 86 68 112 44 c 128,-1,16
 138 20 138 20 179 20 c 0,17,18
 260 20 260 20 260 90 c 0,19,20
 260 122 260 122 233 147 c 2,21,-1
 106 261 l 2,22,23
 62 301 62 301 62 356 c 0,24,25
 62 430 62 430 125 464 c 1,26,-1
 106 481 l 2,27,28
 62 521 62 521 62 576 c 128,-1,29
 62 631 62 631 98.5 665.5 c 128,-1,30
 135 700 135 700 194 700 c 128,-1,31
 253 700 253 700 281 666.5 c 128,-1,32
 309 633 309 633 309 585 c 1,33,-1
 283 585 l 1,34,-1
 283 592 l 2,35,36
 283 628 283 628 260.5 649 c 128,-1,37
 238 670 238 670 203 670 c 128,-1,38
 168 670 168 670 149.5 653.5 c 128,-1,39
 131 637 131 637 131 606 c 128,-1,40
 131 575 131 575 161 548 c 2,41,-1
 296 427 l 2,42,43
 336 390 336 390 336 339 c 0,0,1
154 437 m 1,44,45
 131 420 131 420 131 387.5 c 128,-1,46
 131 355 131 355 161 328 c 2,47,-1
 239 258 l 1,48,49
 260 276 260 276 260 309 c 128,-1,50
 260 342 260 342 233 367 c 2,51,-1
 154 437 l 1,44,45
EndSplineSet
EndChar

StartChar: dieresis
Encoding: 168 168 103
Width: 340
GlyphClass: 2
Flags: W
LayerCount: 2
Fore
SplineSet
215 660.5 m 128,-1,1
 228 676 228 676 246 676 c 128,-1,2
 264 676 264 676 277 660.5 c 128,-1,3
 290 645 290 645 290 622.5 c 128,-1,4
 290 600 290 600 277 584 c 128,-1,5
 264 568 264 568 246 568 c 128,-1,6
 228 568 228 568 215 584 c 128,-1,7
 202 600 202 600 202 622.5 c 128,-1,0
 202 645 202 645 215 660.5 c 128,-1,1
63 660.5 m 128,-1,9
 76 676 76 676 94 676 c 128,-1,10
 112 676 112 676 125 660.5 c 128,-1,11
 138 645 138 645 138 622.5 c 128,-1,12
 138 600 138 600 125 584 c 128,-1,13
 112 568 112 568 94 568 c 128,-1,14
 76 568 76 568 63 584 c 128,-1,15
 50 600 50 600 50 622.5 c 128,-1,8
 50 645 50 645 63 660.5 c 128,-1,9
EndSplineSet
EndChar

StartChar: copyright
Encoding: 169 169 104
Width: 776
GlyphClass: 2
Flags: W
LayerCount: 2
Fore
SplineSet
716 270 m 2,0,1
 716 146 716 146 655 73 c 128,-1,2
 594 0 594 0 478 0 c 2,3,-1
 298 0 l 2,4,5
 182 0 182 0 121 73 c 128,-1,6
 60 146 60 146 60 270 c 2,7,-1
 60 419 l 2,8,9
 60 544 60 544 121 617 c 128,-1,10
 182 690 182 690 298 690 c 2,11,-1
 478 690 l 2,12,13
 594 690 594 690 655 616.5 c 128,-1,14
 716 543 716 543 716 419 c 2,15,-1
 716 270 l 2,0,1
606 192 m 2,16,-1
 606 498 l 2,17,18
 606 568 606 568 573.5 611.5 c 128,-1,19
 541 655 541 655 478 655 c 2,20,-1
 298 655 l 2,21,22
 234 655 234 655 201.5 611.5 c 128,-1,23
 169 568 169 568 169 498 c 2,24,-1
 169 192 l 2,25,26
 169 121 169 121 201.5 78 c 128,-1,27
 234 35 234 35 298 35 c 2,28,-1
 478 35 l 2,29,30
 541 35 541 35 573.5 78 c 128,-1,31
 606 121 606 121 606 192 c 2,16,-1
524 224 m 2,32,33
 524 162 524 162 482.5 131 c 128,-1,34
 441 100 441 100 394 100 c 0,35,36
 328 100 328 100 289 146 c 128,-1,37
 250 192 250 192 250 261 c 2,38,-1
 250 414 l 2,39,40
 250 483 250 483 289 529 c 128,-1,41
 328 575 328 575 387 575 c 128,-1,42
 446 575 446 575 485 542.5 c 128,-1,43
 524 510 524 510 524 452 c 2,44,-1
 524 444 l 1,45,-1
 472 444 l 1,46,-1
 472 458 l 2,47,48
 472 501 472 501 452.5 527 c 128,-1,49
 433 553 433 553 394 553 c 128,-1,50
 355 553 355 553 335.5 527 c 128,-1,51
 316 501 316 501 316 458 c 2,52,-1
 316 217 l 2,53,54
 316 174 316 174 335.5 148 c 128,-1,55
 355 122 355 122 394 122 c 128,-1,56
 433 122 433 122 452.5 148 c 128,-1,57
 472 174 472 174 472 217 c 2,58,-1
 472 230 l 1,59,-1
 524 230 l 1,60,-1
 524 224 l 2,32,33
EndSplineSet
EndChar

StartChar: ordfeminine
Encoding: 170 170 105
Width: 315
GlyphClass: 2
Flags: W
LayerCount: 2
Fore
SplineSet
218 452 m 2,0,1
 218 435 218 435 228.5 435 c 128,-1,2
 239 435 239 435 245 451 c 1,3,-1
 255 450 l 1,4,5
 255 435 255 435 243.5 422.5 c 128,-1,6
 232 410 232 410 216 410 c 0,7,8
 180 410 180 410 176 447 c 1,9,10
 161 410 161 410 128.5 410 c 128,-1,11
 96 410 96 410 78 431.5 c 128,-1,12
 60 453 60 453 60 490 c 2,13,-1
 60 576 l 2,14,15
 60 612 60 612 78 633.5 c 128,-1,16
 96 655 96 655 128 655 c 128,-1,17
 160 655 160 655 175 621 c 1,18,-1
 175 650 l 1,19,-1
 218 650 l 1,20,-1
 218 452 l 2,0,1
175 484 m 2,21,-1
 175 582 l 2,22,23
 175 605 175 605 164 622.5 c 128,-1,24
 153 640 153 640 133 640 c 0,25,26
 104 640 104 640 104 593 c 2,27,-1
 104 473 l 2,28,29
 104 426 104 426 133 426 c 0,30,31
 153 426 153 426 164 443 c 128,-1,32
 175 460 175 460 175 484 c 2,21,-1
EndSplineSet
EndChar

StartChar: guillemotleft
Encoding: 171 171 106
Width: 435
GlyphClass: 2
Flags: W
LayerCount: 2
Fore
SplineSet
223 180 m 2,0,1
 224 179 224 179 224 175 c 128,-1,2
 224 171 224 171 216.5 163.5 c 128,-1,3
 209 156 209 156 202.5 156 c 128,-1,4
 196 156 196 156 193 159 c 2,5,-1
 53 302 l 2,6,7
 50 305 50 305 50 312.5 c 128,-1,8
 50 320 50 320 53 323 c 2,9,-1
 193 467 l 2,10,11
 196 470 196 470 202 470 c 128,-1,12
 208 470 208 470 216 463.5 c 128,-1,13
 224 457 224 457 224 453 c 128,-1,14
 224 449 224 449 223 447 c 2,15,-1
 133 313 l 1,16,-1
 223 180 l 2,0,1
384 180 m 2,17,18
 385 179 385 179 385 175 c 128,-1,19
 385 171 385 171 377.5 163.5 c 128,-1,20
 370 156 370 156 363.5 156 c 128,-1,21
 357 156 357 156 354 159 c 2,22,-1
 214 302 l 2,23,24
 211 305 211 305 211 312.5 c 128,-1,25
 211 320 211 320 214 323 c 2,26,-1
 354 467 l 2,27,28
 357 470 357 470 363 470 c 128,-1,29
 369 470 369 470 377 463.5 c 128,-1,30
 385 457 385 457 385 453 c 128,-1,31
 385 449 385 449 384 447 c 2,32,-1
 294 313 l 1,33,-1
 384 180 l 2,17,18
EndSplineSet
EndChar

StartChar: registered
Encoding: 174 174 107
Width: 776
GlyphClass: 2
Flags: W
LayerCount: 2
Fore
SplineSet
716 270 m 2,0,1
 716 146 716 146 655 73 c 128,-1,2
 594 0 594 0 478 0 c 2,3,-1
 298 0 l 2,4,5
 182 0 182 0 121 73 c 128,-1,6
 60 146 60 146 60 270 c 2,7,-1
 60 419 l 2,8,9
 60 544 60 544 121 617 c 128,-1,10
 182 690 182 690 298 690 c 2,11,-1
 478 690 l 2,12,13
 594 690 594 690 655 616.5 c 128,-1,14
 716 543 716 543 716 419 c 2,15,-1
 716 270 l 2,0,1
606 192 m 2,16,-1
 606 498 l 2,17,18
 606 568 606 568 573.5 611.5 c 128,-1,19
 541 655 541 655 478 655 c 2,20,-1
 298 655 l 2,21,22
 234 655 234 655 201.5 611.5 c 128,-1,23
 169 568 169 568 169 498 c 2,24,-1
 169 192 l 2,25,26
 169 121 169 121 201.5 78 c 128,-1,27
 234 35 234 35 298 35 c 2,28,-1
 478 35 l 2,29,30
 541 35 541 35 573.5 78 c 128,-1,31
 606 121 606 121 606 192 c 2,16,-1
529 112 m 1,32,-1
 464 112 l 1,33,-1
 464 239 l 2,34,35
 464 288 464 288 441 314 c 128,-1,36
 418 340 418 340 377 340 c 0,37,38
 367 340 367 340 361 339 c 1,39,-1
 361 354 l 1,40,41
 397 354 397 354 428.5 379.5 c 128,-1,42
 460 405 460 405 460 461 c 0,43,44
 460 554 460 554 361 554 c 2,45,-1
 327 554 l 1,46,-1
 327 112 l 1,47,-1
 262 112 l 1,48,-1
 262 574 l 1,49,-1
 380 574 l 2,50,51
 443 574 443 574 483 547.5 c 128,-1,52
 523 521 523 521 523 460 c 0,53,54
 523 420 523 420 496 390.5 c 128,-1,55
 469 361 469 361 425 348 c 1,56,57
 529 328 529 328 529 218 c 2,58,-1
 529 112 l 1,32,-1
EndSplineSet
EndChar

StartChar: macron
Encoding: 175 175 108
Width: 322
GlyphClass: 2
Flags: W
LayerCount: 2
Fore
SplineSet
272 640 m 1,0,-1
 50 640 l 1,1,-1
 50 690 l 1,2,-1
 272 690 l 1,3,-1
 272 640 l 1,0,-1
EndSplineSet
EndChar

StartChar: degree
Encoding: 176 176 109
Width: 375
GlyphClass: 2
Flags: W
LayerCount: 2
Fore
SplineSet
278.5 662 m 128,-1,1
 315 624 315 624 315 565.5 c 128,-1,2
 315 507 315 507 278.5 469.5 c 128,-1,3
 242 432 242 432 187.5 432 c 128,-1,4
 133 432 133 432 96.5 469 c 128,-1,5
 60 506 60 506 60 565 c 128,-1,6
 60 624 60 624 96.5 662 c 128,-1,7
 133 700 133 700 187.5 700 c 128,-1,0
 242 700 242 700 278.5 662 c 128,-1,1
241 506.5 m 128,-1,9
 263 530 263 530 263 564.5 c 128,-1,10
 263 599 263 599 241 624 c 128,-1,11
 219 649 219 649 188 649 c 128,-1,12
 157 649 157 649 134.5 624.5 c 128,-1,13
 112 600 112 600 112 565 c 128,-1,14
 112 530 112 530 134 506.5 c 128,-1,15
 156 483 156 483 187.5 483 c 128,-1,8
 219 483 219 483 241 506.5 c 128,-1,9
EndSplineSet
EndChar

StartChar: acute
Encoding: 180 180 110
Width: 243
GlyphClass: 2
Flags: W
LayerCount: 2
Fore
SplineSet
124 674 m 2,0,1
 133 690 133 690 149.5 690 c 128,-1,2
 166 690 166 690 179.5 677.5 c 128,-1,3
 193 665 193 665 193 650.5 c 128,-1,4
 193 636 193 636 182 627 c 2,5,-1
 67 527 l 1,6,-1
 50 539 l 1,7,-1
 124 674 l 2,0,1
EndSplineSet
EndChar

StartChar: paragraph
Encoding: 182 182 111
Width: 537
GlyphClass: 2
Flags: W
LayerCount: 2
Fore
SplineSet
348 660 m 1,0,-1
 348 230 l 1,1,-1
 400 230 l 1,2,-1
 400 660 l 1,3,-1
 348 660 l 1,0,-1
259 230 m 1,4,-1
 259 661 l 1,5,-1
 208 661 l 2,6,7
 136 661 136 661 136 563 c 2,8,-1
 136 328 l 2,9,10
 136 230 136 230 208 230 c 2,11,-1
 259 230 l 1,4,-1
348 0 m 1,12,-1
 259 0 l 1,13,-1
 259 200 l 1,14,-1
 208 200 l 2,15,16
 133 200 133 200 91.5 247 c 128,-1,17
 50 294 50 294 50 367 c 2,18,-1
 50 524 l 2,19,20
 50 597 50 597 91.5 643.5 c 128,-1,21
 133 690 133 690 208 690 c 2,22,-1
 487 690 l 1,23,-1
 487 0 l 1,24,-1
 400 0 l 1,25,-1
 400 200 l 1,26,-1
 348 200 l 1,27,-1
 348 0 l 1,12,-1
EndSplineSet
EndChar

StartChar: periodcentered
Encoding: 183 183 112
Width: 118
GlyphClass: 2
Flags: W
LayerCount: 2
Fore
SplineSet
15 247 m 128,-1,1
 15 269 15 269 28 284.5 c 128,-1,2
 41 300 41 300 59 300 c 128,-1,3
 77 300 77 300 90 284.5 c 128,-1,4
 103 269 103 269 103 247 c 128,-1,5
 103 225 103 225 90 209.5 c 128,-1,6
 77 194 77 194 59 194 c 128,-1,7
 41 194 41 194 28 209.5 c 128,-1,0
 15 225 15 225 15 247 c 128,-1,1
EndSplineSet
EndChar

StartChar: cedilla
Encoding: 184 184 113
Width: 204
GlyphClass: 2
Flags: W
LayerCount: 2
Fore
SplineSet
154 0 m 1,0,1
 154 -76 154 -76 63 -148 c 1,2,-1
 50 -138 l 1,3,4
 65 -119 65 -119 73.5 -89 c 128,-1,5
 82 -59 82 -59 84 -19 c 1,6,-1
 84 0 l 1,7,-1
 154 0 l 1,0,1
EndSplineSet
EndChar

StartChar: ordmasculine
Encoding: 186 186 114
Width: 278
GlyphClass: 2
Flags: W
LayerCount: 2
Fore
SplineSet
218 494 m 2,0,1
 218 457 218 457 197.5 433.5 c 128,-1,2
 177 410 177 410 139.5 410 c 128,-1,3
 102 410 102 410 81 433.5 c 128,-1,4
 60 457 60 457 60 494 c 2,5,-1
 60 572 l 2,6,7
 60 608 60 608 81 631.5 c 128,-1,8
 102 655 102 655 139.5 655 c 128,-1,9
 177 655 177 655 197.5 632 c 128,-1,10
 218 609 218 609 218 572 c 2,11,-1
 218 494 l 2,0,1
175 474 m 2,12,-1
 175 592 l 2,13,14
 175 640 175 640 139 640 c 128,-1,15
 103 640 103 640 103 592 c 2,16,-1
 103 474 l 2,17,18
 103 425 103 425 139 425 c 128,-1,19
 175 425 175 425 175 474 c 2,12,-1
EndSplineSet
EndChar

StartChar: guillemotright
Encoding: 187 187 115
Width: 435
GlyphClass: 2
Flags: W
LayerCount: 2
Fore
SplineSet
212 447 m 2,0,1
 211 449 211 449 211 453 c 128,-1,2
 211 457 211 457 219 463.5 c 128,-1,3
 227 470 227 470 233 470 c 128,-1,4
 239 470 239 470 242 467 c 2,5,-1
 382 323 l 2,6,7
 385 320 385 320 385 312.5 c 128,-1,8
 385 305 385 305 382 302 c 2,9,-1
 242 159 l 2,10,11
 239 156 239 156 232.5 156 c 128,-1,12
 226 156 226 156 218.5 163.5 c 128,-1,13
 211 171 211 171 211 175 c 128,-1,14
 211 179 211 179 212 180 c 2,15,-1
 302 313 l 1,16,-1
 212 447 l 2,0,1
51 447 m 2,17,18
 50 449 50 449 50 453 c 128,-1,19
 50 457 50 457 58 463.5 c 128,-1,20
 66 470 66 470 72 470 c 128,-1,21
 78 470 78 470 81 467 c 2,22,-1
 221 323 l 2,23,24
 224 320 224 320 224 312.5 c 128,-1,25
 224 305 224 305 221 302 c 2,26,-1
 81 159 l 2,27,28
 78 156 78 156 71.5 156 c 128,-1,29
 65 156 65 156 57.5 163.5 c 128,-1,30
 50 171 50 171 50 175 c 128,-1,31
 50 179 50 179 51 180 c 2,32,-1
 141 313 l 1,33,-1
 51 447 l 2,17,18
EndSplineSet
EndChar

StartChar: questiondown
Encoding: 191 191 116
Width: 447
GlyphClass: 2
Flags: W
LayerCount: 2
Fore
SplineSet
158 39 m 2,0,-1
 158 -16 l 2,1,2
 158 -110 158 -110 237 -110 c 0,3,4
 273 -110 273 -110 295 -84.5 c 128,-1,5
 317 -59 317 -59 317 -21 c 2,6,-1
 317 48 l 1,7,-1
 397 48 l 1,8,-1
 397 32 l 2,9,10
 397 -43 397 -43 348.5 -94 c 128,-1,11
 300 -145 300 -145 219 -145 c 128,-1,12
 138 -145 138 -145 94 -94.5 c 128,-1,13
 50 -44 50 -44 50 31 c 2,14,-1
 50 47 l 2,15,16
 50 122 50 122 112 202 c 2,17,-1
 220 341 l 2,18,19
 238 365 238 365 238 391 c 2,20,-1
 238 413 l 1,21,-1
 283 413 l 1,22,-1
 283 390 l 2,23,24
 283 354 283 354 269 325.5 c 128,-1,25
 255 297 255 297 186 153 c 1,26,27
 158 97 158 97 158 39 c 2,0,-1
305 512 m 128,-1,29
 305 490 305 490 292 474.5 c 128,-1,30
 279 459 279 459 261 459 c 128,-1,31
 243 459 243 459 230 474.5 c 128,-1,32
 217 490 217 490 217 512 c 128,-1,33
 217 534 217 534 230 549.5 c 128,-1,34
 243 565 243 565 261 565 c 128,-1,35
 279 565 279 565 292 549.5 c 128,-1,28
 305 534 305 534 305 512 c 128,-1,29
EndSplineSet
EndChar

StartChar: Agrave
Encoding: 192 192 117
Width: 606
GlyphClass: 2
Flags: W
LayerCount: 2
Fore
SplineSet
536 0 m 1,0,-1
 427 0 l 1,1,-1
 427 110 l 1,2,3
 414 67 414 67 372.5 28.5 c 128,-1,4
 331 -10 331 -10 271 -10 c 0,5,6
 175 -10 175 -10 117.5 57.5 c 128,-1,7
 60 125 60 125 60 247 c 2,8,-1
 60 446 l 2,9,10
 60 569 60 569 123.5 634.5 c 128,-1,11
 187 700 187 700 273 700 c 0,12,13
 309 700 309 700 338.5 685 c 128,-1,14
 368 670 368 670 386 648 c 0,15,16
 415 611 415 611 427 575 c 1,17,-1
 427 690 l 1,18,-1
 536 690 l 1,19,-1
 536 0 l 1,0,-1
426 227 m 2,20,-1
 426 468 l 2,21,22
 426 542 426 542 387 603.5 c 128,-1,23
 348 665 348 665 283 665 c 0,24,25
 246 665 246 665 220.5 646 c 128,-1,26
 195 627 195 627 185 596 c 0,27,28
 168 545 168 545 168 497 c 2,29,-1
 168 197 l 2,30,31
 168 109 168 109 201 67 c 128,-1,32
 234 25 234 25 294 25 c 128,-1,33
 354 25 354 25 390 85.5 c 128,-1,34
 426 146 426 146 426 227 c 2,20,-1
178 858 m 1,35,36
 167 869 167 869 167 883 c 128,-1,37
 167 897 167 897 180 909.5 c 128,-1,38
 193 922 193 922 210 922 c 128,-1,39
 227 922 227 922 236 906 c 2,40,-1
 310 771 l 1,41,-1
 293 758 l 1,42,-1
 178 858 l 1,35,36
EndSplineSet
EndChar

StartChar: Aacute
Encoding: 193 193 118
Width: 606
GlyphClass: 2
Flags: W
LayerCount: 2
Fore
SplineSet
536 0 m 1,0,-1
 427 0 l 1,1,-1
 427 110 l 1,2,3
 414 67 414 67 372.5 28.5 c 128,-1,4
 331 -10 331 -10 271 -10 c 0,5,6
 175 -10 175 -10 117.5 57.5 c 128,-1,7
 60 125 60 125 60 247 c 2,8,-1
 60 446 l 2,9,10
 60 569 60 569 123.5 634.5 c 128,-1,11
 187 700 187 700 273 700 c 0,12,13
 309 700 309 700 338.5 685 c 128,-1,14
 368 670 368 670 386 648 c 0,15,16
 415 611 415 611 427 575 c 1,17,-1
 427 690 l 1,18,-1
 536 690 l 1,19,-1
 536 0 l 1,0,-1
426 227 m 2,20,-1
 426 468 l 2,21,22
 426 542 426 542 387 603.5 c 128,-1,23
 348 665 348 665 283 665 c 0,24,25
 246 665 246 665 220.5 646 c 128,-1,26
 195 627 195 627 185 596 c 0,27,28
 168 545 168 545 168 497 c 2,29,-1
 168 197 l 2,30,31
 168 109 168 109 201 67 c 128,-1,32
 234 25 234 25 294 25 c 128,-1,33
 354 25 354 25 390 85.5 c 128,-1,34
 426 146 426 146 426 227 c 2,20,-1
316 904 m 2,35,36
 325 920 325 920 341.5 920 c 128,-1,37
 358 920 358 920 371.5 907.5 c 128,-1,38
 385 895 385 895 385 880.5 c 128,-1,39
 385 866 385 866 374 857 c 2,40,-1
 259 757 l 1,41,-1
 242 769 l 1,42,-1
 316 904 l 2,35,36
EndSplineSet
EndChar

StartChar: Acircumflex
Encoding: 194 194 119
Width: 606
GlyphClass: 2
Flags: W
LayerCount: 2
Fore
SplineSet
536 0 m 1,0,-1
 427 0 l 1,1,-1
 427 110 l 1,2,3
 414 67 414 67 372.5 28.5 c 128,-1,4
 331 -10 331 -10 271 -10 c 0,5,6
 175 -10 175 -10 117.5 57.5 c 128,-1,7
 60 125 60 125 60 247 c 2,8,-1
 60 446 l 2,9,10
 60 569 60 569 123.5 634.5 c 128,-1,11
 187 700 187 700 273 700 c 0,12,13
 309 700 309 700 338.5 685 c 128,-1,14
 368 670 368 670 386 648 c 0,15,16
 415 611 415 611 427 575 c 1,17,-1
 427 690 l 1,18,-1
 536 690 l 1,19,-1
 536 0 l 1,0,-1
426 227 m 2,20,-1
 426 468 l 2,21,22
 426 542 426 542 387 603.5 c 128,-1,23
 348 665 348 665 283 665 c 0,24,25
 246 665 246 665 220.5 646 c 128,-1,26
 195 627 195 627 185 596 c 0,27,28
 168 545 168 545 168 497 c 2,29,-1
 168 197 l 2,30,31
 168 109 168 109 201 67 c 128,-1,32
 234 25 234 25 294 25 c 128,-1,33
 354 25 354 25 390 85.5 c 128,-1,34
 426 146 426 146 426 227 c 2,20,-1
242 894 m 2,35,36
 251 911 251 911 271 911 c 128,-1,37
 291 911 291 911 300 894 c 2,38,-1
 375 768 l 1,39,-1
 363 758 l 1,40,-1
 272 855 l 1,41,-1
 179 758 l 1,42,-1
 167 768 l 1,43,-1
 242 894 l 2,35,36
EndSplineSet
EndChar

StartChar: Atilde
Encoding: 195 195 120
Width: 606
GlyphClass: 2
Flags: W
LayerCount: 2
Fore
SplineSet
536 0 m 1,0,-1
 427 0 l 1,1,-1
 427 110 l 1,2,3
 414 67 414 67 372.5 28.5 c 128,-1,4
 331 -10 331 -10 271 -10 c 0,5,6
 175 -10 175 -10 117.5 57.5 c 128,-1,7
 60 125 60 125 60 247 c 2,8,-1
 60 446 l 2,9,10
 60 569 60 569 123.5 634.5 c 128,-1,11
 187 700 187 700 273 700 c 0,12,13
 309 700 309 700 338.5 685 c 128,-1,14
 368 670 368 670 386 648 c 0,15,16
 415 611 415 611 427 575 c 1,17,-1
 427 690 l 1,18,-1
 536 690 l 1,19,-1
 536 0 l 1,0,-1
426 227 m 2,20,-1
 426 468 l 2,21,22
 426 542 426 542 387 603.5 c 128,-1,23
 348 665 348 665 283 665 c 0,24,25
 246 665 246 665 220.5 646 c 128,-1,26
 195 627 195 627 185 596 c 0,27,28
 168 545 168 545 168 497 c 2,29,-1
 168 197 l 2,30,31
 168 109 168 109 201 67 c 128,-1,32
 234 25 234 25 294 25 c 128,-1,33
 354 25 354 25 390 85.5 c 128,-1,34
 426 146 426 146 426 227 c 2,20,-1
332 761 m 128,-1,36
 310 761 310 761 273 779.5 c 128,-1,37
 236 798 236 798 220 798 c 0,38,39
 189 798 189 798 160 769 c 1,40,-1
 147 780 l 1,41,42
 202 844 202 844 256 844 c 0,43,44
 273 844 273 844 304.5 827.5 c 128,-1,45
 336 811 336 811 360 811 c 128,-1,46
 384 811 384 811 406 825 c 1,47,-1
 407 826 l 1,48,-1
 419 816 l 1,49,50
 401 791 401 791 377.5 776 c 128,-1,35
 354 761 354 761 332 761 c 128,-1,36
EndSplineSet
EndChar

StartChar: Adieresis
Encoding: 196 196 121
Width: 606
GlyphClass: 2
Flags: W
LayerCount: 2
Fore
SplineSet
536 0 m 1,0,-1
 427 0 l 1,1,-1
 427 110 l 1,2,3
 414 67 414 67 372.5 28.5 c 128,-1,4
 331 -10 331 -10 271 -10 c 0,5,6
 175 -10 175 -10 117.5 57.5 c 128,-1,7
 60 125 60 125 60 247 c 2,8,-1
 60 446 l 2,9,10
 60 569 60 569 123.5 634.5 c 128,-1,11
 187 700 187 700 273 700 c 0,12,13
 309 700 309 700 338.5 685 c 128,-1,14
 368 670 368 670 386 648 c 0,15,16
 415 611 415 611 427 575 c 1,17,-1
 427 690 l 1,18,-1
 536 690 l 1,19,-1
 536 0 l 1,0,-1
426 227 m 2,20,-1
 426 468 l 2,21,22
 426 542 426 542 387 603.5 c 128,-1,23
 348 665 348 665 283 665 c 0,24,25
 246 665 246 665 220.5 646 c 128,-1,26
 195 627 195 627 185 596 c 0,27,28
 168 545 168 545 168 497 c 2,29,-1
 168 197 l 2,30,31
 168 109 168 109 201 67 c 128,-1,32
 234 25 234 25 294 25 c 128,-1,33
 354 25 354 25 390 85.5 c 128,-1,34
 426 146 426 146 426 227 c 2,20,-1
329 852.5 m 128,-1,36
 342 868 342 868 360 868 c 128,-1,37
 378 868 378 868 391 852.5 c 128,-1,38
 404 837 404 837 404 814.5 c 128,-1,39
 404 792 404 792 391 776 c 128,-1,40
 378 760 378 760 360 760 c 128,-1,41
 342 760 342 760 329 776 c 128,-1,42
 316 792 316 792 316 814.5 c 128,-1,35
 316 837 316 837 329 852.5 c 128,-1,36
177 852.5 m 128,-1,44
 190 868 190 868 208 868 c 128,-1,45
 226 868 226 868 239 852.5 c 128,-1,46
 252 837 252 837 252 814.5 c 128,-1,47
 252 792 252 792 239 776 c 128,-1,48
 226 760 226 760 208 760 c 128,-1,49
 190 760 190 760 177 776 c 128,-1,50
 164 792 164 792 164 814.5 c 128,-1,43
 164 837 164 837 177 852.5 c 128,-1,44
EndSplineSet
EndChar

StartChar: Aring
Encoding: 197 197 122
Width: 606
GlyphClass: 2
Flags: W
LayerCount: 2
Fore
SplineSet
536 0 m 1,0,-1
 427 0 l 1,1,-1
 427 110 l 1,2,3
 414 67 414 67 372.5 28.5 c 128,-1,4
 331 -10 331 -10 271 -10 c 0,5,6
 175 -10 175 -10 117.5 57.5 c 128,-1,7
 60 125 60 125 60 247 c 2,8,-1
 60 446 l 2,9,10
 60 569 60 569 123.5 634.5 c 128,-1,11
 187 700 187 700 273 700 c 0,12,13
 309 700 309 700 338.5 685 c 128,-1,14
 368 670 368 670 386 648 c 0,15,16
 415 611 415 611 427 575 c 1,17,-1
 427 690 l 1,18,-1
 536 690 l 1,19,-1
 536 0 l 1,0,-1
426 227 m 2,20,-1
 426 468 l 2,21,22
 426 542 426 542 387 603.5 c 128,-1,23
 348 665 348 665 283 665 c 0,24,25
 246 665 246 665 220.5 646 c 128,-1,26
 195 627 195 627 185 596 c 0,27,28
 168 545 168 545 168 497 c 2,29,-1
 168 197 l 2,30,31
 168 109 168 109 201 67 c 128,-1,32
 234 25 234 25 294 25 c 128,-1,33
 354 25 354 25 390 85.5 c 128,-1,34
 426 146 426 146 426 227 c 2,20,-1
333 875 m 128,-1,36
 350 856 350 856 350 826.5 c 128,-1,37
 350 797 350 797 333 778.5 c 128,-1,38
 316 760 316 760 291 760 c 128,-1,39
 266 760 266 760 249 778.5 c 128,-1,40
 232 797 232 797 232 826.5 c 128,-1,41
 232 856 232 856 249 875 c 128,-1,42
 266 894 266 894 291 894 c 128,-1,35
 316 894 316 894 333 875 c 128,-1,36
315.5 796.5 m 128,-1,44
 326 809 326 809 326 826.5 c 128,-1,45
 326 844 326 844 315.5 856.5 c 128,-1,46
 305 869 305 869 291 869 c 128,-1,47
 277 869 277 869 266.5 856.5 c 128,-1,48
 256 844 256 844 256 826.5 c 128,-1,49
 256 809 256 809 266.5 796.5 c 128,-1,50
 277 784 277 784 291 784 c 128,-1,43
 305 784 305 784 315.5 796.5 c 128,-1,44
EndSplineSet
EndChar

StartChar: Ccedilla
Encoding: 199 199 123
Width: 562
GlyphClass: 2
Flags: W
LayerCount: 2
Fore
SplineSet
512 486 m 1,0,-1
 426 486 l 1,1,-1
 426 509 l 2,2,3
 426 579 426 579 393.5 622 c 128,-1,4
 361 665 361 665 297.5 665 c 128,-1,5
 234 665 234 665 201.5 622 c 128,-1,6
 169 579 169 579 169 509 c 2,7,-1
 169 182 l 2,8,9
 169 111 169 111 201.5 68 c 128,-1,10
 234 25 234 25 297.5 25 c 128,-1,11
 361 25 361 25 393.5 68 c 128,-1,12
 426 111 426 111 426 182 c 2,13,-1
 426 204 l 1,14,-1
 512 204 l 1,15,-1
 512 194 l 2,16,17
 512 104 512 104 459 54.5 c 128,-1,18
 406 5 406 5 335 -7 c 1,19,20
 334 -71 334 -71 314.5 -109.5 c 128,-1,21
 295 -148 295 -148 243 -188 c 1,22,-1
 231 -178 l 1,23,24
 246 -159 246 -159 254 -124 c 128,-1,25
 262 -89 262 -89 264 -39 c 1,26,-1
 264 -8 l 1,27,28
 169 4 169 4 114.5 76.5 c 128,-1,29
 60 149 60 149 60 254 c 2,30,-1
 60 436 l 2,31,32
 60 550 60 550 124.5 625 c 128,-1,33
 189 700 189 700 298 700 c 0,34,35
 383 700 383 700 447.5 647 c 128,-1,36
 512 594 512 594 512 499 c 2,37,-1
 512 486 l 1,0,-1
EndSplineSet
EndChar

StartChar: Egrave
Encoding: 200 200 124
Width: 567
GlyphClass: 2
Flags: W
LayerCount: 2
Fore
SplineSet
512 486 m 1,0,-1
 426 486 l 1,1,-1
 426 508 l 2,2,3
 426 579 426 579 393.5 622 c 128,-1,4
 361 665 361 665 297.5 665 c 128,-1,5
 234 665 234 665 201.5 622 c 128,-1,6
 169 579 169 579 169 508 c 2,7,-1
 169 388 l 1,8,-1
 433 388 l 1,9,-1
 433 341 l 1,10,-1
 169 341 l 1,11,-1
 169 182 l 2,12,13
 169 111 169 111 201.5 68 c 128,-1,14
 234 25 234 25 297.5 25 c 128,-1,15
 361 25 361 25 393.5 68 c 128,-1,16
 426 111 426 111 426 182 c 2,17,-1
 426 204 l 1,18,-1
 512 204 l 1,19,-1
 512 194 l 2,20,21
 512 140 512 140 491 98.5 c 128,-1,22
 470 57 470 57 436 34 c 0,23,24
 370 -10 370 -10 298 -10 c 0,25,26
 189 -10 189 -10 124.5 65 c 128,-1,27
 60 140 60 140 60 254 c 2,28,-1
 60 436 l 2,29,30
 60 550 60 550 124.5 625 c 128,-1,31
 189 700 189 700 298 700 c 0,32,33
 383 700 383 700 447.5 647 c 128,-1,34
 512 594 512 594 512 499 c 2,35,-1
 512 486 l 1,0,-1
218 858 m 1,36,37
 207 869 207 869 207 883 c 128,-1,38
 207 897 207 897 220 909.5 c 128,-1,39
 233 922 233 922 250 922 c 128,-1,40
 267 922 267 922 276 906 c 2,41,-1
 350 771 l 1,42,-1
 333 758 l 1,43,-1
 218 858 l 1,36,37
EndSplineSet
EndChar

StartChar: Eacute
Encoding: 201 201 125
Width: 567
GlyphClass: 2
Flags: W
LayerCount: 2
Fore
SplineSet
512 486 m 1,0,-1
 426 486 l 1,1,-1
 426 508 l 2,2,3
 426 579 426 579 393.5 622 c 128,-1,4
 361 665 361 665 297.5 665 c 128,-1,5
 234 665 234 665 201.5 622 c 128,-1,6
 169 579 169 579 169 508 c 2,7,-1
 169 388 l 1,8,-1
 433 388 l 1,9,-1
 433 341 l 1,10,-1
 169 341 l 1,11,-1
 169 182 l 2,12,13
 169 111 169 111 201.5 68 c 128,-1,14
 234 25 234 25 297.5 25 c 128,-1,15
 361 25 361 25 393.5 68 c 128,-1,16
 426 111 426 111 426 182 c 2,17,-1
 426 204 l 1,18,-1
 512 204 l 1,19,-1
 512 194 l 2,20,21
 512 140 512 140 491 98.5 c 128,-1,22
 470 57 470 57 436 34 c 0,23,24
 370 -10 370 -10 298 -10 c 0,25,26
 189 -10 189 -10 124.5 65 c 128,-1,27
 60 140 60 140 60 254 c 2,28,-1
 60 436 l 2,29,30
 60 550 60 550 124.5 625 c 128,-1,31
 189 700 189 700 298 700 c 0,32,33
 383 700 383 700 447.5 647 c 128,-1,34
 512 594 512 594 512 499 c 2,35,-1
 512 486 l 1,0,-1
333 906 m 2,36,37
 342 922 342 922 358.5 922 c 128,-1,38
 375 922 375 922 388.5 909.5 c 128,-1,39
 402 897 402 897 402 882.5 c 128,-1,40
 402 868 402 868 391 859 c 2,41,-1
 276 759 l 1,42,-1
 259 771 l 1,43,-1
 333 906 l 2,36,37
EndSplineSet
EndChar

StartChar: Ecircumflex
Encoding: 202 202 126
Width: 567
GlyphClass: 2
Flags: W
LayerCount: 2
Fore
SplineSet
512 486 m 1,0,-1
 426 486 l 1,1,-1
 426 508 l 2,2,3
 426 579 426 579 393.5 622 c 128,-1,4
 361 665 361 665 297.5 665 c 128,-1,5
 234 665 234 665 201.5 622 c 128,-1,6
 169 579 169 579 169 508 c 2,7,-1
 169 388 l 1,8,-1
 433 388 l 1,9,-1
 433 341 l 1,10,-1
 169 341 l 1,11,-1
 169 182 l 2,12,13
 169 111 169 111 201.5 68 c 128,-1,14
 234 25 234 25 297.5 25 c 128,-1,15
 361 25 361 25 393.5 68 c 128,-1,16
 426 111 426 111 426 182 c 2,17,-1
 426 204 l 1,18,-1
 512 204 l 1,19,-1
 512 194 l 2,20,21
 512 140 512 140 491 98.5 c 128,-1,22
 470 57 470 57 436 34 c 0,23,24
 370 -10 370 -10 298 -10 c 0,25,26
 189 -10 189 -10 124.5 65 c 128,-1,27
 60 140 60 140 60 254 c 2,28,-1
 60 436 l 2,29,30
 60 550 60 550 124.5 625 c 128,-1,31
 189 700 189 700 298 700 c 0,32,33
 383 700 383 700 447.5 647 c 128,-1,34
 512 594 512 594 512 499 c 2,35,-1
 512 486 l 1,0,-1
267 898 m 2,36,37
 276 915 276 915 296 915 c 128,-1,38
 316 915 316 915 325 898 c 2,39,-1
 400 772 l 1,40,-1
 388 762 l 1,41,-1
 297 859 l 1,42,-1
 204 762 l 1,43,-1
 192 772 l 1,44,-1
 267 898 l 2,36,37
EndSplineSet
EndChar

StartChar: Edieresis
Encoding: 203 203 127
Width: 567
GlyphClass: 2
Flags: W
LayerCount: 2
Fore
SplineSet
512 486 m 1,0,-1
 426 486 l 1,1,-1
 426 508 l 2,2,3
 426 579 426 579 393.5 622 c 128,-1,4
 361 665 361 665 297.5 665 c 128,-1,5
 234 665 234 665 201.5 622 c 128,-1,6
 169 579 169 579 169 508 c 2,7,-1
 169 388 l 1,8,-1
 433 388 l 1,9,-1
 433 341 l 1,10,-1
 169 341 l 1,11,-1
 169 182 l 2,12,13
 169 111 169 111 201.5 68 c 128,-1,14
 234 25 234 25 297.5 25 c 128,-1,15
 361 25 361 25 393.5 68 c 128,-1,16
 426 111 426 111 426 182 c 2,17,-1
 426 204 l 1,18,-1
 512 204 l 1,19,-1
 512 194 l 2,20,21
 512 140 512 140 491 98.5 c 128,-1,22
 470 57 470 57 436 34 c 0,23,24
 370 -10 370 -10 298 -10 c 0,25,26
 189 -10 189 -10 124.5 65 c 128,-1,27
 60 140 60 140 60 254 c 2,28,-1
 60 436 l 2,29,30
 60 550 60 550 124.5 625 c 128,-1,31
 189 700 189 700 298 700 c 0,32,33
 383 700 383 700 447.5 647 c 128,-1,34
 512 594 512 594 512 499 c 2,35,-1
 512 486 l 1,0,-1
339 852.5 m 128,-1,37
 352 868 352 868 370 868 c 128,-1,38
 388 868 388 868 401 852.5 c 128,-1,39
 414 837 414 837 414 814.5 c 128,-1,40
 414 792 414 792 401 776 c 128,-1,41
 388 760 388 760 370 760 c 128,-1,42
 352 760 352 760 339 776 c 128,-1,43
 326 792 326 792 326 814.5 c 128,-1,36
 326 837 326 837 339 852.5 c 128,-1,37
187 852.5 m 128,-1,45
 200 868 200 868 218 868 c 128,-1,46
 236 868 236 868 249 852.5 c 128,-1,47
 262 837 262 837 262 814.5 c 128,-1,48
 262 792 262 792 249 776 c 128,-1,49
 236 760 236 760 218 760 c 128,-1,50
 200 760 200 760 187 776 c 128,-1,51
 174 792 174 792 174 814.5 c 128,-1,44
 174 837 174 837 187 852.5 c 128,-1,45
EndSplineSet
EndChar

StartChar: Igrave
Encoding: 204 204 128
Width: 249
GlyphClass: 2
Flags: W
LayerCount: 2
Fore
SplineSet
179 0 m 1,0,-1
 70 0 l 1,1,-1
 70 690 l 1,2,-1
 179 690 l 1,3,-1
 179 0 l 1,0,-1
46 855 m 1,4,5
 35 866 35 866 35 880 c 128,-1,6
 35 894 35 894 48 906.5 c 128,-1,7
 61 919 61 919 78 919 c 128,-1,8
 95 919 95 919 104 903 c 2,9,-1
 178 768 l 1,10,-1
 161 755 l 1,11,-1
 46 855 l 1,4,5
EndSplineSet
EndChar

StartChar: Iacute
Encoding: 205 205 129
Width: 249
GlyphClass: 2
Flags: W
LayerCount: 2
Fore
SplineSet
179 0 m 1,0,-1
 70 0 l 1,1,-1
 70 690 l 1,2,-1
 179 690 l 1,3,-1
 179 0 l 1,0,-1
144 903 m 2,4,5
 153 919 153 919 169.5 919 c 128,-1,6
 186 919 186 919 199.5 906.5 c 128,-1,7
 213 894 213 894 213 879.5 c 128,-1,8
 213 865 213 865 202 856 c 2,9,-1
 87 756 l 1,10,-1
 70 768 l 1,11,-1
 144 903 l 2,4,5
EndSplineSet
EndChar

StartChar: Icircumflex
Encoding: 206 206 130
Width: 249
GlyphClass: 2
Flags: W
LayerCount: 2
Fore
SplineSet
179 0 m 1,0,-1
 70 0 l 1,1,-1
 70 690 l 1,2,-1
 179 690 l 1,3,-1
 179 0 l 1,0,-1
97 896 m 2,4,5
 106 913 106 913 126 913 c 128,-1,6
 146 913 146 913 155 896 c 2,7,-1
 230 770 l 1,8,-1
 218 760 l 1,9,-1
 127 857 l 1,10,-1
 34 760 l 1,11,-1
 22 770 l 1,12,-1
 97 896 l 2,4,5
EndSplineSet
EndChar

StartChar: Idieresis
Encoding: 207 207 131
Width: 249
GlyphClass: 2
Flags: W
LayerCount: 2
Fore
SplineSet
179 0 m 1,0,-1
 70 0 l 1,1,-1
 70 690 l 1,2,-1
 179 690 l 1,3,-1
 179 0 l 1,0,-1
173 851.5 m 128,-1,5
 186 867 186 867 204 867 c 128,-1,6
 222 867 222 867 235 851.5 c 128,-1,7
 248 836 248 836 248 813.5 c 128,-1,8
 248 791 248 791 235 775 c 128,-1,9
 222 759 222 759 204 759 c 128,-1,10
 186 759 186 759 173 775 c 128,-1,11
 160 791 160 791 160 813.5 c 128,-1,4
 160 836 160 836 173 851.5 c 128,-1,5
21 851.5 m 128,-1,13
 34 867 34 867 52 867 c 128,-1,14
 70 867 70 867 83 851.5 c 128,-1,15
 96 836 96 836 96 813.5 c 128,-1,16
 96 791 96 791 83 775 c 128,-1,17
 70 759 70 759 52 759 c 128,-1,18
 34 759 34 759 21 775 c 128,-1,19
 8 791 8 791 8 813.5 c 128,-1,12
 8 836 8 836 21 851.5 c 128,-1,13
EndSplineSet
EndChar

StartChar: Eth
Encoding: 208 208 132
Width: 577
GlyphClass: 2
Flags: W
LayerCount: 2
Fore
SplineSet
517 269 m 2,0,1
 517 153 517 153 445.5 76.5 c 128,-1,2
 374 0 374 0 262 0 c 2,3,-1
 71 0 l 1,4,-1
 71 365 l 1,5,-1
 0 365 l 1,6,-1
 0 430 l 1,7,-1
 71 430 l 1,8,-1
 71 690 l 1,9,-1
 262 690 l 2,10,11
 374 690 374 690 445.5 613.5 c 128,-1,12
 517 537 517 537 517 421 c 2,13,-1
 517 269 l 2,0,1
303 365 m 1,14,-1
 179 365 l 1,15,-1
 179 34 l 1,16,-1
 225 34 l 2,17,18
 311 34 311 34 360 82.5 c 128,-1,19
 409 131 409 131 409 222 c 2,20,-1
 409 468 l 2,21,22
 409 559 409 559 360 607.5 c 128,-1,23
 311 656 311 656 225 656 c 2,24,-1
 179 656 l 1,25,-1
 179 430 l 1,26,-1
 303 430 l 1,27,-1
 303 365 l 1,14,-1
EndSplineSet
EndChar

StartChar: Ntilde
Encoding: 209 209 133
Width: 606
GlyphClass: 2
Flags: W
LayerCount: 2
Fore
SplineSet
546 447 m 2,0,-1
 546 0 l 1,1,-1
 436 0 l 1,2,-1
 436 498 l 2,3,4
 436 615 436 615 376 652 c 1,5,6
 353 665 353 665 323 665 c 0,7,8
 259 665 259 665 218.5 604.5 c 128,-1,9
 178 544 178 544 178 464 c 2,10,-1
 178 0 l 1,11,-1
 70 0 l 1,12,-1
 70 690 l 1,13,-1
 178 690 l 1,14,-1
 178 575 l 1,15,16
 199 634 199 634 240 667 c 128,-1,17
 281 700 281 700 333 700 c 0,18,19
 422 700 422 700 484 632.5 c 128,-1,20
 546 565 546 565 546 447 c 2,0,-1
377 761 m 128,-1,22
 355 761 355 761 318 779.5 c 128,-1,23
 281 798 281 798 265 798 c 0,24,25
 234 798 234 798 205 769 c 1,26,-1
 192 780 l 1,27,28
 247 844 247 844 301 844 c 0,29,30
 318 844 318 844 349.5 827.5 c 128,-1,31
 381 811 381 811 405 811 c 128,-1,32
 429 811 429 811 451 825 c 1,33,-1
 452 826 l 1,34,-1
 464 816 l 1,35,36
 446 791 446 791 422.5 776 c 128,-1,21
 399 761 399 761 377 761 c 128,-1,22
EndSplineSet
EndChar

StartChar: Ograve
Encoding: 210 210 134
Width: 596
GlyphClass: 2
Flags: W
LayerCount: 2
Fore
SplineSet
536 260 m 2,0,1
 536 136 536 136 475 63 c 128,-1,2
 414 -10 414 -10 298 -10 c 128,-1,3
 182 -10 182 -10 121 63 c 128,-1,4
 60 136 60 136 60 260 c 2,5,-1
 60 429 l 2,6,7
 60 554 60 554 121 627 c 128,-1,8
 182 700 182 700 298 700 c 128,-1,9
 414 700 414 700 475 626.5 c 128,-1,10
 536 553 536 553 536 429 c 2,11,-1
 536 260 l 2,0,1
426 182 m 2,12,-1
 426 508 l 2,13,14
 426 578 426 578 393.5 621.5 c 128,-1,15
 361 665 361 665 297.5 665 c 128,-1,16
 234 665 234 665 201.5 621.5 c 128,-1,17
 169 578 169 578 169 508 c 2,18,-1
 169 182 l 2,19,20
 169 111 169 111 201.5 68 c 128,-1,21
 234 25 234 25 297.5 25 c 128,-1,22
 361 25 361 25 393.5 68 c 128,-1,23
 426 111 426 111 426 182 c 2,12,-1
208 858 m 1,24,25
 197 869 197 869 197 883 c 128,-1,26
 197 897 197 897 210 909.5 c 128,-1,27
 223 922 223 922 240 922 c 128,-1,28
 257 922 257 922 266 906 c 2,29,-1
 340 771 l 1,30,-1
 323 758 l 1,31,-1
 208 858 l 1,24,25
EndSplineSet
EndChar

StartChar: Oacute
Encoding: 211 211 135
Width: 596
GlyphClass: 2
Flags: W
LayerCount: 2
Fore
SplineSet
536 260 m 2,0,1
 536 136 536 136 475 63 c 128,-1,2
 414 -10 414 -10 298 -10 c 128,-1,3
 182 -10 182 -10 121 63 c 128,-1,4
 60 136 60 136 60 260 c 2,5,-1
 60 429 l 2,6,7
 60 554 60 554 121 627 c 128,-1,8
 182 700 182 700 298 700 c 128,-1,9
 414 700 414 700 475 626.5 c 128,-1,10
 536 553 536 553 536 429 c 2,11,-1
 536 260 l 2,0,1
426 182 m 2,12,-1
 426 508 l 2,13,14
 426 578 426 578 393.5 621.5 c 128,-1,15
 361 665 361 665 297.5 665 c 128,-1,16
 234 665 234 665 201.5 621.5 c 128,-1,17
 169 578 169 578 169 508 c 2,18,-1
 169 182 l 2,19,20
 169 111 169 111 201.5 68 c 128,-1,21
 234 25 234 25 297.5 25 c 128,-1,22
 361 25 361 25 393.5 68 c 128,-1,23
 426 111 426 111 426 182 c 2,12,-1
336 906 m 2,24,25
 345 922 345 922 361.5 922 c 128,-1,26
 378 922 378 922 391.5 909.5 c 128,-1,27
 405 897 405 897 405 882.5 c 128,-1,28
 405 868 405 868 394 859 c 2,29,-1
 279 759 l 1,30,-1
 262 771 l 1,31,-1
 336 906 l 2,24,25
EndSplineSet
EndChar

StartChar: Ocircumflex
Encoding: 212 212 136
Width: 596
GlyphClass: 2
Flags: W
LayerCount: 2
Fore
SplineSet
536 260 m 2,0,1
 536 136 536 136 475 63 c 128,-1,2
 414 -10 414 -10 298 -10 c 128,-1,3
 182 -10 182 -10 121 63 c 128,-1,4
 60 136 60 136 60 260 c 2,5,-1
 60 429 l 2,6,7
 60 554 60 554 121 627 c 128,-1,8
 182 700 182 700 298 700 c 128,-1,9
 414 700 414 700 475 626.5 c 128,-1,10
 536 553 536 553 536 429 c 2,11,-1
 536 260 l 2,0,1
426 182 m 2,12,-1
 426 508 l 2,13,14
 426 578 426 578 393.5 621.5 c 128,-1,15
 361 665 361 665 297.5 665 c 128,-1,16
 234 665 234 665 201.5 621.5 c 128,-1,17
 169 578 169 578 169 508 c 2,18,-1
 169 182 l 2,19,20
 169 111 169 111 201.5 68 c 128,-1,21
 234 25 234 25 297.5 25 c 128,-1,22
 361 25 361 25 393.5 68 c 128,-1,23
 426 111 426 111 426 182 c 2,12,-1
265 894 m 2,24,25
 274 911 274 911 294 911 c 128,-1,26
 314 911 314 911 323 894 c 2,27,-1
 398 768 l 1,28,-1
 386 758 l 1,29,-1
 295 855 l 1,30,-1
 202 758 l 1,31,-1
 190 768 l 1,32,-1
 265 894 l 2,24,25
EndSplineSet
EndChar

StartChar: Otilde
Encoding: 213 213 137
Width: 596
GlyphClass: 2
Flags: W
LayerCount: 2
Fore
SplineSet
536 260 m 2,0,1
 536 136 536 136 475 63 c 128,-1,2
 414 -10 414 -10 298 -10 c 128,-1,3
 182 -10 182 -10 121 63 c 128,-1,4
 60 136 60 136 60 260 c 2,5,-1
 60 429 l 2,6,7
 60 554 60 554 121 627 c 128,-1,8
 182 700 182 700 298 700 c 128,-1,9
 414 700 414 700 475 626.5 c 128,-1,10
 536 553 536 553 536 429 c 2,11,-1
 536 260 l 2,0,1
426 182 m 2,12,-1
 426 508 l 2,13,14
 426 578 426 578 393.5 621.5 c 128,-1,15
 361 665 361 665 297.5 665 c 128,-1,16
 234 665 234 665 201.5 621.5 c 128,-1,17
 169 578 169 578 169 508 c 2,18,-1
 169 182 l 2,19,20
 169 111 169 111 201.5 68 c 128,-1,21
 234 25 234 25 297.5 25 c 128,-1,22
 361 25 361 25 393.5 68 c 128,-1,23
 426 111 426 111 426 182 c 2,12,-1
352 761 m 128,-1,25
 330 761 330 761 293 779.5 c 128,-1,26
 256 798 256 798 240 798 c 0,27,28
 209 798 209 798 180 769 c 1,29,-1
 167 780 l 1,30,31
 222 844 222 844 276 844 c 0,32,33
 293 844 293 844 324.5 827.5 c 128,-1,34
 356 811 356 811 380 811 c 128,-1,35
 404 811 404 811 426 825 c 1,36,-1
 427 826 l 1,37,-1
 439 816 l 1,38,39
 421 791 421 791 397.5 776 c 128,-1,24
 374 761 374 761 352 761 c 128,-1,25
EndSplineSet
EndChar

StartChar: Odieresis
Encoding: 214 214 138
Width: 596
GlyphClass: 2
Flags: W
LayerCount: 2
Fore
SplineSet
536 260 m 2,0,1
 536 136 536 136 475 63 c 128,-1,2
 414 -10 414 -10 298 -10 c 128,-1,3
 182 -10 182 -10 121 63 c 128,-1,4
 60 136 60 136 60 260 c 2,5,-1
 60 429 l 2,6,7
 60 554 60 554 121 627 c 128,-1,8
 182 700 182 700 298 700 c 128,-1,9
 414 700 414 700 475 626.5 c 128,-1,10
 536 553 536 553 536 429 c 2,11,-1
 536 260 l 2,0,1
426 182 m 2,12,-1
 426 508 l 2,13,14
 426 578 426 578 393.5 621.5 c 128,-1,15
 361 665 361 665 297.5 665 c 128,-1,16
 234 665 234 665 201.5 621.5 c 128,-1,17
 169 578 169 578 169 508 c 2,18,-1
 169 182 l 2,19,20
 169 111 169 111 201.5 68 c 128,-1,21
 234 25 234 25 297.5 25 c 128,-1,22
 361 25 361 25 393.5 68 c 128,-1,23
 426 111 426 111 426 182 c 2,12,-1
342 853.5 m 128,-1,25
 355 869 355 869 373 869 c 128,-1,26
 391 869 391 869 404 853.5 c 128,-1,27
 417 838 417 838 417 815.5 c 128,-1,28
 417 793 417 793 404 777 c 128,-1,29
 391 761 391 761 373 761 c 128,-1,30
 355 761 355 761 342 777 c 128,-1,31
 329 793 329 793 329 815.5 c 128,-1,24
 329 838 329 838 342 853.5 c 128,-1,25
190 853.5 m 128,-1,33
 203 869 203 869 221 869 c 128,-1,34
 239 869 239 869 252 853.5 c 128,-1,35
 265 838 265 838 265 815.5 c 128,-1,36
 265 793 265 793 252 777 c 128,-1,37
 239 761 239 761 221 761 c 128,-1,38
 203 761 203 761 190 777 c 128,-1,39
 177 793 177 793 177 815.5 c 128,-1,32
 177 838 177 838 190 853.5 c 128,-1,33
EndSplineSet
EndChar

StartChar: Oslash
Encoding: 216 216 139
Width: 596
GlyphClass: 2
Flags: W
LayerCount: 2
Fore
SplineSet
298 665 m 2,0,1
 234 665 234 665 201.5 622 c 128,-1,2
 169 579 169 579 169 509 c 2,3,-1
 169 182 l 2,4,5
 169 72 169 72 239 37 c 1,6,-1
 312 665 l 1,7,-1
 298 665 l 2,0,1
298 25 m 2,8,9
 361 25 361 25 393.5 68 c 128,-1,10
 426 111 426 111 426 182 c 2,11,-1
 426 509 l 2,12,13
 426 618 426 618 357 653 c 1,14,-1
 284 25 l 1,15,-1
 298 25 l 2,8,9
536 430 m 2,16,-1
 536 260 l 2,17,18
 536 136 536 136 475 63 c 128,-1,19
 414 -10 414 -10 298 -10 c 2,20,-1
 280 -10 l 1,21,-1
 277 -39 l 1,22,-1
 231 -35 l 1,23,-1
 235 -3 l 1,24,25
 149 16 149 16 104.5 85 c 128,-1,26
 60 154 60 154 60 260 c 2,27,-1
 60 430 l 2,28,29
 60 554 60 554 121 627 c 128,-1,30
 182 700 182 700 298 700 c 2,31,-1
 316 700 l 1,32,-1
 319 731 l 1,33,-1
 365 726 l 1,34,-1
 361 692 l 1,35,36
 446 674 446 674 491 604.5 c 128,-1,37
 536 535 536 535 536 430 c 2,16,-1
EndSplineSet
EndChar

StartChar: Ugrave
Encoding: 217 217 140
Width: 606
GlyphClass: 2
Flags: W
LayerCount: 2
Fore
SplineSet
536 0 m 1,0,-1
 427 0 l 1,1,-1
 427 110 l 1,2,3
 414 67 414 67 372.5 28.5 c 128,-1,4
 331 -10 331 -10 271 -10 c 0,5,6
 175 -10 175 -10 117.5 57.5 c 128,-1,7
 60 125 60 125 60 247 c 2,8,-1
 60 690 l 1,9,-1
 168 690 l 1,10,-1
 168 197 l 2,11,12
 168 109 168 109 201 67 c 128,-1,13
 234 25 234 25 294 25 c 128,-1,14
 354 25 354 25 390 85.5 c 128,-1,15
 426 146 426 146 426 227 c 2,16,-1
 426 690 l 1,17,-1
 536 690 l 1,18,-1
 536 0 l 1,0,-1
203 855 m 1,19,20
 192 866 192 866 192 880 c 128,-1,21
 192 894 192 894 205 906.5 c 128,-1,22
 218 919 218 919 235 919 c 128,-1,23
 252 919 252 919 261 903 c 2,24,-1
 335 768 l 1,25,-1
 318 755 l 1,26,-1
 203 855 l 1,19,20
EndSplineSet
EndChar

StartChar: Uacute
Encoding: 218 218 141
Width: 606
GlyphClass: 2
Flags: W
LayerCount: 2
Fore
SplineSet
536 0 m 1,0,-1
 427 0 l 1,1,-1
 427 110 l 1,2,3
 414 67 414 67 372.5 28.5 c 128,-1,4
 331 -10 331 -10 271 -10 c 0,5,6
 175 -10 175 -10 117.5 57.5 c 128,-1,7
 60 125 60 125 60 247 c 2,8,-1
 60 690 l 1,9,-1
 168 690 l 1,10,-1
 168 197 l 2,11,12
 168 109 168 109 201 67 c 128,-1,13
 234 25 234 25 294 25 c 128,-1,14
 354 25 354 25 390 85.5 c 128,-1,15
 426 146 426 146 426 227 c 2,16,-1
 426 690 l 1,17,-1
 536 690 l 1,18,-1
 536 0 l 1,0,-1
331 906 m 2,19,20
 340 922 340 922 356.5 922 c 128,-1,21
 373 922 373 922 386.5 909.5 c 128,-1,22
 400 897 400 897 400 882.5 c 128,-1,23
 400 868 400 868 389 859 c 2,24,-1
 274 759 l 1,25,-1
 257 771 l 1,26,-1
 331 906 l 2,19,20
EndSplineSet
EndChar

StartChar: Ucircumflex
Encoding: 219 219 142
Width: 606
GlyphClass: 2
Flags: W
LayerCount: 2
Fore
SplineSet
536 0 m 1,0,-1
 427 0 l 1,1,-1
 427 110 l 1,2,3
 414 67 414 67 372.5 28.5 c 128,-1,4
 331 -10 331 -10 271 -10 c 0,5,6
 175 -10 175 -10 117.5 57.5 c 128,-1,7
 60 125 60 125 60 247 c 2,8,-1
 60 690 l 1,9,-1
 168 690 l 1,10,-1
 168 197 l 2,11,12
 168 109 168 109 201 67 c 128,-1,13
 234 25 234 25 294 25 c 128,-1,14
 354 25 354 25 390 85.5 c 128,-1,15
 426 146 426 146 426 227 c 2,16,-1
 426 690 l 1,17,-1
 536 690 l 1,18,-1
 536 0 l 1,0,-1
267 894 m 2,19,20
 276 911 276 911 296 911 c 128,-1,21
 316 911 316 911 325 894 c 2,22,-1
 400 768 l 1,23,-1
 388 758 l 1,24,-1
 297 855 l 1,25,-1
 204 758 l 1,26,-1
 192 768 l 1,27,-1
 267 894 l 2,19,20
EndSplineSet
EndChar

StartChar: Udieresis
Encoding: 220 220 143
Width: 606
GlyphClass: 2
Flags: W
LayerCount: 2
Fore
SplineSet
536 0 m 1,0,-1
 427 0 l 1,1,-1
 427 110 l 1,2,3
 414 67 414 67 372.5 28.5 c 128,-1,4
 331 -10 331 -10 271 -10 c 0,5,6
 175 -10 175 -10 117.5 57.5 c 128,-1,7
 60 125 60 125 60 247 c 2,8,-1
 60 690 l 1,9,-1
 168 690 l 1,10,-1
 168 197 l 2,11,12
 168 109 168 109 201 67 c 128,-1,13
 234 25 234 25 294 25 c 128,-1,14
 354 25 354 25 390 85.5 c 128,-1,15
 426 146 426 146 426 227 c 2,16,-1
 426 690 l 1,17,-1
 536 690 l 1,18,-1
 536 0 l 1,0,-1
342 852.5 m 128,-1,20
 355 868 355 868 373 868 c 128,-1,21
 391 868 391 868 404 852.5 c 128,-1,22
 417 837 417 837 417 814.5 c 128,-1,23
 417 792 417 792 404 776 c 128,-1,24
 391 760 391 760 373 760 c 128,-1,25
 355 760 355 760 342 776 c 128,-1,26
 329 792 329 792 329 814.5 c 128,-1,19
 329 837 329 837 342 852.5 c 128,-1,20
190 852.5 m 128,-1,28
 203 868 203 868 221 868 c 128,-1,29
 239 868 239 868 252 852.5 c 128,-1,30
 265 837 265 837 265 814.5 c 128,-1,31
 265 792 265 792 252 776 c 128,-1,32
 239 760 239 760 221 760 c 128,-1,33
 203 760 203 760 190 776 c 128,-1,34
 177 792 177 792 177 814.5 c 128,-1,27
 177 837 177 837 190 852.5 c 128,-1,28
EndSplineSet
EndChar

StartChar: Yacute
Encoding: 221 221 144
Width: 565
GlyphClass: 2
Flags: W
LayerCount: 2
Fore
SplineSet
540 621 m 2,0,1
 540 524 540 524 483.5 452.5 c 128,-1,2
 427 381 427 381 337 363 c 1,3,-1
 337 0 l 1,4,-1
 228 0 l 1,5,-1
 228 362 l 1,6,7
 138 381 138 381 81.5 452.5 c 128,-1,8
 25 524 25 524 25 621 c 2,9,-1
 25 690 l 1,10,-1
 134 690 l 1,11,-1
 134 548 l 2,12,13
 134 481 134 481 175.5 436.5 c 128,-1,14
 217 392 217 392 282.5 392 c 128,-1,15
 348 392 348 392 389 436 c 128,-1,16
 430 480 430 480 430 548 c 2,17,-1
 430 690 l 1,18,-1
 540 690 l 1,19,-1
 540 621 l 2,0,1
338 906 m 2,20,21
 347 922 347 922 363.5 922 c 128,-1,22
 380 922 380 922 393.5 909.5 c 128,-1,23
 407 897 407 897 407 882.5 c 128,-1,24
 407 868 407 868 396 859 c 2,25,-1
 281 759 l 1,26,-1
 264 771 l 1,27,-1
 338 906 l 2,20,21
EndSplineSet
EndChar

StartChar: Thorn
Encoding: 222 222 145
Width: 606
GlyphClass: 2
Flags: W
LayerCount: 2
Fore
SplineSet
546 244 m 2,0,1
 546 121 546 121 482.5 55.5 c 128,-1,2
 419 -10 419 -10 333 -10 c 0,3,4
 298 -10 298 -10 268.5 4.5 c 128,-1,5
 239 19 239 19 221 42 c 0,6,7
 188 84 188 84 178 115 c 1,8,-1
 178 -200 l 1,9,-1
 70 -200 l 1,10,-1
 70 690 l 1,11,-1
 178 690 l 1,12,-1
 178 500 l 1,13,14
 192 543 192 543 233.5 581.5 c 128,-1,15
 275 620 275 620 335 620 c 0,16,17
 431 620 431 620 488.5 552.5 c 128,-1,18
 546 485 546 485 546 363 c 2,19,-1
 546 244 l 2,0,1
437 193 m 2,20,-1
 437 413 l 2,21,22
 437 501 437 501 404 543 c 128,-1,23
 371 585 371 585 311.5 585 c 128,-1,24
 252 585 252 585 215.5 524.5 c 128,-1,25
 179 464 179 464 179 383 c 2,26,-1
 179 222 l 2,27,28
 179 148 179 148 218.5 86.5 c 128,-1,29
 258 25 258 25 323 25 c 0,30,31
 353 25 353 25 375.5 38.5 c 128,-1,32
 398 52 398 52 409.5 70.5 c 128,-1,33
 421 89 421 89 428 115 c 0,34,35
 437 153 437 153 437 193 c 2,20,-1
EndSplineSet
EndChar

StartChar: germandbls
Encoding: 223 223 146
Width: 534
GlyphClass: 2
Flags: W
LayerCount: 2
Fore
SplineSet
158 0 m 1,0,-1
 73 0 l 1,1,-1
 73 270 l 1,2,-1
 40 270 l 1,3,-1
 40 300 l 1,4,-1
 73 300 l 1,5,-1
 73 557 l 2,6,7
 73 614 73 614 110.5 657 c 128,-1,8
 148 700 148 700 204 700 c 128,-1,9
 260 700 260 700 290 671.5 c 128,-1,10
 320 643 320 643 329 608 c 1,11,-1
 329 695 l 1,12,-1
 352 695 l 1,13,-1
 352 485 l 1,14,15
 323 485 323 485 306 464.5 c 128,-1,16
 289 444 289 444 289 415 c 128,-1,17
 289 386 289 386 319 353 c 2,18,-1
 454 207 l 2,19,20
 494 164 494 164 494 113.5 c 128,-1,21
 494 63 494 63 456.5 26.5 c 128,-1,22
 419 -10 419 -10 348 -10 c 128,-1,23
 277 -10 277 -10 247.5 28.5 c 128,-1,24
 218 67 218 67 218 113 c 1,25,-1
 245 113 l 1,26,-1
 245 107 l 2,27,28
 245 68 245 68 270.5 44 c 128,-1,29
 296 20 296 20 337 20 c 0,30,31
 418 20 418 20 418 90 c 0,32,33
 418 117 418 117 391 147 c 2,34,-1
 265 286 l 2,35,36
 220 336 220 336 220 383.5 c 128,-1,37
 220 431 220 431 250 465.5 c 128,-1,38
 280 500 280 500 329 505 c 1,39,40
 325 564 325 564 298 614.5 c 128,-1,41
 271 665 271 665 226 665 c 0,42,43
 195 665 195 665 176.5 640.5 c 128,-1,44
 158 616 158 616 158 587 c 2,45,-1
 158 0 l 1,0,-1
EndSplineSet
EndChar

StartChar: agrave
Encoding: 224 224 147
Width: 444
GlyphClass: 2
Flags: W
LayerCount: 2
Fore
SplineSet
388 40 m 128,-1,1
 410 40 410 40 420 72 c 1,2,-1
 439 69 l 1,3,4
 439 61 439 61 433.5 44.5 c 128,-1,5
 428 28 428 28 420.5 17.5 c 128,-1,6
 413 7 413 7 397 -1.5 c 128,-1,7
 381 -10 381 -10 361 -10 c 0,8,9
 291 -10 291 -10 281 64 c 1,10,11
 252 -10 252 -10 181 -10 c 0,12,13
 121 -10 121 -10 85.5 33 c 128,-1,14
 50 76 50 76 50 149 c 2,15,-1
 50 322 l 2,16,17
 50 394 50 394 85.5 437 c 128,-1,18
 121 480 121 480 186 480 c 128,-1,19
 251 480 251 480 279 412 c 1,20,-1
 279 470 l 1,21,-1
 366 470 l 1,22,-1
 366 74 l 2,23,0
 366 40 366 40 388 40 c 128,-1,1
279 137 m 2,24,-1
 279 334 l 2,25,26
 279 380 279 380 257 415 c 128,-1,27
 235 450 235 450 196 450 c 0,28,29
 137 450 137 450 137 356 c 2,30,-1
 137 115 l 2,31,32
 137 22 137 22 195 22 c 0,33,34
 236 22 236 22 257.5 55.5 c 128,-1,35
 279 89 279 89 279 137 c 2,24,-1
114 626 m 1,36,37
 103 637 103 637 103 651 c 128,-1,38
 103 665 103 665 116 677.5 c 128,-1,39
 129 690 129 690 146 690 c 128,-1,40
 163 690 163 690 172 674 c 2,41,-1
 246 539 l 1,42,-1
 229 526 l 1,43,-1
 114 626 l 1,36,37
EndSplineSet
EndChar

StartChar: aacute
Encoding: 225 225 148
Width: 444
GlyphClass: 2
Flags: W
LayerCount: 2
Fore
SplineSet
388 40 m 128,-1,1
 410 40 410 40 420 72 c 1,2,-1
 439 69 l 1,3,4
 439 61 439 61 433.5 44.5 c 128,-1,5
 428 28 428 28 420.5 17.5 c 128,-1,6
 413 7 413 7 397 -1.5 c 128,-1,7
 381 -10 381 -10 361 -10 c 0,8,9
 291 -10 291 -10 281 64 c 1,10,11
 252 -10 252 -10 181 -10 c 0,12,13
 121 -10 121 -10 85.5 33 c 128,-1,14
 50 76 50 76 50 149 c 2,15,-1
 50 322 l 2,16,17
 50 394 50 394 85.5 437 c 128,-1,18
 121 480 121 480 186 480 c 128,-1,19
 251 480 251 480 279 412 c 1,20,-1
 279 470 l 1,21,-1
 366 470 l 1,22,-1
 366 74 l 2,23,0
 366 40 366 40 388 40 c 128,-1,1
279 137 m 2,24,-1
 279 334 l 2,25,26
 279 380 279 380 257 415 c 128,-1,27
 235 450 235 450 196 450 c 0,28,29
 137 450 137 450 137 356 c 2,30,-1
 137 115 l 2,31,32
 137 22 137 22 195 22 c 0,33,34
 236 22 236 22 257.5 55.5 c 128,-1,35
 279 89 279 89 279 137 c 2,24,-1
243 674 m 2,36,37
 252 690 252 690 268.5 690 c 128,-1,38
 285 690 285 690 298.5 677.5 c 128,-1,39
 312 665 312 665 312 650.5 c 128,-1,40
 312 636 312 636 301 627 c 2,41,-1
 186 527 l 1,42,-1
 169 539 l 1,43,-1
 243 674 l 2,36,37
EndSplineSet
EndChar

StartChar: acircumflex
Encoding: 226 226 149
Width: 444
GlyphClass: 2
Flags: W
LayerCount: 2
Fore
SplineSet
388 40 m 128,-1,1
 410 40 410 40 420 72 c 1,2,-1
 439 69 l 1,3,4
 439 61 439 61 433.5 44.5 c 128,-1,5
 428 28 428 28 420.5 17.5 c 128,-1,6
 413 7 413 7 397 -1.5 c 128,-1,7
 381 -10 381 -10 361 -10 c 0,8,9
 291 -10 291 -10 281 64 c 1,10,11
 252 -10 252 -10 181 -10 c 0,12,13
 121 -10 121 -10 85.5 33 c 128,-1,14
 50 76 50 76 50 149 c 2,15,-1
 50 322 l 2,16,17
 50 394 50 394 85.5 437 c 128,-1,18
 121 480 121 480 186 480 c 128,-1,19
 251 480 251 480 279 412 c 1,20,-1
 279 470 l 1,21,-1
 366 470 l 1,22,-1
 366 74 l 2,23,0
 366 40 366 40 388 40 c 128,-1,1
279 137 m 2,24,-1
 279 334 l 2,25,26
 279 380 279 380 257 415 c 128,-1,27
 235 450 235 450 196 450 c 0,28,29
 137 450 137 450 137 356 c 2,30,-1
 137 115 l 2,31,32
 137 22 137 22 195 22 c 0,33,34
 236 22 236 22 257.5 55.5 c 128,-1,35
 279 89 279 89 279 137 c 2,24,-1
180 673 m 2,36,37
 189 690 189 690 209 690 c 128,-1,38
 229 690 229 690 238 673 c 2,39,-1
 313 547 l 1,40,-1
 301 537 l 1,41,-1
 210 634 l 1,42,-1
 117 537 l 1,43,-1
 105 547 l 1,44,-1
 180 673 l 2,36,37
EndSplineSet
EndChar

StartChar: atilde
Encoding: 227 227 150
Width: 444
GlyphClass: 2
Flags: W
LayerCount: 2
Fore
SplineSet
388 40 m 128,-1,1
 410 40 410 40 420 72 c 1,2,-1
 439 69 l 1,3,4
 439 61 439 61 433.5 44.5 c 128,-1,5
 428 28 428 28 420.5 17.5 c 128,-1,6
 413 7 413 7 397 -1.5 c 128,-1,7
 381 -10 381 -10 361 -10 c 0,8,9
 291 -10 291 -10 281 64 c 1,10,11
 252 -10 252 -10 181 -10 c 0,12,13
 121 -10 121 -10 85.5 33 c 128,-1,14
 50 76 50 76 50 149 c 2,15,-1
 50 322 l 2,16,17
 50 394 50 394 85.5 437 c 128,-1,18
 121 480 121 480 186 480 c 128,-1,19
 251 480 251 480 279 412 c 1,20,-1
 279 470 l 1,21,-1
 366 470 l 1,22,-1
 366 74 l 2,23,0
 366 40 366 40 388 40 c 128,-1,1
279 137 m 2,24,-1
 279 334 l 2,25,26
 279 380 279 380 257 415 c 128,-1,27
 235 450 235 450 196 450 c 0,28,29
 137 450 137 450 137 356 c 2,30,-1
 137 115 l 2,31,32
 137 22 137 22 195 22 c 0,33,34
 236 22 236 22 257.5 55.5 c 128,-1,35
 279 89 279 89 279 137 c 2,24,-1
264 536 m 128,-1,37
 242 536 242 536 205 554.5 c 128,-1,38
 168 573 168 573 152 573 c 0,39,40
 121 573 121 573 92 544 c 1,41,-1
 79 555 l 1,42,43
 134 619 134 619 188 619 c 0,44,45
 205 619 205 619 236.5 602.5 c 128,-1,46
 268 586 268 586 292 586 c 128,-1,47
 316 586 316 586 338 600 c 1,48,-1
 339 601 l 1,49,-1
 351 591 l 1,50,51
 333 566 333 566 309.5 551 c 128,-1,36
 286 536 286 536 264 536 c 128,-1,37
EndSplineSet
EndChar

StartChar: adieresis
Encoding: 228 228 151
Width: 444
GlyphClass: 2
Flags: W
LayerCount: 2
Fore
SplineSet
388 40 m 128,-1,1
 410 40 410 40 420 72 c 1,2,-1
 439 69 l 1,3,4
 439 61 439 61 433.5 44.5 c 128,-1,5
 428 28 428 28 420.5 17.5 c 128,-1,6
 413 7 413 7 397 -1.5 c 128,-1,7
 381 -10 381 -10 361 -10 c 0,8,9
 291 -10 291 -10 281 64 c 1,10,11
 252 -10 252 -10 181 -10 c 0,12,13
 121 -10 121 -10 85.5 33 c 128,-1,14
 50 76 50 76 50 149 c 2,15,-1
 50 322 l 2,16,17
 50 394 50 394 85.5 437 c 128,-1,18
 121 480 121 480 186 480 c 128,-1,19
 251 480 251 480 279 412 c 1,20,-1
 279 470 l 1,21,-1
 366 470 l 1,22,-1
 366 74 l 2,23,0
 366 40 366 40 388 40 c 128,-1,1
279 137 m 2,24,-1
 279 334 l 2,25,26
 279 380 279 380 257 415 c 128,-1,27
 235 450 235 450 196 450 c 0,28,29
 137 450 137 450 137 356 c 2,30,-1
 137 115 l 2,31,32
 137 22 137 22 195 22 c 0,33,34
 236 22 236 22 257.5 55.5 c 128,-1,35
 279 89 279 89 279 137 c 2,24,-1
253 660.5 m 128,-1,37
 266 676 266 676 284 676 c 128,-1,38
 302 676 302 676 315 660.5 c 128,-1,39
 328 645 328 645 328 622.5 c 128,-1,40
 328 600 328 600 315 584 c 128,-1,41
 302 568 302 568 284 568 c 128,-1,42
 266 568 266 568 253 584 c 128,-1,43
 240 600 240 600 240 622.5 c 128,-1,36
 240 645 240 645 253 660.5 c 128,-1,37
101 660.5 m 128,-1,45
 114 676 114 676 132 676 c 128,-1,46
 150 676 150 676 163 660.5 c 128,-1,47
 176 645 176 645 176 622.5 c 128,-1,48
 176 600 176 600 163 584 c 128,-1,49
 150 568 150 568 132 568 c 128,-1,50
 114 568 114 568 101 584 c 128,-1,51
 88 600 88 600 88 622.5 c 128,-1,44
 88 645 88 645 101 660.5 c 128,-1,45
EndSplineSet
EndChar

StartChar: aring
Encoding: 229 229 152
Width: 444
GlyphClass: 2
Flags: W
LayerCount: 2
Fore
SplineSet
388 40 m 128,-1,1
 410 40 410 40 420 72 c 1,2,-1
 439 69 l 1,3,4
 439 61 439 61 433.5 44.5 c 128,-1,5
 428 28 428 28 420.5 17.5 c 128,-1,6
 413 7 413 7 397 -1.5 c 128,-1,7
 381 -10 381 -10 361 -10 c 0,8,9
 291 -10 291 -10 281 64 c 1,10,11
 252 -10 252 -10 181 -10 c 0,12,13
 121 -10 121 -10 85.5 33 c 128,-1,14
 50 76 50 76 50 149 c 2,15,-1
 50 322 l 2,16,17
 50 394 50 394 85.5 437 c 128,-1,18
 121 480 121 480 186 480 c 128,-1,19
 251 480 251 480 279 412 c 1,20,-1
 279 470 l 1,21,-1
 366 470 l 1,22,-1
 366 74 l 2,23,0
 366 40 366 40 388 40 c 128,-1,1
279 137 m 2,24,-1
 279 334 l 2,25,26
 279 380 279 380 257 415 c 128,-1,27
 235 450 235 450 196 450 c 0,28,29
 137 450 137 450 137 356 c 2,30,-1
 137 115 l 2,31,32
 137 22 137 22 195 22 c 0,33,34
 236 22 236 22 257.5 55.5 c 128,-1,35
 279 89 279 89 279 137 c 2,24,-1
233 671 m 128,-1,37
 250 652 250 652 250 622.5 c 128,-1,38
 250 593 250 593 233 574.5 c 128,-1,39
 216 556 216 556 191 556 c 128,-1,40
 166 556 166 556 149 574.5 c 128,-1,41
 132 593 132 593 132 622.5 c 128,-1,42
 132 652 132 652 149 671 c 128,-1,43
 166 690 166 690 191 690 c 128,-1,36
 216 690 216 690 233 671 c 128,-1,37
215.5 592.5 m 128,-1,45
 226 605 226 605 226 622.5 c 128,-1,46
 226 640 226 640 215.5 652.5 c 128,-1,47
 205 665 205 665 191 665 c 128,-1,48
 177 665 177 665 166.5 652.5 c 128,-1,49
 156 640 156 640 156 622.5 c 128,-1,50
 156 605 156 605 166.5 592.5 c 128,-1,51
 177 580 177 580 191 580 c 128,-1,44
 205 580 205 580 215.5 592.5 c 128,-1,45
EndSplineSet
EndChar

StartChar: ccedilla
Encoding: 231 231 153
Width: 350
GlyphClass: 2
Flags: W
LayerCount: 2
Fore
SplineSet
315 349 m 1,0,-1
 289 349 l 1,1,-1
 289 357 l 2,2,3
 289 396 289 396 258 429 c 0,4,5
 239 450 239 450 209 450 c 128,-1,6
 179 450 179 450 158 425 c 128,-1,7
 137 400 137 400 137 352 c 2,8,-1
 137 118 l 2,9,10
 137 73 137 73 157 46.5 c 128,-1,11
 177 20 177 20 214.5 20 c 128,-1,12
 252 20 252 20 270.5 52.5 c 128,-1,13
 289 85 289 85 289 113 c 2,14,-1
 289 122 l 1,15,-1
 315 122 l 1,16,17
 315 86 315 86 295.5 46.5 c 128,-1,18
 276 7 276 7 232 -5 c 1,19,20
 229 -77 229 -77 140 -148 c 1,21,-1
 127 -138 l 1,22,23
 142 -119 142 -119 150.5 -89 c 128,-1,24
 159 -59 159 -59 161 -19 c 1,25,-1
 161 -6 l 1,26,27
 108 5 108 5 79 48.5 c 128,-1,28
 50 92 50 92 50 157 c 2,29,-1
 50 313 l 2,30,31
 50 389 50 389 89.5 434.5 c 128,-1,32
 129 480 129 480 196 480 c 0,33,34
 233 480 233 480 259 463.5 c 128,-1,35
 285 447 285 447 296 422 c 0,36,37
 315 380 315 380 315 349 c 1,0,-1
EndSplineSet
EndChar

StartChar: egrave
Encoding: 232 232 154
Width: 381
GlyphClass: 2
Flags: W
LayerCount: 2
Fore
SplineSet
336 311 m 2,0,-1
 336 232 l 1,1,-1
 136 232 l 1,2,-1
 136 118 l 2,3,4
 136 20 136 20 216 20 c 0,5,6
 259 20 259 20 281.5 55 c 128,-1,7
 304 90 304 90 304 115 c 1,8,-1
 326 115 l 1,9,10
 326 57 326 57 279 16 c 0,11,12
 249 -10 249 -10 203 -10 c 0,13,14
 124 -10 124 -10 87 37 c 128,-1,15
 50 84 50 84 50 157 c 2,16,-1
 50 314 l 2,17,18
 50 387 50 387 90 433.5 c 128,-1,19
 130 480 130 480 203 480 c 128,-1,20
 276 480 276 480 306 432 c 128,-1,21
 336 384 336 384 336 311 c 2,0,-1
279 262 m 1,22,-1
 279 353 l 2,23,24
 279 450 279 450 209 450 c 0,25,26
 136 450 136 450 136 353 c 2,27,-1
 136 262 l 1,28,-1
 279 262 l 1,22,-1
114 626 m 1,29,30
 103 637 103 637 103 651 c 128,-1,31
 103 665 103 665 116 677.5 c 128,-1,32
 129 690 129 690 146 690 c 128,-1,33
 163 690 163 690 172 674 c 2,34,-1
 246 539 l 1,35,-1
 229 526 l 1,36,-1
 114 626 l 1,29,30
EndSplineSet
EndChar

StartChar: eacute
Encoding: 233 233 155
Width: 381
GlyphClass: 2
Flags: W
LayerCount: 2
Fore
SplineSet
336 311 m 2,0,-1
 336 232 l 1,1,-1
 136 232 l 1,2,-1
 136 118 l 2,3,4
 136 20 136 20 216 20 c 0,5,6
 259 20 259 20 281.5 55 c 128,-1,7
 304 90 304 90 304 115 c 1,8,-1
 326 115 l 1,9,10
 326 57 326 57 279 16 c 0,11,12
 249 -10 249 -10 203 -10 c 0,13,14
 124 -10 124 -10 87 37 c 128,-1,15
 50 84 50 84 50 157 c 2,16,-1
 50 314 l 2,17,18
 50 387 50 387 90 433.5 c 128,-1,19
 130 480 130 480 203 480 c 128,-1,20
 276 480 276 480 306 432 c 128,-1,21
 336 384 336 384 336 311 c 2,0,-1
279 262 m 1,22,-1
 279 353 l 2,23,24
 279 450 279 450 209 450 c 0,25,26
 136 450 136 450 136 353 c 2,27,-1
 136 262 l 1,28,-1
 279 262 l 1,22,-1
243 674 m 2,29,30
 252 690 252 690 268.5 690 c 128,-1,31
 285 690 285 690 298.5 677.5 c 128,-1,32
 312 665 312 665 312 650.5 c 128,-1,33
 312 636 312 636 301 627 c 2,34,-1
 186 527 l 1,35,-1
 169 539 l 1,36,-1
 243 674 l 2,29,30
EndSplineSet
EndChar

StartChar: ecircumflex
Encoding: 234 234 156
Width: 381
GlyphClass: 2
Flags: W
LayerCount: 2
Fore
SplineSet
336 311 m 2,0,-1
 336 232 l 1,1,-1
 136 232 l 1,2,-1
 136 118 l 2,3,4
 136 20 136 20 216 20 c 0,5,6
 259 20 259 20 281.5 55 c 128,-1,7
 304 90 304 90 304 115 c 1,8,-1
 326 115 l 1,9,10
 326 57 326 57 279 16 c 0,11,12
 249 -10 249 -10 203 -10 c 0,13,14
 124 -10 124 -10 87 37 c 128,-1,15
 50 84 50 84 50 157 c 2,16,-1
 50 314 l 2,17,18
 50 387 50 387 90 433.5 c 128,-1,19
 130 480 130 480 203 480 c 128,-1,20
 276 480 276 480 306 432 c 128,-1,21
 336 384 336 384 336 311 c 2,0,-1
279 262 m 1,22,-1
 279 353 l 2,23,24
 279 450 279 450 209 450 c 0,25,26
 136 450 136 450 136 353 c 2,27,-1
 136 262 l 1,28,-1
 279 262 l 1,22,-1
171 673 m 2,29,30
 180 690 180 690 200 690 c 128,-1,31
 220 690 220 690 229 673 c 2,32,-1
 304 547 l 1,33,-1
 292 537 l 1,34,-1
 201 634 l 1,35,-1
 108 537 l 1,36,-1
 96 547 l 1,37,-1
 171 673 l 2,29,30
EndSplineSet
EndChar

StartChar: edieresis
Encoding: 235 235 157
Width: 381
GlyphClass: 2
Flags: W
LayerCount: 2
Fore
SplineSet
336 311 m 2,0,-1
 336 232 l 1,1,-1
 136 232 l 1,2,-1
 136 118 l 2,3,4
 136 20 136 20 216 20 c 0,5,6
 259 20 259 20 281.5 55 c 128,-1,7
 304 90 304 90 304 115 c 1,8,-1
 326 115 l 1,9,10
 326 57 326 57 279 16 c 0,11,12
 249 -10 249 -10 203 -10 c 0,13,14
 124 -10 124 -10 87 37 c 128,-1,15
 50 84 50 84 50 157 c 2,16,-1
 50 314 l 2,17,18
 50 387 50 387 90 433.5 c 128,-1,19
 130 480 130 480 203 480 c 128,-1,20
 276 480 276 480 306 432 c 128,-1,21
 336 384 336 384 336 311 c 2,0,-1
279 262 m 1,22,-1
 279 353 l 2,23,24
 279 450 279 450 209 450 c 0,25,26
 136 450 136 450 136 353 c 2,27,-1
 136 262 l 1,28,-1
 279 262 l 1,22,-1
245 660.5 m 128,-1,30
 258 676 258 676 276 676 c 128,-1,31
 294 676 294 676 307 660.5 c 128,-1,32
 320 645 320 645 320 622.5 c 128,-1,33
 320 600 320 600 307 584 c 128,-1,34
 294 568 294 568 276 568 c 128,-1,35
 258 568 258 568 245 584 c 128,-1,36
 232 600 232 600 232 622.5 c 128,-1,29
 232 645 232 645 245 660.5 c 128,-1,30
93 660.5 m 128,-1,38
 106 676 106 676 124 676 c 128,-1,39
 142 676 142 676 155 660.5 c 128,-1,40
 168 645 168 645 168 622.5 c 128,-1,41
 168 600 168 600 155 584 c 128,-1,42
 142 568 142 568 124 568 c 128,-1,43
 106 568 106 568 93 584 c 128,-1,44
 80 600 80 600 80 622.5 c 128,-1,37
 80 645 80 645 93 660.5 c 128,-1,38
EndSplineSet
EndChar

StartChar: igrave
Encoding: 236 236 158
Width: 225
GlyphClass: 2
Flags: W
LayerCount: 2
Fore
SplineSet
169 40 m 0,0,1
 189 40 189 40 201 72 c 1,2,-1
 220 69 l 1,3,4
 220 60 220 60 214 44 c 128,-1,5
 208 28 208 28 200.5 17.5 c 128,-1,6
 193 7 193 7 177.5 -1.5 c 128,-1,7
 162 -10 162 -10 142 -10 c 0,8,9
 60 -10 60 -10 60 89 c 2,10,-1
 60 470 l 1,11,-1
 146 470 l 1,12,-1
 146 74 l 2,13,14
 146 40 146 40 169 40 c 0,0,1
31 626 m 1,15,16
 20 637 20 637 20 651 c 128,-1,17
 20 665 20 665 33 677.5 c 128,-1,18
 46 690 46 690 63 690 c 128,-1,19
 80 690 80 690 89 674 c 2,20,-1
 163 539 l 1,21,-1
 146 526 l 1,22,-1
 31 626 l 1,15,16
EndSplineSet
EndChar

StartChar: iacute
Encoding: 237 237 159
Width: 225
GlyphClass: 2
Flags: W
LayerCount: 2
Fore
SplineSet
169 40 m 0,0,1
 189 40 189 40 201 72 c 1,2,-1
 220 69 l 1,3,4
 220 60 220 60 214 44 c 128,-1,5
 208 28 208 28 200.5 17.5 c 128,-1,6
 193 7 193 7 177.5 -1.5 c 128,-1,7
 162 -10 162 -10 142 -10 c 0,8,9
 60 -10 60 -10 60 89 c 2,10,-1
 60 470 l 1,11,-1
 146 470 l 1,12,-1
 146 74 l 2,13,14
 146 40 146 40 169 40 c 0,0,1
143 674 m 2,15,16
 152 690 152 690 168.5 690 c 128,-1,17
 185 690 185 690 198.5 677.5 c 128,-1,18
 212 665 212 665 212 650.5 c 128,-1,19
 212 636 212 636 201 627 c 2,20,-1
 86 527 l 1,21,-1
 69 539 l 1,22,-1
 143 674 l 2,15,16
EndSplineSet
EndChar

StartChar: icircumflex
Encoding: 238 238 160
Width: 225
GlyphClass: 2
Flags: W
LayerCount: 2
Fore
SplineSet
169 40 m 0,0,1
 189 40 189 40 201 72 c 1,2,-1
 220 69 l 1,3,4
 220 60 220 60 214 44 c 128,-1,5
 208 28 208 28 200.5 17.5 c 128,-1,6
 193 7 193 7 177.5 -1.5 c 128,-1,7
 162 -10 162 -10 142 -10 c 0,8,9
 60 -10 60 -10 60 89 c 2,10,-1
 60 470 l 1,11,-1
 146 470 l 1,12,-1
 146 74 l 2,13,14
 146 40 146 40 169 40 c 0,0,1
80 673 m 2,15,16
 89 690 89 690 109 690 c 128,-1,17
 129 690 129 690 138 673 c 2,18,-1
 213 547 l 1,19,-1
 201 537 l 1,20,-1
 110 634 l 1,21,-1
 17 537 l 1,22,-1
 5 547 l 1,23,-1
 80 673 l 2,15,16
EndSplineSet
EndChar

StartChar: idieresis
Encoding: 239 239 161
Width: 225
GlyphClass: 2
Flags: W
LayerCount: 2
Fore
SplineSet
169 40 m 0,0,1
 189 40 189 40 201 72 c 1,2,-1
 220 69 l 1,3,4
 220 60 220 60 214 44 c 128,-1,5
 208 28 208 28 200.5 17.5 c 128,-1,6
 193 7 193 7 177.5 -1.5 c 128,-1,7
 162 -10 162 -10 142 -10 c 0,8,9
 60 -10 60 -10 60 89 c 2,10,-1
 60 470 l 1,11,-1
 146 470 l 1,12,-1
 146 74 l 2,13,14
 146 40 146 40 169 40 c 0,0,1
155 660.5 m 128,-1,16
 168 676 168 676 186 676 c 128,-1,17
 204 676 204 676 217 660.5 c 128,-1,18
 230 645 230 645 230 622.5 c 128,-1,19
 230 600 230 600 217 584 c 128,-1,20
 204 568 204 568 186 568 c 128,-1,21
 168 568 168 568 155 584 c 128,-1,22
 142 600 142 600 142 622.5 c 128,-1,15
 142 645 142 645 155 660.5 c 128,-1,16
3 660.5 m 128,-1,24
 16 676 16 676 34 676 c 128,-1,25
 52 676 52 676 65 660.5 c 128,-1,26
 78 645 78 645 78 622.5 c 128,-1,27
 78 600 78 600 65 584 c 128,-1,28
 52 568 52 568 34 568 c 128,-1,29
 16 568 16 568 3 584 c 128,-1,30
 -10 600 -10 600 -10 622.5 c 128,-1,23
 -10 645 -10 645 3 660.5 c 128,-1,24
EndSplineSet
EndChar

StartChar: eth
Encoding: 240 240 162
Width: 426
GlyphClass: 2
Flags: W
LayerCount: 2
Fore
SplineSet
366 0 m 1,0,-1
 279 0 l 1,1,-1
 279 60 l 1,2,3
 251 -10 251 -10 186 -10 c 128,-1,4
 121 -10 121 -10 85.5 33 c 128,-1,5
 50 76 50 76 50 149 c 2,6,-1
 50 322 l 2,7,8
 50 394 50 394 85.5 437 c 128,-1,9
 121 480 121 480 186 480 c 128,-1,10
 251 480 251 480 279 412 c 1,11,-1
 279 560 l 1,12,-1
 169 560 l 1,13,-1
 169 625 l 1,14,-1
 279 625 l 1,15,-1
 279 690 l 1,16,-1
 366 690 l 1,17,-1
 366 625 l 1,18,-1
 426 625 l 1,19,-1
 426 560 l 1,20,-1
 366 560 l 1,21,-1
 366 0 l 1,0,-1
279 334 m 2,22,23
 279 380 279 380 257 415 c 128,-1,24
 235 450 235 450 196 450 c 0,25,26
 137 450 137 450 137 356 c 2,27,-1
 137 115 l 2,28,29
 137 22 137 22 195 22 c 0,30,31
 236 22 236 22 257.5 55 c 128,-1,32
 279 88 279 88 279 137 c 2,33,-1
 279 334 l 2,22,23
EndSplineSet
EndChar

StartChar: ntilde
Encoding: 241 241 163
Width: 453
GlyphClass: 2
Flags: W
LayerCount: 2
Fore
SplineSet
398 40 m 0,0,1
 417 40 417 40 429 72 c 1,2,-1
 448 69 l 1,3,4
 448 61 448 61 442.5 44.5 c 128,-1,5
 437 28 437 28 429.5 17.5 c 128,-1,6
 422 7 422 7 406.5 -1.5 c 128,-1,7
 391 -10 391 -10 371 -10 c 0,8,9
 288 -10 288 -10 288 89 c 2,10,-1
 288 356 l 2,11,12
 288 450 288 450 229 450 c 0,13,14
 190 450 190 450 168 415 c 128,-1,15
 146 380 146 380 146 334 c 2,16,-1
 146 0 l 1,17,-1
 60 0 l 1,18,-1
 60 470 l 1,19,-1
 146 470 l 1,20,-1
 146 412 l 1,21,22
 175 480 175 480 240 480 c 128,-1,23
 305 480 305 480 340 437.5 c 128,-1,24
 375 395 375 395 375 322 c 2,25,-1
 375 74 l 2,26,27
 375 40 375 40 398 40 c 0,0,1
281 536 m 128,-1,29
 259 536 259 536 222 554.5 c 128,-1,30
 185 573 185 573 169 573 c 0,31,32
 138 573 138 573 109 544 c 1,33,-1
 96 555 l 1,34,35
 151 619 151 619 205 619 c 0,36,37
 222 619 222 619 253.5 602.5 c 128,-1,38
 285 586 285 586 309 586 c 128,-1,39
 333 586 333 586 355 600 c 1,40,-1
 356 601 l 1,41,-1
 368 591 l 1,42,43
 350 566 350 566 326.5 551 c 128,-1,28
 303 536 303 536 281 536 c 128,-1,29
EndSplineSet
EndChar

StartChar: ograve
Encoding: 242 242 164
Width: 416
GlyphClass: 2
Flags: W
LayerCount: 2
Fore
SplineSet
366 157 m 2,0,1
 366 84 366 84 324.5 37 c 128,-1,2
 283 -10 283 -10 208 -10 c 128,-1,3
 133 -10 133 -10 91.5 37 c 128,-1,4
 50 84 50 84 50 157 c 2,5,-1
 50 314 l 2,6,7
 50 387 50 387 91.5 433.5 c 128,-1,8
 133 480 133 480 208 480 c 128,-1,9
 283 480 283 480 324.5 433.5 c 128,-1,10
 366 387 366 387 366 314 c 2,11,-1
 366 157 l 2,0,1
279 118 m 2,12,-1
 279 353 l 2,13,14
 279 450 279 450 207.5 450 c 128,-1,15
 136 450 136 450 136 353 c 2,16,-1
 136 118 l 2,17,18
 136 20 136 20 207.5 20 c 128,-1,19
 279 20 279 20 279 118 c 2,12,-1
114 626 m 1,20,21
 103 637 103 637 103 651 c 128,-1,22
 103 665 103 665 116 677.5 c 128,-1,23
 129 690 129 690 146 690 c 128,-1,24
 163 690 163 690 172 674 c 2,25,-1
 246 539 l 1,26,-1
 229 526 l 1,27,-1
 114 626 l 1,20,21
EndSplineSet
EndChar

StartChar: oacute
Encoding: 243 243 165
Width: 416
GlyphClass: 2
Flags: W
LayerCount: 2
Fore
SplineSet
366 157 m 2,0,1
 366 84 366 84 324.5 37 c 128,-1,2
 283 -10 283 -10 208 -10 c 128,-1,3
 133 -10 133 -10 91.5 37 c 128,-1,4
 50 84 50 84 50 157 c 2,5,-1
 50 314 l 2,6,7
 50 387 50 387 91.5 433.5 c 128,-1,8
 133 480 133 480 208 480 c 128,-1,9
 283 480 283 480 324.5 433.5 c 128,-1,10
 366 387 366 387 366 314 c 2,11,-1
 366 157 l 2,0,1
279 118 m 2,12,-1
 279 353 l 2,13,14
 279 450 279 450 207.5 450 c 128,-1,15
 136 450 136 450 136 353 c 2,16,-1
 136 118 l 2,17,18
 136 20 136 20 207.5 20 c 128,-1,19
 279 20 279 20 279 118 c 2,12,-1
243 674 m 2,20,21
 252 690 252 690 268.5 690 c 128,-1,22
 285 690 285 690 298.5 677.5 c 128,-1,23
 312 665 312 665 312 650.5 c 128,-1,24
 312 636 312 636 301 627 c 2,25,-1
 186 527 l 1,26,-1
 169 539 l 1,27,-1
 243 674 l 2,20,21
EndSplineSet
EndChar

StartChar: ocircumflex
Encoding: 244 244 166
Width: 416
GlyphClass: 2
Flags: W
LayerCount: 2
Fore
SplineSet
366 157 m 2,0,1
 366 84 366 84 324.5 37 c 128,-1,2
 283 -10 283 -10 208 -10 c 128,-1,3
 133 -10 133 -10 91.5 37 c 128,-1,4
 50 84 50 84 50 157 c 2,5,-1
 50 314 l 2,6,7
 50 387 50 387 91.5 433.5 c 128,-1,8
 133 480 133 480 208 480 c 128,-1,9
 283 480 283 480 324.5 433.5 c 128,-1,10
 366 387 366 387 366 314 c 2,11,-1
 366 157 l 2,0,1
279 118 m 2,12,-1
 279 353 l 2,13,14
 279 450 279 450 207.5 450 c 128,-1,15
 136 450 136 450 136 353 c 2,16,-1
 136 118 l 2,17,18
 136 20 136 20 207.5 20 c 128,-1,19
 279 20 279 20 279 118 c 2,12,-1
174 673 m 2,20,21
 183 690 183 690 203 690 c 128,-1,22
 223 690 223 690 232 673 c 2,23,-1
 307 547 l 1,24,-1
 295 537 l 1,25,-1
 204 634 l 1,26,-1
 111 537 l 1,27,-1
 99 547 l 1,28,-1
 174 673 l 2,20,21
EndSplineSet
EndChar

StartChar: otilde
Encoding: 245 245 167
Width: 416
GlyphClass: 2
Flags: W
LayerCount: 2
Fore
SplineSet
366 157 m 2,0,1
 366 84 366 84 324.5 37 c 128,-1,2
 283 -10 283 -10 208 -10 c 128,-1,3
 133 -10 133 -10 91.5 37 c 128,-1,4
 50 84 50 84 50 157 c 2,5,-1
 50 314 l 2,6,7
 50 387 50 387 91.5 433.5 c 128,-1,8
 133 480 133 480 208 480 c 128,-1,9
 283 480 283 480 324.5 433.5 c 128,-1,10
 366 387 366 387 366 314 c 2,11,-1
 366 157 l 2,0,1
279 118 m 2,12,-1
 279 353 l 2,13,14
 279 450 279 450 207.5 450 c 128,-1,15
 136 450 136 450 136 353 c 2,16,-1
 136 118 l 2,17,18
 136 20 136 20 207.5 20 c 128,-1,19
 279 20 279 20 279 118 c 2,12,-1
264 536 m 128,-1,21
 242 536 242 536 205 554.5 c 128,-1,22
 168 573 168 573 152 573 c 0,23,24
 121 573 121 573 92 544 c 1,25,-1
 79 555 l 1,26,27
 134 619 134 619 188 619 c 0,28,29
 205 619 205 619 236.5 602.5 c 128,-1,30
 268 586 268 586 292 586 c 128,-1,31
 316 586 316 586 338 600 c 1,32,-1
 339 601 l 1,33,-1
 351 591 l 1,34,35
 333 566 333 566 309.5 551 c 128,-1,20
 286 536 286 536 264 536 c 128,-1,21
EndSplineSet
EndChar

StartChar: odieresis
Encoding: 246 246 168
Width: 416
GlyphClass: 2
Flags: W
LayerCount: 2
Fore
SplineSet
366 157 m 2,0,1
 366 84 366 84 324.5 37 c 128,-1,2
 283 -10 283 -10 208 -10 c 128,-1,3
 133 -10 133 -10 91.5 37 c 128,-1,4
 50 84 50 84 50 157 c 2,5,-1
 50 314 l 2,6,7
 50 387 50 387 91.5 433.5 c 128,-1,8
 133 480 133 480 208 480 c 128,-1,9
 283 480 283 480 324.5 433.5 c 128,-1,10
 366 387 366 387 366 314 c 2,11,-1
 366 157 l 2,0,1
279 118 m 2,12,-1
 279 353 l 2,13,14
 279 450 279 450 207.5 450 c 128,-1,15
 136 450 136 450 136 353 c 2,16,-1
 136 118 l 2,17,18
 136 20 136 20 207.5 20 c 128,-1,19
 279 20 279 20 279 118 c 2,12,-1
255 660.5 m 128,-1,21
 268 676 268 676 286 676 c 128,-1,22
 304 676 304 676 317 660.5 c 128,-1,23
 330 645 330 645 330 622.5 c 128,-1,24
 330 600 330 600 317 584 c 128,-1,25
 304 568 304 568 286 568 c 128,-1,26
 268 568 268 568 255 584 c 128,-1,27
 242 600 242 600 242 622.5 c 128,-1,20
 242 645 242 645 255 660.5 c 128,-1,21
103 660.5 m 128,-1,29
 116 676 116 676 134 676 c 128,-1,30
 152 676 152 676 165 660.5 c 128,-1,31
 178 645 178 645 178 622.5 c 128,-1,32
 178 600 178 600 165 584 c 128,-1,33
 152 568 152 568 134 568 c 128,-1,34
 116 568 116 568 103 584 c 128,-1,35
 90 600 90 600 90 622.5 c 128,-1,28
 90 645 90 645 103 660.5 c 128,-1,29
EndSplineSet
EndChar

StartChar: oslash
Encoding: 248 248 169
Width: 416
GlyphClass: 2
Flags: W
LayerCount: 2
Fore
SplineSet
136 353 m 2,0,-1
 136 118 l 2,1,2
 136 52 136 52 169 31 c 1,3,-1
 214 450 l 1,4,-1
 208 451 l 1,5,6
 136 451 136 451 136 353 c 2,0,-1
210 20 m 2,7,8
 279 20 279 20 279 118 c 2,9,-1
 279 353 l 2,10,11
 279 418 279 418 248 440 c 1,12,-1
 203 21 l 1,13,-1
 208 20 l 1,14,-1
 210 20 l 2,7,8
366 314 m 2,15,-1
 366 157 l 2,16,17
 366 84 366 84 324.5 37 c 128,-1,18
 283 -10 283 -10 208 -10 c 2,19,-1
 200 -10 l 1,20,-1
 197 -39 l 1,21,-1
 162 -35 l 1,22,-1
 165 -4 l 1,23,24
 110 8 110 8 80 52 c 128,-1,25
 50 96 50 96 50 157 c 2,26,-1
 50 314 l 2,27,28
 50 387 50 387 91.5 433.5 c 128,-1,29
 133 480 133 480 208 480 c 2,30,-1
 217 480 l 1,31,-1
 220 511 l 1,32,-1
 255 507 l 1,33,-1
 251 475 l 1,34,35
 306 463 306 463 336 419 c 128,-1,36
 366 375 366 375 366 314 c 2,15,-1
EndSplineSet
EndChar

StartChar: ugrave
Encoding: 249 249 170
Width: 444
GlyphClass: 2
Flags: W
LayerCount: 2
Fore
SplineSet
366 74 m 2,0,1
 366 40 366 40 387 40 c 128,-1,2
 408 40 408 40 420 72 c 1,3,-1
 439 68 l 1,4,5
 439 60 439 60 433.5 43.5 c 128,-1,6
 428 27 428 27 420.5 17 c 128,-1,7
 413 7 413 7 397 -1.5 c 128,-1,8
 381 -10 381 -10 361 -10 c 0,9,10
 291 -10 291 -10 281 64 c 1,11,12
 252 -10 252 -10 181 -10 c 0,13,14
 121 -10 121 -10 85.5 33 c 128,-1,15
 50 76 50 76 50 149 c 2,16,-1
 50 470 l 1,17,-1
 137 470 l 1,18,-1
 137 115 l 2,19,20
 137 22 137 22 195 22 c 0,21,22
 236 22 236 22 257.5 55 c 128,-1,23
 279 88 279 88 279 137 c 2,24,-1
 279 470 l 1,25,-1
 366 470 l 1,26,-1
 366 74 l 2,0,1
104 626 m 1,27,28
 93 637 93 637 93 651 c 128,-1,29
 93 665 93 665 106 677.5 c 128,-1,30
 119 690 119 690 136 690 c 128,-1,31
 153 690 153 690 162 674 c 2,32,-1
 236 539 l 1,33,-1
 219 526 l 1,34,-1
 104 626 l 1,27,28
EndSplineSet
EndChar

StartChar: uacute
Encoding: 250 250 171
Width: 444
GlyphClass: 2
Flags: W
LayerCount: 2
Fore
SplineSet
366 74 m 2,0,1
 366 40 366 40 387 40 c 128,-1,2
 408 40 408 40 420 72 c 1,3,-1
 439 68 l 1,4,5
 439 60 439 60 433.5 43.5 c 128,-1,6
 428 27 428 27 420.5 17 c 128,-1,7
 413 7 413 7 397 -1.5 c 128,-1,8
 381 -10 381 -10 361 -10 c 0,9,10
 291 -10 291 -10 281 64 c 1,11,12
 252 -10 252 -10 181 -10 c 0,13,14
 121 -10 121 -10 85.5 33 c 128,-1,15
 50 76 50 76 50 149 c 2,16,-1
 50 470 l 1,17,-1
 137 470 l 1,18,-1
 137 115 l 2,19,20
 137 22 137 22 195 22 c 0,21,22
 236 22 236 22 257.5 55 c 128,-1,23
 279 88 279 88 279 137 c 2,24,-1
 279 470 l 1,25,-1
 366 470 l 1,26,-1
 366 74 l 2,0,1
243 674 m 2,27,28
 252 690 252 690 268.5 690 c 128,-1,29
 285 690 285 690 298.5 677.5 c 128,-1,30
 312 665 312 665 312 650.5 c 128,-1,31
 312 636 312 636 301 627 c 2,32,-1
 186 527 l 1,33,-1
 169 539 l 1,34,-1
 243 674 l 2,27,28
EndSplineSet
EndChar

StartChar: ucircumflex
Encoding: 251 251 172
Width: 444
GlyphClass: 2
Flags: W
LayerCount: 2
Fore
SplineSet
366 74 m 2,0,1
 366 40 366 40 387 40 c 128,-1,2
 408 40 408 40 420 72 c 1,3,-1
 439 68 l 1,4,5
 439 60 439 60 433.5 43.5 c 128,-1,6
 428 27 428 27 420.5 17 c 128,-1,7
 413 7 413 7 397 -1.5 c 128,-1,8
 381 -10 381 -10 361 -10 c 0,9,10
 291 -10 291 -10 281 64 c 1,11,12
 252 -10 252 -10 181 -10 c 0,13,14
 121 -10 121 -10 85.5 33 c 128,-1,15
 50 76 50 76 50 149 c 2,16,-1
 50 470 l 1,17,-1
 137 470 l 1,18,-1
 137 115 l 2,19,20
 137 22 137 22 195 22 c 0,21,22
 236 22 236 22 257.5 55 c 128,-1,23
 279 88 279 88 279 137 c 2,24,-1
 279 470 l 1,25,-1
 366 470 l 1,26,-1
 366 74 l 2,0,1
181 673 m 2,27,28
 190 690 190 690 210 690 c 128,-1,29
 230 690 230 690 239 673 c 2,30,-1
 314 547 l 1,31,-1
 302 537 l 1,32,-1
 211 634 l 1,33,-1
 118 537 l 1,34,-1
 106 547 l 1,35,-1
 181 673 l 2,27,28
EndSplineSet
EndChar

StartChar: udieresis
Encoding: 252 252 173
Width: 444
GlyphClass: 2
Flags: W
LayerCount: 2
Fore
SplineSet
366 74 m 2,0,1
 366 40 366 40 387 40 c 128,-1,2
 408 40 408 40 420 72 c 1,3,-1
 439 68 l 1,4,5
 439 60 439 60 433.5 43.5 c 128,-1,6
 428 27 428 27 420.5 17 c 128,-1,7
 413 7 413 7 397 -1.5 c 128,-1,8
 381 -10 381 -10 361 -10 c 0,9,10
 291 -10 291 -10 281 64 c 1,11,12
 252 -10 252 -10 181 -10 c 0,13,14
 121 -10 121 -10 85.5 33 c 128,-1,15
 50 76 50 76 50 149 c 2,16,-1
 50 470 l 1,17,-1
 137 470 l 1,18,-1
 137 115 l 2,19,20
 137 22 137 22 195 22 c 0,21,22
 236 22 236 22 257.5 55 c 128,-1,23
 279 88 279 88 279 137 c 2,24,-1
 279 470 l 1,25,-1
 366 470 l 1,26,-1
 366 74 l 2,0,1
258 660.5 m 128,-1,28
 271 676 271 676 289 676 c 128,-1,29
 307 676 307 676 320 660.5 c 128,-1,30
 333 645 333 645 333 622.5 c 128,-1,31
 333 600 333 600 320 584 c 128,-1,32
 307 568 307 568 289 568 c 128,-1,33
 271 568 271 568 258 584 c 128,-1,34
 245 600 245 600 245 622.5 c 128,-1,27
 245 645 245 645 258 660.5 c 128,-1,28
106 660.5 m 128,-1,36
 119 676 119 676 137 676 c 128,-1,37
 155 676 155 676 168 660.5 c 128,-1,38
 181 645 181 645 181 622.5 c 128,-1,39
 181 600 181 600 168 584 c 128,-1,40
 155 568 155 568 137 568 c 128,-1,41
 119 568 119 568 106 584 c 128,-1,42
 93 600 93 600 93 622.5 c 128,-1,35
 93 645 93 645 106 660.5 c 128,-1,36
EndSplineSet
EndChar

StartChar: yacute
Encoding: 253 253 174
Width: 421
GlyphClass: 2
Flags: W
LayerCount: 2
Fore
SplineSet
396 424 m 2,0,1
 396 368 396 368 356.5 326 c 128,-1,2
 317 284 317 284 253 273 c 1,3,-1
 253 0 l 1,4,-1
 167 0 l 1,5,-1
 167 273 l 1,6,7
 104 284 104 284 64.5 326 c 128,-1,8
 25 368 25 368 25 424 c 2,9,-1
 25 470 l 1,10,-1
 104 470 l 1,11,-1
 104 388 l 2,12,13
 104 348 104 348 133.5 321.5 c 128,-1,14
 163 295 163 295 210 295 c 128,-1,15
 257 295 257 295 287 322 c 128,-1,16
 317 349 317 349 317 388 c 2,17,-1
 317 470 l 1,18,-1
 396 470 l 1,19,-1
 396 424 l 2,0,1
256 674 m 2,20,21
 265 690 265 690 281.5 690 c 128,-1,22
 298 690 298 690 311.5 677.5 c 128,-1,23
 325 665 325 665 325 650.5 c 128,-1,24
 325 636 325 636 314 627 c 2,25,-1
 199 527 l 1,26,-1
 182 539 l 1,27,-1
 256 674 l 2,20,21
EndSplineSet
EndChar

StartChar: thorn
Encoding: 254 254 175
Width: 426
GlyphClass: 2
Flags: W
LayerCount: 2
Fore
SplineSet
376 149 m 2,0,1
 376 77 376 77 340.5 33.5 c 128,-1,2
 305 -10 305 -10 240.5 -10 c 128,-1,3
 176 -10 176 -10 146 59 c 1,4,-1
 146 -145 l 1,5,-1
 60 -145 l 1,6,-1
 60 690 l 1,7,-1
 146 690 l 1,8,-1
 146 411 l 1,9,10
 176 480 176 480 240.5 480 c 128,-1,11
 305 480 305 480 340.5 437.5 c 128,-1,12
 376 395 376 395 376 322 c 2,13,-1
 376 149 l 2,0,1
288 115 m 2,14,-1
 288 356 l 2,15,16
 288 450 288 450 231 450 c 0,17,18
 190 450 190 450 168 416.5 c 128,-1,19
 146 383 146 383 146 334 c 2,20,-1
 146 137 l 2,21,22
 146 92 146 92 168 57 c 128,-1,23
 190 22 190 22 229 22 c 0,24,25
 288 22 288 22 288 115 c 2,14,-1
EndSplineSet
EndChar

StartChar: ydieresis
Encoding: 255 255 176
Width: 421
GlyphClass: 2
Flags: W
LayerCount: 2
Fore
SplineSet
396 424 m 2,0,1
 396 368 396 368 356.5 326 c 128,-1,2
 317 284 317 284 253 273 c 1,3,-1
 253 0 l 1,4,-1
 167 0 l 1,5,-1
 167 273 l 1,6,7
 104 284 104 284 64.5 326 c 128,-1,8
 25 368 25 368 25 424 c 2,9,-1
 25 470 l 1,10,-1
 104 470 l 1,11,-1
 104 388 l 2,12,13
 104 348 104 348 133.5 321.5 c 128,-1,14
 163 295 163 295 210 295 c 128,-1,15
 257 295 257 295 287 322 c 128,-1,16
 317 349 317 349 317 388 c 2,17,-1
 317 470 l 1,18,-1
 396 470 l 1,19,-1
 396 424 l 2,0,1
255 660.5 m 128,-1,21
 268 676 268 676 286 676 c 128,-1,22
 304 676 304 676 317 660.5 c 128,-1,23
 330 645 330 645 330 622.5 c 128,-1,24
 330 600 330 600 317 584 c 128,-1,25
 304 568 304 568 286 568 c 128,-1,26
 268 568 268 568 255 584 c 128,-1,27
 242 600 242 600 242 622.5 c 128,-1,20
 242 645 242 645 255 660.5 c 128,-1,21
103 660.5 m 128,-1,29
 116 676 116 676 134 676 c 128,-1,30
 152 676 152 676 165 660.5 c 128,-1,31
 178 645 178 645 178 622.5 c 128,-1,32
 178 600 178 600 165 584 c 128,-1,33
 152 568 152 568 134 568 c 128,-1,34
 116 568 116 568 103 584 c 128,-1,35
 90 600 90 600 90 622.5 c 128,-1,28
 90 645 90 645 103 660.5 c 128,-1,29
EndSplineSet
EndChar

StartChar: Amacron
Encoding: 256 256 177
Width: 606
GlyphClass: 2
Flags: W
LayerCount: 2
Fore
SplineSet
536 0 m 1,0,-1
 427 0 l 1,1,-1
 427 110 l 1,2,3
 414 67 414 67 372.5 28.5 c 128,-1,4
 331 -10 331 -10 271 -10 c 0,5,6
 175 -10 175 -10 117.5 57.5 c 128,-1,7
 60 125 60 125 60 247 c 2,8,-1
 60 446 l 2,9,10
 60 569 60 569 123.5 634.5 c 128,-1,11
 187 700 187 700 273 700 c 0,12,13
 309 700 309 700 338.5 685 c 128,-1,14
 368 670 368 670 386 648 c 0,15,16
 415 611 415 611 427 575 c 1,17,-1
 427 690 l 1,18,-1
 536 690 l 1,19,-1
 536 0 l 1,0,-1
426 227 m 2,20,-1
 426 468 l 2,21,22
 426 542 426 542 387 603.5 c 128,-1,23
 348 665 348 665 283 665 c 0,24,25
 246 665 246 665 220.5 646 c 128,-1,26
 195 627 195 627 185 596 c 0,27,28
 168 545 168 545 168 497 c 2,29,-1
 168 197 l 2,30,31
 168 109 168 109 201 67 c 128,-1,32
 234 25 234 25 294 25 c 128,-1,33
 354 25 354 25 390 85.5 c 128,-1,34
 426 146 426 146 426 227 c 2,20,-1
414 860 m 1,35,-1
 192 860 l 1,36,-1
 192 910 l 1,37,-1
 414 910 l 1,38,-1
 414 860 l 1,35,-1
EndSplineSet
EndChar

StartChar: Abreve
Encoding: 258 258 178
Width: 606
GlyphClass: 2
Flags: W
LayerCount: 2
Fore
SplineSet
536 0 m 1,0,-1
 427 0 l 1,1,-1
 427 110 l 1,2,3
 414 67 414 67 372.5 28.5 c 128,-1,4
 331 -10 331 -10 271 -10 c 0,5,6
 175 -10 175 -10 117.5 57.5 c 128,-1,7
 60 125 60 125 60 247 c 2,8,-1
 60 446 l 2,9,10
 60 569 60 569 123.5 634.5 c 128,-1,11
 187 700 187 700 273 700 c 0,12,13
 309 700 309 700 338.5 685 c 128,-1,14
 368 670 368 670 386 648 c 0,15,16
 415 611 415 611 427 575 c 1,17,-1
 427 690 l 1,18,-1
 536 690 l 1,19,-1
 536 0 l 1,0,-1
426 227 m 2,20,-1
 426 468 l 2,21,22
 426 542 426 542 387 603.5 c 128,-1,23
 348 665 348 665 283 665 c 0,24,25
 246 665 246 665 220.5 646 c 128,-1,26
 195 627 195 627 185 596 c 0,27,28
 168 545 168 545 168 497 c 2,29,-1
 168 197 l 2,30,31
 168 109 168 109 201 67 c 128,-1,32
 234 25 234 25 294 25 c 128,-1,33
 354 25 354 25 390 85.5 c 128,-1,34
 426 146 426 146 426 227 c 2,20,-1
392.5 787 m 128,-1,36
 358 755 358 755 302.5 755 c 128,-1,37
 247 755 247 755 212.5 787 c 128,-1,38
 178 819 178 819 175 875 c 1,39,-1
 201 875 l 1,40,41
 223 814 223 814 304.5 814 c 128,-1,42
 386 814 386 814 404 875 c 1,43,-1
 431 875 l 1,44,35
 427 819 427 819 392.5 787 c 128,-1,36
EndSplineSet
EndChar

StartChar: dotlessi
Encoding: 305 305 179
Width: 225
GlyphClass: 2
Flags: W
LayerCount: 2
Fore
SplineSet
169 40 m 0,0,1
 189 40 189 40 201 72 c 1,2,-1
 220 69 l 1,3,4
 220 60 220 60 214 44 c 128,-1,5
 208 28 208 28 200.5 17.5 c 128,-1,6
 193 7 193 7 177.5 -1.5 c 128,-1,7
 162 -10 162 -10 142 -10 c 0,8,9
 60 -10 60 -10 60 89 c 2,10,-1
 60 470 l 1,11,-1
 146 470 l 1,12,-1
 146 74 l 2,13,14
 146 40 146 40 169 40 c 0,0,1
EndSplineSet
EndChar

StartChar: Lslash
Encoding: 321 321 180
Width: 385
GlyphClass: 2
Flags: W
LayerCount: 2
Fore
SplineSet
176 47 m 1,0,-1
 360 47 l 1,1,-1
 360 0 l 1,2,-1
 68 0 l 1,3,-1
 68 314 l 1,4,-1
 25 296 l 1,5,-1
 0 356 l 1,6,-1
 68 384 l 1,7,-1
 68 690 l 1,8,-1
 176 690 l 1,9,-1
 176 429 l 1,10,-1
 280 472 l 1,11,-1
 305 412 l 1,12,-1
 176 358 l 1,13,-1
 176 47 l 1,0,-1
EndSplineSet
EndChar

StartChar: lslash
Encoding: 322 322 181
Width: 227
GlyphClass: 2
Flags: W
LayerCount: 2
Fore
SplineSet
149 74 m 2,0,1
 149 40 149 40 171 40 c 0,2,3
 182 40 182 40 190 48 c 128,-1,4
 198 56 198 56 204 72 c 1,5,-1
 223 69 l 1,6,7
 223 61 223 61 217.5 44.5 c 128,-1,8
 212 28 212 28 204 18 c 0,9,10
 183 -10 183 -10 144 -10 c 0,11,12
 63 -10 63 -10 63 89 c 2,13,-1
 63 328 l 1,14,-1
 16 308 l 1,15,-1
 -10 367 l 1,16,-1
 63 399 l 1,17,-1
 63 690 l 1,18,-1
 149 690 l 1,19,-1
 149 436 l 1,20,-1
 226 470 l 1,21,-1
 252 410 l 1,22,-1
 149 365 l 1,23,-1
 149 74 l 2,0,1
EndSplineSet
EndChar

StartChar: OE
Encoding: 338 338 182
Width: 933
GlyphClass: 2
Flags: W
LayerCount: 2
Fore
SplineSet
426 182 m 2,0,-1
 426 509 l 2,1,2
 426 579 426 579 393.5 622 c 128,-1,3
 361 665 361 665 297.5 665 c 128,-1,4
 234 665 234 665 201.5 622 c 128,-1,5
 169 579 169 579 169 509 c 2,6,-1
 169 182 l 2,7,8
 169 111 169 111 201.5 68 c 128,-1,9
 234 25 234 25 297.5 25 c 128,-1,10
 361 25 361 25 393.5 68 c 128,-1,11
 426 111 426 111 426 182 c 2,0,-1
878 194 m 2,12,13
 878 140 878 140 857 98.5 c 128,-1,14
 836 57 836 57 802 34 c 0,15,16
 736 -10 736 -10 664 -10 c 0,17,18
 550 -10 550 -10 483 75 c 1,19,20
 420 -10 420 -10 301 -10 c 128,-1,21
 182 -10 182 -10 121 63 c 128,-1,22
 60 136 60 136 60 260 c 2,23,-1
 60 430 l 2,24,25
 60 554 60 554 121 627 c 128,-1,26
 182 700 182 700 301 700 c 128,-1,27
 420 700 420 700 483 615 c 1,28,29
 550 700 550 700 664 700 c 0,30,31
 750 700 750 700 814 647 c 128,-1,32
 878 594 878 594 878 499 c 2,33,-1
 878 486 l 1,34,-1
 793 486 l 1,35,-1
 793 508 l 2,36,37
 793 579 793 579 760.5 622 c 128,-1,38
 728 665 728 665 664.5 665 c 128,-1,39
 601 665 601 665 568.5 622 c 128,-1,40
 536 579 536 579 536 508 c 2,41,-1
 536 388 l 1,42,-1
 799 388 l 1,43,-1
 799 341 l 1,44,-1
 536 341 l 1,45,-1
 536 182 l 2,46,47
 536 111 536 111 568.5 68 c 128,-1,48
 601 25 601 25 664 25 c 0,49,50
 786 25 786 25 793 182 c 2,51,-1
 794 204 l 1,52,-1
 878 204 l 1,53,-1
 878 194 l 2,12,13
EndSplineSet
EndChar

StartChar: oe
Encoding: 339 339 183
Width: 611
GlyphClass: 2
Flags: W
LayerCount: 2
Fore
SplineSet
279 118 m 2,0,-1
 279 353 l 2,1,2
 279 450 279 450 207.5 450 c 128,-1,3
 136 450 136 450 136 353 c 2,4,-1
 136 118 l 2,5,6
 136 20 136 20 207.5 20 c 128,-1,7
 279 20 279 20 279 118 c 2,0,-1
566 232 m 1,8,-1
 366 232 l 1,9,-1
 366 118 l 2,10,11
 366 20 366 20 446 20 c 0,12,13
 489 20 489 20 511 55 c 128,-1,14
 533 90 533 90 533 115 c 1,15,-1
 555 115 l 1,16,17
 555 57 555 57 508 16 c 0,18,19
 478 -10 478 -10 432 -10 c 0,20,21
 361 -10 361 -10 320 33 c 1,22,23
 277 -10 277 -10 205 -10 c 128,-1,24
 133 -10 133 -10 91.5 37 c 128,-1,25
 50 84 50 84 50 157 c 2,26,-1
 50 314 l 2,27,28
 50 387 50 387 91.5 433.5 c 128,-1,29
 133 480 133 480 205.5 480 c 128,-1,30
 278 480 278 480 322 436 c 1,31,32
 364 480 364 480 434.5 480 c 128,-1,33
 505 480 505 480 535.5 432 c 128,-1,34
 566 384 566 384 566 311 c 2,35,-1
 566 232 l 1,8,-1
509 262 m 1,36,-1
 509 353 l 2,37,38
 509 450 509 450 439 450 c 0,39,40
 366 450 366 450 366 353 c 2,41,-1
 366 262 l 1,42,-1
 509 262 l 1,36,-1
EndSplineSet
EndChar

StartChar: Scaron
Encoding: 352 352 184
Width: 482
GlyphClass: 2
Flags: W
LayerCount: 2
Fore
SplineSet
397 286 m 2,0,1
 447 243 447 243 447 167 c 128,-1,2
 447 91 447 91 390.5 40.5 c 128,-1,3
 334 -10 334 -10 242.5 -10 c 128,-1,4
 151 -10 151 -10 93 33 c 128,-1,5
 35 76 35 76 35 173 c 2,6,-1
 35 184 l 1,7,-1
 114 184 l 1,8,-1
 114 162 l 2,9,10
 114 93 114 93 142.5 59 c 128,-1,11
 171 25 171 25 230.5 25 c 128,-1,12
 290 25 290 25 322 55 c 128,-1,13
 354 85 354 85 354 131.5 c 128,-1,14
 354 178 354 178 321 207 c 2,15,-1
 116 385 l 2,16,17
 58 435 58 435 58 515 c 128,-1,18
 58 595 58 595 108.5 647.5 c 128,-1,19
 159 700 159 700 242 700 c 128,-1,20
 325 700 325 700 367.5 659 c 128,-1,21
 410 618 410 618 410 569 c 2,22,-1
 410 563 l 1,23,-1
 378 563 l 1,24,25
 378 595 378 595 347 630 c 128,-1,26
 316 665 316 665 262.5 665 c 128,-1,27
 209 665 209 665 178.5 639 c 128,-1,28
 148 613 148 613 148 558.5 c 128,-1,29
 148 504 148 504 186 470 c 2,30,-1
 397 286 l 2,0,1
278 777 m 2,31,32
 269 760 269 760 249 760 c 128,-1,33
 229 760 229 760 220 777 c 2,34,-1
 145 903 l 1,35,-1
 159 913 l 1,36,-1
 250 816 l 1,37,-1
 339 913 l 1,38,-1
 353 903 l 1,39,-1
 278 777 l 2,31,32
EndSplineSet
EndChar

StartChar: scaron
Encoding: 353 353 185
Width: 356
GlyphClass: 2
Flags: W
LayerCount: 2
Fore
SplineSet
276 207 m 2,0,1
 316 170 316 170 316 116.5 c 128,-1,2
 316 63 316 63 278 26.5 c 128,-1,3
 240 -10 240 -10 169 -10 c 0,4,5
 132 -10 132 -10 104.5 2.5 c 128,-1,6
 77 15 77 15 64 35 c 0,7,8
 40 72 40 72 40 113 c 1,9,-1
 66 113 l 1,10,-1
 66 107 l 2,11,12
 66 68 66 68 92 44 c 128,-1,13
 118 20 118 20 159 20 c 0,14,15
 240 20 240 20 240 90 c 0,16,17
 240 122 240 122 213 147 c 2,18,-1
 86 261 l 2,19,20
 42 301 42 301 42 356 c 128,-1,21
 42 411 42 411 78.5 445.5 c 128,-1,22
 115 480 115 480 174 480 c 128,-1,23
 233 480 233 480 261 446.5 c 128,-1,24
 289 413 289 413 289 365 c 1,25,-1
 263 365 l 1,26,-1
 263 372 l 2,27,28
 263 408 263 408 240.5 429 c 128,-1,29
 218 450 218 450 183 450 c 128,-1,30
 148 450 148 450 129.5 433.5 c 128,-1,31
 111 417 111 417 111 386 c 128,-1,32
 111 355 111 355 141 328 c 2,33,-1
 276 207 l 2,0,1
203 554 m 2,34,35
 194 537 194 537 174 537 c 128,-1,36
 154 537 154 537 145 554 c 2,37,-1
 70 680 l 1,38,-1
 84 690 l 1,39,-1
 175 593 l 1,40,-1
 264 690 l 1,41,-1
 278 680 l 1,42,-1
 203 554 l 2,34,35
EndSplineSet
EndChar

StartChar: Ydieresis
Encoding: 376 376 186
Width: 565
GlyphClass: 2
Flags: W
LayerCount: 2
Fore
SplineSet
540 621 m 2,0,1
 540 524 540 524 483.5 452.5 c 128,-1,2
 427 381 427 381 337 363 c 1,3,-1
 337 0 l 1,4,-1
 228 0 l 1,5,-1
 228 362 l 1,6,7
 138 381 138 381 81.5 452.5 c 128,-1,8
 25 524 25 524 25 621 c 2,9,-1
 25 690 l 1,10,-1
 134 690 l 1,11,-1
 134 548 l 2,12,13
 134 481 134 481 175.5 436.5 c 128,-1,14
 217 392 217 392 282.5 392 c 128,-1,15
 348 392 348 392 389 436 c 128,-1,16
 430 480 430 480 430 548 c 2,17,-1
 430 690 l 1,18,-1
 540 690 l 1,19,-1
 540 621 l 2,0,1
327 852.5 m 128,-1,21
 340 868 340 868 358 868 c 128,-1,22
 376 868 376 868 389 852.5 c 128,-1,23
 402 837 402 837 402 814.5 c 128,-1,24
 402 792 402 792 389 776 c 128,-1,25
 376 760 376 760 358 760 c 128,-1,26
 340 760 340 760 327 776 c 128,-1,27
 314 792 314 792 314 814.5 c 128,-1,20
 314 837 314 837 327 852.5 c 128,-1,21
175 852.5 m 128,-1,29
 188 868 188 868 206 868 c 128,-1,30
 224 868 224 868 237 852.5 c 128,-1,31
 250 837 250 837 250 814.5 c 128,-1,32
 250 792 250 792 237 776 c 128,-1,33
 224 760 224 760 206 760 c 128,-1,34
 188 760 188 760 175 776 c 128,-1,35
 162 792 162 792 162 814.5 c 128,-1,28
 162 837 162 837 175 852.5 c 128,-1,29
EndSplineSet
EndChar

StartChar: Zcaron
Encoding: 381 381 187
Width: 525
GlyphClass: 2
Flags: W
LayerCount: 2
Fore
SplineSet
495 0 m 1,0,-1
 30 0 l 1,1,-1
 346 643 l 1,2,-1
 38 643 l 1,3,-1
 38 690 l 1,4,-1
 479 690 l 1,5,-1
 163 47 l 1,6,-1
 495 47 l 1,7,-1
 495 0 l 1,0,-1
320 777 m 2,8,9
 311 760 311 760 291 760 c 128,-1,10
 271 760 271 760 262 777 c 2,11,-1
 187 903 l 1,12,-1
 201 913 l 1,13,-1
 292 816 l 1,14,-1
 381 913 l 1,15,-1
 395 903 l 1,16,-1
 320 777 l 2,8,9
EndSplineSet
EndChar

StartChar: zcaron
Encoding: 382 382 188
Width: 355
GlyphClass: 2
Flags: W
LayerCount: 2
Fore
SplineSet
313 30 m 1,0,-1
 313 0 l 1,1,-1
 30 0 l 1,2,-1
 226 440 l 1,3,-1
 41 440 l 1,4,-1
 41 470 l 1,5,-1
 325 470 l 1,6,-1
 129 30 l 1,7,-1
 313 30 l 1,0,-1
223 554 m 2,8,9
 214 537 214 537 194 537 c 128,-1,10
 174 537 174 537 165 554 c 2,11,-1
 90 680 l 1,12,-1
 104 690 l 1,13,-1
 195 593 l 1,14,-1
 284 690 l 1,15,-1
 298 680 l 1,16,-1
 223 554 l 2,8,9
EndSplineSet
EndChar

StartChar: florin
Encoding: 402 402 189
Width: 433
GlyphClass: 2
Flags: W
LayerCount: 2
Fore
SplineSet
373 505 m 1,0,-1
 350 505 l 1,1,-1
 350 544 l 2,2,3
 350 596 350 596 335.5 625.5 c 128,-1,4
 321 655 321 655 297 655 c 0,5,6
 259 655 259 655 259 577 c 2,7,-1
 259 300 l 1,8,-1
 344 300 l 1,9,-1
 344 270 l 1,10,-1
 259 270 l 1,11,-1
 259 0 l 2,12,13
 259 -67 259 -67 232.5 -105 c 128,-1,14
 206 -143 206 -143 163 -143 c 0,15,16
 103 -143 103 -143 83 -87 c 1,17,-1
 83 -163 l 1,18,-1
 60 -163 l 1,19,-1
 60 42 l 1,20,-1
 83 42 l 1,21,-1
 83 3 l 2,22,23
 83 -49 83 -49 97.5 -78.5 c 128,-1,24
 112 -108 112 -108 136 -108 c 0,25,26
 174 -108 174 -108 174 -43 c 2,27,-1
 174 270 l 1,28,-1
 141 270 l 1,29,-1
 141 300 l 1,30,-1
 174 300 l 1,31,-1
 174 547 l 2,32,33
 174 614 174 614 200.5 652 c 128,-1,34
 227 690 227 690 270 690 c 0,35,36
 330 690 330 690 350 634 c 1,37,-1
 350 710 l 1,38,-1
 373 710 l 1,39,-1
 373 505 l 1,0,-1
EndSplineSet
EndChar

StartChar: circumflex
Encoding: 710 710 190
Width: 308
GlyphClass: 2
Flags: W
LayerCount: 2
Fore
SplineSet
125 673 m 2,0,1
 134 690 134 690 154 690 c 128,-1,2
 174 690 174 690 183 673 c 2,3,-1
 258 547 l 1,4,-1
 246 537 l 1,5,-1
 155 634 l 1,6,-1
 62 537 l 1,7,-1
 50 547 l 1,8,-1
 125 673 l 2,0,1
EndSplineSet
EndChar

StartChar: caron
Encoding: 711 711 191
Width: 308
GlyphClass: 2
Flags: W
LayerCount: 2
Fore
SplineSet
183 554 m 2,0,1
 174 537 174 537 154 537 c 128,-1,2
 134 537 134 537 125 554 c 2,3,-1
 50 680 l 1,4,-1
 64 690 l 1,5,-1
 155 593 l 1,6,-1
 244 690 l 1,7,-1
 258 680 l 1,8,-1
 183 554 l 2,0,1
EndSplineSet
EndChar

StartChar: breve
Encoding: 728 728 192
Width: 356
GlyphClass: 2
Flags: W
LayerCount: 2
Fore
SplineSet
267.5 567 m 128,-1,1
 233 535 233 535 177.5 535 c 128,-1,2
 122 535 122 535 87.5 567 c 128,-1,3
 53 599 53 599 50 655 c 1,4,-1
 76 655 l 1,5,6
 98 594 98 594 179.5 594 c 128,-1,7
 261 594 261 594 279 655 c 1,8,-1
 306 655 l 1,9,0
 302 599 302 599 267.5 567 c 128,-1,1
EndSplineSet
EndChar

StartChar: dotaccent
Encoding: 729 729 193
Width: 188
GlyphClass: 2
Flags: W
LayerCount: 2
Fore
SplineSet
50 622 m 128,-1,1
 50 644 50 644 63 659.5 c 128,-1,2
 76 675 76 675 94 675 c 128,-1,3
 112 675 112 675 125 659.5 c 128,-1,4
 138 644 138 644 138 622 c 128,-1,5
 138 600 138 600 125 584.5 c 128,-1,6
 112 569 112 569 94 569 c 128,-1,7
 76 569 76 569 63 584.5 c 128,-1,0
 50 600 50 600 50 622 c 128,-1,1
EndSplineSet
EndChar

StartChar: ring
Encoding: 730 730 194
Width: 218
GlyphClass: 2
Flags: W
LayerCount: 2
Fore
SplineSet
151 671 m 128,-1,1
 168 652 168 652 168 622.5 c 128,-1,2
 168 593 168 593 151 574.5 c 128,-1,3
 134 556 134 556 109 556 c 128,-1,4
 84 556 84 556 67 574.5 c 128,-1,5
 50 593 50 593 50 622.5 c 128,-1,6
 50 652 50 652 67 671 c 128,-1,7
 84 690 84 690 109 690 c 128,-1,0
 134 690 134 690 151 671 c 128,-1,1
133.5 592.5 m 128,-1,9
 144 605 144 605 144 622.5 c 128,-1,10
 144 640 144 640 133.5 652.5 c 128,-1,11
 123 665 123 665 109 665 c 128,-1,12
 95 665 95 665 84.5 652.5 c 128,-1,13
 74 640 74 640 74 622.5 c 128,-1,14
 74 605 74 605 84.5 592.5 c 128,-1,15
 95 580 95 580 109 580 c 128,-1,8
 123 580 123 580 133.5 592.5 c 128,-1,9
EndSplineSet
EndChar

StartChar: ogonek
Encoding: 731 731 195
Width: 231
GlyphClass: 2
Flags: W
LayerCount: 2
Fore
SplineSet
50 0 m 1,0,-1
 121 0 l 1,1,-1
 121 -5 l 2,2,3
 121 -79 121 -79 181 -103 c 1,4,-1
 176 -119 l 1,5,6
 115 -110 115 -110 82.5 -77.5 c 128,-1,7
 50 -45 50 -45 50 0 c 1,0,-1
EndSplineSet
EndChar

StartChar: tilde
Encoding: 732 732 196
Width: 372
GlyphClass: 2
Flags: W
LayerCount: 2
Fore
SplineSet
235 536 m 128,-1,1
 213 536 213 536 176 554.5 c 128,-1,2
 139 573 139 573 123 573 c 0,3,4
 92 573 92 573 63 544 c 1,5,-1
 50 555 l 1,6,7
 105 619 105 619 159 619 c 0,8,9
 176 619 176 619 207.5 602.5 c 128,-1,10
 239 586 239 586 263 586 c 128,-1,11
 287 586 287 586 309 600 c 1,12,-1
 310 601 l 1,13,-1
 322 591 l 1,14,15
 304 566 304 566 280.5 551 c 128,-1,0
 257 536 257 536 235 536 c 128,-1,1
EndSplineSet
EndChar

StartChar: hungarumlaut
Encoding: 733 733 197
Width: 392
GlyphClass: 2
Flags: W
LayerCount: 2
Fore
SplineSet
123 674 m 1,0,1
 133 690 133 690 149.5 690 c 128,-1,2
 166 690 166 690 179 677.5 c 128,-1,3
 192 665 192 665 192 650 c 128,-1,4
 192 635 192 635 181 627 c 1,5,-1
 67 527 l 1,6,-1
 50 539 l 1,7,-1
 123 674 l 1,0,1
273 674 m 1,8,9
 283 690 283 690 299.5 690 c 128,-1,10
 316 690 316 690 329 677.5 c 128,-1,11
 342 665 342 665 342 650 c 128,-1,12
 342 635 342 635 331 627 c 1,13,-1
 217 527 l 1,14,-1
 200 539 l 1,15,-1
 273 674 l 1,8,9
EndSplineSet
EndChar

StartChar: endash
Encoding: 8211 8211 198
Width: 500
GlyphClass: 2
Flags: W
LayerCount: 2
Fore
SplineSet
500 250 m 1,0,-1
 0 250 l 1,1,-1
 0 300 l 1,2,-1
 500 300 l 1,3,-1
 500 250 l 1,0,-1
EndSplineSet
EndChar

StartChar: emdash
Encoding: 8212 8212 199
Width: 1000
GlyphClass: 2
Flags: W
LayerCount: 2
Fore
SplineSet
1000 250 m 1,0,-1
 0 250 l 1,1,-1
 0 300 l 1,2,-1
 1000 300 l 1,3,-1
 1000 250 l 1,0,-1
EndSplineSet
EndChar

StartChar: quoteleft
Encoding: 8216 8216 200
Width: 204
GlyphClass: 2
Flags: W
LayerCount: 2
Fore
SplineSet
50 480 m 1,0,1
 50 551 50 551 70.5 600 c 128,-1,2
 91 649 91 649 142 688 c 1,3,-1
 154 678 l 1,4,5
 139 659 139 659 131 624 c 128,-1,6
 123 589 123 589 121 539 c 1,7,-1
 121 480 l 1,8,-1
 50 480 l 1,0,1
EndSplineSet
EndChar

StartChar: quoteright
Encoding: 8217 8217 201
Width: 174
GlyphClass: 2
Flags: W
LayerCount: 2
Fore
SplineSet
154 690 m 1,0,1
 154 619 154 619 133.5 570 c 128,-1,2
 113 521 113 521 63 482 c 1,3,-1
 50 492 l 1,4,5
 65 511 65 511 73.5 546 c 128,-1,6
 82 581 82 581 84 631 c 1,7,-1
 84 690 l 1,8,-1
 154 690 l 1,0,1
EndSplineSet
EndChar

StartChar: quotesinglbase
Encoding: 8218 8218 202
Width: 204
GlyphClass: 2
Flags: W
LayerCount: 2
Fore
SplineSet
154 110 m 1,0,1
 154 39 154 39 133.5 -10 c 128,-1,2
 113 -59 113 -59 63 -98 c 1,3,-1
 50 -88 l 1,4,5
 65 -69 65 -69 73.5 -34 c 128,-1,6
 82 1 82 1 84 51 c 1,7,-1
 84 110 l 1,8,-1
 154 110 l 1,0,1
EndSplineSet
EndChar

StartChar: quotedblleft
Encoding: 8220 8220 203
Width: 345
GlyphClass: 2
Flags: W
LayerCount: 2
Fore
SplineSet
191 480 m 1,0,1
 191 551 191 551 211.5 600 c 128,-1,2
 232 649 232 649 283 688 c 1,3,-1
 295 678 l 1,4,5
 280 659 280 659 272 624 c 128,-1,6
 264 589 264 589 262 539 c 1,7,-1
 262 480 l 1,8,-1
 191 480 l 1,0,1
50 480 m 1,9,10
 50 551 50 551 70.5 600 c 128,-1,11
 91 649 91 649 142 688 c 1,12,-1
 154 678 l 1,13,14
 139 659 139 659 131 624 c 128,-1,15
 123 589 123 589 121 539 c 1,16,-1
 121 480 l 1,17,-1
 50 480 l 1,9,10
EndSplineSet
EndChar

StartChar: quotedblright
Encoding: 8221 8221 204
Width: 345
GlyphClass: 2
Flags: W
LayerCount: 2
Fore
SplineSet
154 690 m 1,0,1
 154 619 154 619 133.5 570 c 128,-1,2
 113 521 113 521 63 482 c 1,3,-1
 50 492 l 1,4,5
 65 511 65 511 73.5 546 c 128,-1,6
 82 581 82 581 84 631 c 1,7,-1
 84 690 l 1,8,-1
 154 690 l 1,0,1
295 690 m 1,9,10
 295 619 295 619 274.5 570 c 128,-1,11
 254 521 254 521 204 482 c 1,12,-1
 191 492 l 1,13,14
 206 511 206 511 214.5 546 c 128,-1,15
 223 581 223 581 225 631 c 1,16,-1
 225 690 l 1,17,-1
 295 690 l 1,9,10
EndSplineSet
EndChar

StartChar: quotedblbase
Encoding: 8222 8222 205
Width: 345
GlyphClass: 2
Flags: W
LayerCount: 2
Fore
SplineSet
154 110 m 1,0,1
 154 39 154 39 133.5 -10 c 128,-1,2
 113 -59 113 -59 63 -98 c 1,3,-1
 50 -88 l 1,4,5
 65 -69 65 -69 73.5 -34 c 128,-1,6
 82 1 82 1 84 51 c 1,7,-1
 84 110 l 1,8,-1
 154 110 l 1,0,1
295 110 m 1,9,10
 295 39 295 39 274.5 -10 c 128,-1,11
 254 -59 254 -59 204 -98 c 1,12,-1
 191 -88 l 1,13,14
 206 -69 206 -69 214.5 -34 c 128,-1,15
 223 1 223 1 225 51 c 1,16,-1
 225 110 l 1,17,-1
 295 110 l 1,9,10
EndSplineSet
EndChar

StartChar: dagger
Encoding: 8224 8224 206
Width: 490
GlyphClass: 2
Flags: W
LayerCount: 2
Fore
SplineSet
299 0 m 1,0,-1
 190 0 l 1,1,-1
 190 554 l 1,2,-1
 60 554 l 1,3,-1
 60 619 l 1,4,-1
 190 619 l 1,5,-1
 190 690 l 1,6,-1
 299 690 l 1,7,-1
 299 619 l 1,8,-1
 430 619 l 1,9,-1
 430 554 l 1,10,-1
 299 554 l 1,11,-1
 299 0 l 1,0,-1
EndSplineSet
EndChar

StartChar: daggerdbl
Encoding: 8225 8225 207
Width: 490
GlyphClass: 2
Flags: W
LayerCount: 2
Fore
SplineSet
299 0 m 1,0,-1
 190 0 l 1,1,-1
 190 424 l 1,2,-1
 60 424 l 1,3,-1
 60 489 l 1,4,-1
 190 489 l 1,5,-1
 190 554 l 1,6,-1
 60 554 l 1,7,-1
 60 619 l 1,8,-1
 190 619 l 1,9,-1
 190 690 l 1,10,-1
 299 690 l 1,11,-1
 299 619 l 1,12,-1
 430 619 l 1,13,-1
 430 554 l 1,14,-1
 299 554 l 1,15,-1
 299 489 l 1,16,-1
 430 489 l 1,17,-1
 430 424 l 1,18,-1
 299 424 l 1,19,-1
 299 0 l 1,0,-1
EndSplineSet
EndChar

StartChar: bullet
Encoding: 8226 8226 208
Width: 296
GlyphClass: 2
Flags: W
LayerCount: 2
Fore
SplineSet
60 242 m 128,-1,1
 60 279 60 279 85.5 304.5 c 128,-1,2
 111 330 111 330 148 330 c 128,-1,3
 185 330 185 330 210.5 304.5 c 128,-1,4
 236 279 236 279 236 242 c 128,-1,5
 236 205 236 205 210.5 179.5 c 128,-1,6
 185 154 185 154 148 154 c 128,-1,7
 111 154 111 154 85.5 179.5 c 128,-1,0
 60 205 60 205 60 242 c 128,-1,1
EndSplineSet
EndChar

StartChar: ellipsis
Encoding: 8230 8230 209
Width: 540
GlyphClass: 2
Flags: W
LayerCount: 2
Fore
SplineSet
50 43 m 128,-1,1
 50 65 50 65 63 80.5 c 128,-1,2
 76 96 76 96 94 96 c 128,-1,3
 112 96 112 96 125 80.5 c 128,-1,4
 138 65 138 65 138 43 c 128,-1,5
 138 21 138 21 125 5.5 c 128,-1,6
 112 -10 112 -10 94 -10 c 128,-1,7
 76 -10 76 -10 63 5.5 c 128,-1,0
 50 21 50 21 50 43 c 128,-1,1
226 43 m 128,-1,9
 226 65 226 65 239 80.5 c 128,-1,10
 252 96 252 96 270 96 c 128,-1,11
 288 96 288 96 301 80.5 c 128,-1,12
 314 65 314 65 314 43 c 128,-1,13
 314 21 314 21 301 5.5 c 128,-1,14
 288 -10 288 -10 270 -10 c 128,-1,15
 252 -10 252 -10 239 5.5 c 128,-1,8
 226 21 226 21 226 43 c 128,-1,9
402 43 m 128,-1,17
 402 65 402 65 415 80.5 c 128,-1,18
 428 96 428 96 446 96 c 128,-1,19
 464 96 464 96 477 80.5 c 128,-1,20
 490 65 490 65 490 43 c 128,-1,21
 490 21 490 21 477 5.5 c 128,-1,22
 464 -10 464 -10 446 -10 c 128,-1,23
 428 -10 428 -10 415 5.5 c 128,-1,16
 402 21 402 21 402 43 c 128,-1,17
EndSplineSet
EndChar

StartChar: perthousand
Encoding: 8240 8240 210
Width: 1128
GlyphClass: 2
Flags: W
LayerCount: 2
Fore
SplineSet
523 689 m 1,0,-1
 605 689 l 1,1,-1
 258 1 l 1,2,-1
 175 1 l 1,3,-1
 523 689 l 1,0,-1
346 507 m 2,4,5
 346 434 346 434 309.5 392 c 128,-1,6
 273 350 273 350 198 350 c 128,-1,7
 123 350 123 350 86.5 392 c 128,-1,8
 50 434 50 434 50 507 c 2,9,-1
 50 544 l 2,10,11
 50 617 50 617 86.5 658.5 c 128,-1,12
 123 700 123 700 198 700 c 128,-1,13
 273 700 273 700 309.5 658.5 c 128,-1,14
 346 617 346 617 346 544 c 2,15,-1
 346 507 l 2,4,5
259 478 m 2,16,-1
 259 573 l 2,17,18
 259 621 259 621 247.5 645.5 c 128,-1,19
 236 670 236 670 198 670 c 128,-1,20
 160 670 160 670 148 645 c 128,-1,21
 136 620 136 620 136 573 c 2,22,-1
 136 478 l 2,23,24
 136 431 136 431 148 405.5 c 128,-1,25
 160 380 160 380 198 380 c 128,-1,26
 236 380 236 380 247.5 405 c 128,-1,27
 259 430 259 430 259 478 c 2,16,-1
731 146 m 2,28,29
 731 73 731 73 694.5 31.5 c 128,-1,30
 658 -10 658 -10 583 -10 c 128,-1,31
 508 -10 508 -10 471.5 31.5 c 128,-1,32
 435 73 435 73 435 146 c 2,33,-1
 435 183 l 2,34,35
 435 256 435 256 471.5 298 c 128,-1,36
 508 340 508 340 583 340 c 128,-1,37
 658 340 658 340 694.5 298 c 128,-1,38
 731 256 731 256 731 183 c 2,39,-1
 731 146 l 2,28,29
644 117 m 2,40,-1
 644 212 l 2,41,42
 644 260 644 260 632.5 285 c 128,-1,43
 621 310 621 310 583 310 c 128,-1,44
 545 310 545 310 533 284.5 c 128,-1,45
 521 259 521 259 521 212 c 2,46,-1
 521 117 l 2,47,48
 521 70 521 70 533 45 c 128,-1,49
 545 20 545 20 583 20 c 128,-1,50
 621 20 621 20 632.5 44.5 c 128,-1,51
 644 69 644 69 644 117 c 2,40,-1
1078 146 m 2,52,53
 1078 73 1078 73 1041.5 31.5 c 128,-1,54
 1005 -10 1005 -10 930 -10 c 128,-1,55
 855 -10 855 -10 818.5 31.5 c 128,-1,56
 782 73 782 73 782 146 c 2,57,-1
 782 183 l 2,58,59
 782 256 782 256 818.5 298 c 128,-1,60
 855 340 855 340 930 340 c 128,-1,61
 1005 340 1005 340 1041.5 298 c 128,-1,62
 1078 256 1078 256 1078 183 c 2,63,-1
 1078 146 l 2,52,53
991 117 m 2,64,-1
 991 212 l 2,65,66
 991 260 991 260 979.5 285 c 128,-1,67
 968 310 968 310 930 310 c 128,-1,68
 892 310 892 310 880 284.5 c 128,-1,69
 868 259 868 259 868 212 c 2,70,-1
 868 117 l 2,71,72
 868 70 868 70 880 45 c 128,-1,73
 892 20 892 20 930 20 c 128,-1,74
 968 20 968 20 979.5 44.5 c 128,-1,75
 991 69 991 69 991 117 c 2,64,-1
EndSplineSet
EndChar

StartChar: guilsinglleft
Encoding: 8249 8249 211
Width: 274
GlyphClass: 2
Flags: W
LayerCount: 2
Fore
SplineSet
223 180 m 2,0,1
 224 179 224 179 224 175 c 128,-1,2
 224 171 224 171 216.5 163.5 c 128,-1,3
 209 156 209 156 202.5 156 c 128,-1,4
 196 156 196 156 193 159 c 2,5,-1
 53 302 l 2,6,7
 50 305 50 305 50 312.5 c 128,-1,8
 50 320 50 320 53 323 c 2,9,-1
 193 467 l 2,10,11
 196 470 196 470 202 470 c 128,-1,12
 208 470 208 470 216 463.5 c 128,-1,13
 224 457 224 457 224 453 c 128,-1,14
 224 449 224 449 223 447 c 2,15,-1
 133 313 l 1,16,-1
 223 180 l 2,0,1
EndSplineSet
EndChar

StartChar: guilsinglright
Encoding: 8250 8250 212
Width: 274
GlyphClass: 2
Flags: W
LayerCount: 2
Fore
SplineSet
51 447 m 2,0,1
 50 449 50 449 50 453 c 128,-1,2
 50 457 50 457 58 463.5 c 128,-1,3
 66 470 66 470 72 470 c 128,-1,4
 78 470 78 470 81 467 c 2,5,-1
 221 323 l 2,6,7
 224 320 224 320 224 312.5 c 128,-1,8
 224 305 224 305 221 302 c 2,9,-1
 81 159 l 2,10,11
 78 156 78 156 71.5 156 c 128,-1,12
 65 156 65 156 57.5 163.5 c 128,-1,13
 50 171 50 171 50 175 c 128,-1,14
 50 179 50 179 51 180 c 2,15,-1
 141 313 l 1,16,-1
 51 447 l 2,0,1
EndSplineSet
EndChar

StartChar: fraction
Encoding: 8260 8260 213
Width: 549
GlyphClass: 2
Flags: W
LayerCount: 2
Fore
SplineSet
407 730 m 1,0,-1
 489 730 l 1,1,-1
 142 -30 l 1,2,-1
 60 -30 l 1,3,-1
 407 730 l 1,0,-1
EndSplineSet
EndChar

StartChar: Euro
Encoding: 8364 8364 214
Width: 629
GlyphClass: 2
Flags: W
LayerCount: 2
Fore
SplineSet
60 420 m 1,0,-1
 117 420 l 1,1,-1
 117 435 l 2,2,3
 117 549 117 549 181.5 624.5 c 128,-1,4
 246 700 246 700 355 700 c 0,5,6
 440 700 440 700 504.5 647 c 128,-1,7
 569 594 569 594 569 499 c 2,8,-1
 569 486 l 1,9,-1
 483 486 l 1,10,-1
 483 509 l 2,11,12
 483 579 483 579 450.5 622 c 128,-1,13
 418 665 418 665 354.5 665 c 128,-1,14
 291 665 291 665 258.5 622 c 128,-1,15
 226 579 226 579 226 509 c 2,16,-1
 226 420 l 1,17,-1
 484 420 l 1,18,-1
 484 373 l 1,19,-1
 226 373 l 1,20,-1
 226 326 l 1,21,-1
 484 326 l 1,22,-1
 484 279 l 1,23,-1
 226 279 l 1,24,-1
 226 182 l 2,25,26
 226 111 226 111 258.5 68 c 128,-1,27
 291 25 291 25 354.5 25 c 128,-1,28
 418 25 418 25 450.5 68 c 128,-1,29
 483 111 483 111 483 182 c 2,30,-1
 483 204 l 1,31,-1
 569 204 l 1,32,-1
 569 194 l 2,33,34
 569 140 569 140 548 98.5 c 128,-1,35
 527 57 527 57 494 34 c 1,36,37
 427 -10 427 -10 355 -10 c 0,38,39
 246 -10 246 -10 181.5 65 c 128,-1,40
 117 140 117 140 117 254 c 2,41,-1
 117 279 l 1,42,-1
 60 279 l 1,43,-1
 60 326 l 1,44,-1
 117 326 l 1,45,-1
 117 373 l 1,46,-1
 60 373 l 1,47,-1
 60 420 l 1,0,-1
EndSplineSet
EndChar

StartChar: trademark
Encoding: 8482 8482 215
Width: 666
GlyphClass: 2
Flags: W
LayerCount: 2
Fore
SplineSet
343 589 m 1,0,-1
 290 589 l 1,1,-1
 290 604 l 2,2,3
 290 640 290 640 275.5 657.5 c 128,-1,4
 261 675 261 675 230 682 c 1,5,-1
 230 361 l 1,6,-1
 174 361 l 1,7,-1
 174 682 l 1,8,9
 143 675 143 675 128 658 c 128,-1,10
 113 641 113 641 113 604 c 2,11,-1
 113 589 l 1,12,-1
 60 589 l 1,13,-1
 60 604 l 2,14,15
 60 700 60 700 201.5 700 c 128,-1,16
 343 700 343 700 343 604 c 2,17,-1
 343 589 l 1,0,-1
569 398 m 2,18,19
 569 381 569 381 579.5 381 c 128,-1,20
 590 381 590 381 596 397 c 1,21,-1
 606 396 l 1,22,23
 606 381 606 381 594 368 c 128,-1,24
 582 355 582 355 566 355 c 0,25,26
 524 355 524 355 524 406 c 2,27,-1
 524 493 l 2,28,29
 524 541 524 541 494 541 c 0,30,31
 474 541 474 541 463 523 c 128,-1,32
 452 505 452 505 452 482 c 2,33,-1
 452 361 l 1,34,-1
 407 361 l 1,35,-1
 407 493 l 2,36,37
 407 541 407 541 377 541 c 0,38,39
 357 541 357 541 345.5 523 c 128,-1,40
 334 505 334 505 334 482 c 2,41,-1
 334 361 l 1,42,-1
 290 361 l 1,43,-1
 290 551 l 1,44,-1
 334 551 l 1,45,-1
 334 522 l 1,46,47
 349 556 349 556 385 556 c 0,48,49
 433 556 433 556 447 508 c 1,50,51
 459 556 459 556 502 556 c 0,52,53
 533 556 533 556 551 534 c 128,-1,54
 569 512 569 512 569 475 c 2,55,-1
 569 398 l 2,18,19
EndSplineSet
EndChar

StartChar: minus
Encoding: 8722 8722 216
Width: 350
GlyphClass: 2
Flags: W
LayerCount: 2
Fore
SplineSet
300 210 m 1,0,-1
 50 210 l 1,1,-1
 50 260 l 1,2,-1
 300 260 l 1,3,-1
 300 210 l 1,0,-1
EndSplineSet
EndChar

StartChar: ff
Encoding: 64256 64256 217
Width: 546
GlyphClass: 2
Flags: W
LayerCount: 2
Fore
SplineSet
506 516 m 1,0,-1
 484 516 l 1,1,-1
 484 554 l 2,2,3
 484 606 484 606 469 635.5 c 128,-1,4
 454 665 454 665 430 665 c 0,5,6
 392 665 392 665 392 587 c 2,7,-1
 392 300 l 1,8,-1
 478 300 l 1,9,-1
 478 270 l 1,10,-1
 392 270 l 1,11,-1
 392 0 l 1,12,-1
 307 0 l 1,13,-1
 307 270 l 1,14,-1
 158 270 l 1,15,-1
 158 0 l 1,16,-1
 73 0 l 1,17,-1
 73 270 l 1,18,-1
 40 270 l 1,19,-1
 40 300 l 1,20,-1
 73 300 l 1,21,-1
 73 557 l 2,22,23
 73 624 73 624 99.5 662 c 128,-1,24
 126 700 126 700 169 700 c 0,25,26
 229 700 229 700 249 644 c 1,27,-1
 249 720 l 1,28,-1
 272 720 l 1,29,-1
 272 516 l 1,30,-1
 249 516 l 1,31,-1
 249 554 l 2,32,33
 249 606 249 606 234.5 635.5 c 128,-1,34
 220 665 220 665 196 665 c 0,35,36
 158 665 158 665 158 587 c 2,37,-1
 158 300 l 1,38,-1
 307 300 l 1,39,-1
 307 557 l 2,40,41
 307 624 307 624 333.5 662 c 128,-1,42
 360 700 360 700 404 700 c 0,43,44
 463 700 463 700 484 644 c 1,45,-1
 484 720 l 1,46,-1
 506 720 l 1,47,-1
 506 516 l 1,0,-1
EndSplineSet
EndChar

StartChar: fi
Encoding: 64257 64257 218
Width: 471
GlyphClass: 2
Flags: W
LayerCount: 2
Fore
SplineSet
329 545 m 1,0,-1
 307 545 l 1,1,-1
 307 554 l 2,2,3
 307 596 307 596 284.5 630.5 c 128,-1,4
 262 665 262 665 229.5 665 c 128,-1,5
 197 665 197 665 177.5 644.5 c 128,-1,6
 158 624 158 624 158 591 c 2,7,-1
 158 300 l 1,8,-1
 243 300 l 1,9,-1
 243 270 l 1,10,-1
 158 270 l 1,11,-1
 158 0 l 1,12,-1
 73 0 l 1,13,-1
 73 270 l 1,14,-1
 40 270 l 1,15,-1
 40 300 l 1,16,-1
 73 300 l 1,17,-1
 73 566 l 2,18,19
 73 629 73 629 114.5 664.5 c 128,-1,20
 156 700 156 700 200.5 700 c 128,-1,21
 245 700 245 700 272.5 678 c 128,-1,22
 300 656 300 656 307 633 c 1,23,-1
 307 720 l 1,24,-1
 329 720 l 1,25,-1
 329 545 l 1,0,-1
415 40 m 0,26,27
 435 40 435 40 447 72 c 1,28,-1
 466 69 l 1,29,30
 466 60 466 60 460 44 c 128,-1,31
 454 28 454 28 446.5 17.5 c 128,-1,32
 439 7 439 7 423.5 -1.5 c 128,-1,33
 408 -10 408 -10 388 -10 c 0,34,35
 306 -10 306 -10 306 89 c 2,36,-1
 306 470 l 1,37,-1
 392 470 l 1,38,-1
 392 74 l 2,39,40
 392 40 392 40 415 40 c 0,26,27
EndSplineSet
EndChar

StartChar: fl
Encoding: 64258 64258 219
Width: 473
GlyphClass: 2
Flags: W
LayerCount: 2
Fore
SplineSet
307 89 m 2,0,-1
 307 554 l 2,1,2
 307 603 307 603 282.5 634 c 128,-1,3
 258 665 258 665 227.5 665 c 128,-1,4
 197 665 197 665 177.5 644.5 c 128,-1,5
 158 624 158 624 158 592 c 2,6,-1
 158 300 l 1,7,-1
 243 300 l 1,8,-1
 243 270 l 1,9,-1
 158 270 l 1,10,-1
 158 0 l 1,11,-1
 73 0 l 1,12,-1
 73 270 l 1,13,-1
 40 270 l 1,14,-1
 40 300 l 1,15,-1
 73 300 l 1,16,-1
 73 567 l 2,17,18
 73 630 73 630 114.5 665 c 128,-1,19
 156 700 156 700 200.5 700 c 128,-1,20
 245 700 245 700 272.5 678 c 128,-1,21
 300 656 300 656 307 633 c 1,22,-1
 307 690 l 1,23,-1
 394 690 l 1,24,-1
 394 74 l 2,25,26
 394 40 394 40 416 40 c 0,27,28
 427 40 427 40 435 48 c 128,-1,29
 443 56 443 56 449 72 c 1,30,-1
 468 69 l 1,31,32
 468 61 468 61 462.5 44.5 c 128,-1,33
 457 28 457 28 449 18 c 0,34,35
 428 -10 428 -10 389 -10 c 0,36,37
 307 -10 307 -10 307 89 c 2,0,-1
EndSplineSet
EndChar

StartChar: typerepublic
Encoding: 65540 -1 221
Width: 815
GlyphClass: 2
Flags: W
LayerCount: 2
Fore
SplineSet
735 0 m 1,0,-1
 80 0 l 1,1,-1
 80 658 l 1,2,-1
 735 658 l 1,3,-1
 735 0 l 1,0,-1
668 403 m 1,4,-1
 471 409 l 1,5,-1
 404 595 l 1,6,-1
 337 409 l 1,7,-1
 139 403 l 1,8,-1
 295 282 l 1,9,-1
 240 92 l 1,10,-1
 404 203 l 1,11,-1
 567 92 l 1,12,-1
 512 282 l 1,13,-1
 668 403 l 1,4,-1
EndSplineSet
EndChar

StartChar: W.alt1
Encoding: 65541 -1 222
Width: 843
GlyphClass: 2
Flags: W
LayerCount: 2
Fore
SplineSet
838 690 m 1,0,-1
 667 0 l 1,1,-1
 543 0 l 1,2,-1
 420 528 l 1,3,-1
 288 0 l 1,4,-1
 165 0 l 1,5,-1
 5 690 l 1,6,-1
 117 690 l 1,7,-1
 259 77 l 1,8,-1
 396 631 l 1,9,-1
 384 690 l 1,10,-1
 496 690 l 1,11,-1
 636 77 l 1,12,-1
 790 690 l 1,13,-1
 838 690 l 1,0,-1
EndSplineSet
EndChar

StartChar: w.alt1
Encoding: 65542 -1 223
Width: 579
GlyphClass: 2
Flags: W
LayerCount: 2
Fore
SplineSet
574 470 m 1,0,-1
 449 0 l 1,1,-1
 362 0 l 1,2,-1
 288 302 l 1,3,-1
 209 0 l 1,4,-1
 121 0 l 1,5,-1
 5 470 l 1,6,-1
 92 470 l 1,7,-1
 193 62 l 1,8,-1
 273 365 l 1,9,-1
 246 470 l 1,10,-1
 333 470 l 1,11,-1
 433 62 l 1,12,-1
 541 470 l 1,13,-1
 574 470 l 1,0,-1
EndSplineSet
EndChar
